<svg width="625" height="725" viewBox="0 0 625 725" fill="none" xmlns="http://www.w3.org/2000/svg">
<rect x="46.2409" y="134.967" width="532.518" height="545.258" rx="90.4742" fill="#8C9393" fill-opacity="0.21"/>
<path d="M274.668 50.777L270.784 38.9551H272.692L275.614 48.058H275.107L277.961 38.9551H279.312L282.167 48.058H281.66L284.582 38.9551H286.49L282.606 50.777H281.255L278.384 41.691H278.89L276.019 50.777H274.668ZM290.545 50.9459C289.735 50.9459 289.003 50.7658 288.35 50.4055C287.708 50.0339 287.196 49.5273 286.813 48.8855C286.441 48.2438 286.256 47.5232 286.256 46.7238C286.256 45.9244 286.441 45.2095 286.813 44.579C287.184 43.9372 287.685 43.4305 288.316 43.059C288.958 42.6874 289.667 42.5017 290.444 42.5017C291.198 42.5017 291.863 42.6762 292.437 43.0252C293.022 43.3742 293.478 43.8527 293.805 44.4607C294.142 45.0687 294.311 45.7611 294.311 46.538C294.311 46.6731 294.3 46.8139 294.278 46.9602C294.266 47.0953 294.244 47.2473 294.21 47.4162H287.556V45.8963H293.247L292.555 46.5042C292.532 46.0088 292.437 45.5923 292.268 45.2545C292.099 44.9167 291.857 44.6578 291.542 44.4776C291.238 44.2975 290.86 44.2074 290.41 44.2074C289.937 44.2074 289.526 44.3087 289.177 44.5114C288.828 44.7141 288.558 45.0012 288.367 45.3727C288.175 45.733 288.079 46.1665 288.079 46.6731C288.079 47.1798 288.181 47.6245 288.383 48.0073C288.586 48.3901 288.873 48.6885 289.245 48.9024C289.616 49.1051 290.044 49.2064 290.528 49.2064C290.945 49.2064 291.328 49.1332 291.677 48.9869C292.037 48.8405 292.341 48.6266 292.589 48.3451L293.771 49.5442C293.377 50.0058 292.898 50.3548 292.335 50.5913C291.772 50.8277 291.176 50.9459 290.545 50.9459ZM300.141 50.9459C299.522 50.9459 298.97 50.8164 298.486 50.5575C298.002 50.2873 297.619 49.9214 297.337 49.4597C297.067 48.9981 296.932 48.4746 296.932 47.8891V45.5585C296.932 44.973 297.073 44.4495 297.354 43.9879C297.636 43.5262 298.019 43.1659 298.503 42.907C298.987 42.6368 299.533 42.5017 300.141 42.5017C300.873 42.5017 301.531 42.6931 302.117 43.0759C302.714 43.4474 303.181 43.9541 303.519 44.5958C303.868 45.2263 304.042 45.9413 304.042 46.7407C304.042 47.5288 303.868 48.2438 303.519 48.8855C303.181 49.516 302.714 50.0171 302.117 50.3886C301.531 50.7602 300.873 50.9459 300.141 50.9459ZM299.837 49.1895C300.287 49.1895 300.681 49.0882 301.019 48.8855C301.368 48.6716 301.638 48.3789 301.83 48.0073C302.032 47.6358 302.134 47.2079 302.134 46.7238C302.134 46.2397 302.032 45.8118 301.83 45.4403C301.638 45.0687 301.368 44.7816 301.019 44.579C300.681 44.365 300.287 44.2581 299.837 44.2581C299.387 44.2581 298.987 44.365 298.638 44.579C298.289 44.7816 298.019 45.0687 297.827 45.4403C297.636 45.8118 297.54 46.2397 297.54 46.7238C297.54 47.2079 297.636 47.6358 297.827 48.0073C298.019 48.3789 298.289 48.6716 298.638 48.8855C298.987 49.0882 299.387 49.1895 299.837 49.1895ZM295.801 50.777V38.6173H297.658V44.6634L297.337 46.6225L297.658 48.5984V50.777H295.801ZM310.211 50.777V39.2928H312.069V50.777H310.211ZM308.269 44.3594V42.6705H314.011V44.3594H308.269ZM315.361 50.777V42.6705H317.219V50.777H315.361ZM317.219 46.2678L316.577 45.9469C316.577 44.9224 316.802 44.0948 317.252 43.4643C317.714 42.8225 318.406 42.5017 319.33 42.5017C319.735 42.5017 320.101 42.5748 320.427 42.7212C320.754 42.8676 321.058 43.104 321.339 43.4305L320.123 44.6803C319.977 44.5227 319.814 44.4101 319.634 44.3425C319.454 44.275 319.245 44.2412 319.009 44.2412C318.491 44.2412 318.063 44.4044 317.725 44.7309C317.388 45.0575 317.219 45.5697 317.219 46.2678ZM325.386 50.9459C324.654 50.9459 323.989 50.7602 323.393 50.3886C322.807 50.0171 322.34 49.516 321.991 48.8855C321.653 48.2438 321.484 47.5288 321.484 46.7407C321.484 45.9413 321.653 45.2263 321.991 44.5958C322.34 43.9541 322.807 43.4474 323.393 43.0759C323.989 42.6931 324.654 42.5017 325.386 42.5017C326.005 42.5017 326.551 42.6368 327.024 42.907C327.508 43.1659 327.891 43.5262 328.172 43.9879C328.454 44.4495 328.594 44.973 328.594 45.5585V47.8891C328.594 48.4746 328.454 48.9981 328.172 49.4597C327.902 49.9214 327.525 50.2873 327.041 50.5575C326.556 50.8164 326.005 50.9459 325.386 50.9459ZM325.69 49.1895C326.376 49.1895 326.928 48.9587 327.345 48.4971C327.772 48.0355 327.986 47.4444 327.986 46.7238C327.986 46.2397 327.891 45.8118 327.699 45.4403C327.508 45.0687 327.238 44.7816 326.889 44.579C326.551 44.365 326.151 44.2581 325.69 44.2581C325.239 44.2581 324.839 44.365 324.49 44.579C324.153 44.7816 323.882 45.0687 323.68 45.4403C323.488 45.8118 323.393 46.2397 323.393 46.7238C323.393 47.2079 323.488 47.6358 323.68 48.0073C323.882 48.3789 324.153 48.6716 324.49 48.8855C324.839 49.0882 325.239 49.1895 325.69 49.1895ZM327.868 50.777V48.5984L328.189 46.6225L327.868 44.6634V42.6705H329.726V50.777H327.868ZM332.902 50.777V41.9781C332.902 41.3251 333.043 40.7509 333.324 40.2555C333.606 39.7488 334 39.3491 334.507 39.0564C335.025 38.7637 335.616 38.6173 336.28 38.6173C336.956 38.6173 337.502 38.7637 337.918 39.0564C338.346 39.3491 338.656 39.7488 338.847 40.2555C339.05 40.7509 339.151 41.3251 339.151 41.9781L337.8 41.9612C337.8 41.4433 337.67 41.038 337.412 40.7453C337.164 40.4525 336.787 40.3062 336.28 40.3062C335.773 40.3062 335.391 40.4525 335.132 40.7453C334.884 41.0267 334.76 41.4152 334.76 41.9106V50.777H332.902ZM330.96 44.3594V42.6705H342.107V44.3594H330.96ZM337.8 50.777V41.6066C337.8 40.9873 337.935 40.4413 338.205 39.9684C338.487 39.4955 338.87 39.124 339.354 38.8537C339.849 38.5835 340.418 38.4484 341.059 38.4484C341.555 38.4484 341.977 38.5329 342.326 38.7017C342.675 38.8706 343.002 39.1127 343.306 39.428L342.107 40.627C341.971 40.4919 341.825 40.385 341.667 40.3062C341.51 40.2273 341.307 40.1879 341.059 40.1879C340.609 40.1879 340.26 40.3118 340.012 40.5595C339.776 40.7959 339.658 41.1393 339.658 41.5897V50.777H337.8ZM343.514 50.777V42.6705H345.372V50.777H343.514ZM344.443 41.1844C344.128 41.1844 343.863 41.0774 343.649 40.8635C343.447 40.6496 343.345 40.385 343.345 40.0697C343.345 39.7545 343.447 39.4899 343.649 39.276C343.863 39.062 344.128 38.9551 344.443 38.9551C344.77 38.9551 345.034 39.062 345.237 39.276C345.44 39.4899 345.541 39.7545 345.541 40.0697C345.541 40.385 345.44 40.6496 345.237 40.8635C345.034 41.0774 344.77 41.1844 344.443 41.1844ZM351.188 50.9459C350.389 50.9459 349.662 50.7602 349.009 50.3886C348.368 50.0171 347.861 49.5104 347.489 48.8686C347.118 48.2269 346.932 47.5119 346.932 46.7238C346.932 45.9244 347.118 45.2095 347.489 44.579C347.861 43.9372 348.368 43.4305 349.009 43.059C349.662 42.6874 350.389 42.5017 351.188 42.5017C351.819 42.5017 352.404 42.6255 352.944 42.8732C353.496 43.1097 353.963 43.4531 354.346 43.9034L353.13 45.1363C352.894 44.8548 352.607 44.6465 352.269 44.5114C351.942 44.365 351.582 44.2918 351.188 44.2918C350.726 44.2918 350.315 44.3988 349.955 44.6127C349.606 44.8154 349.33 45.0969 349.128 45.4572C348.936 45.8174 348.841 46.2397 348.841 46.7238C348.841 47.1967 348.936 47.6189 349.128 47.9904C349.33 48.3507 349.606 48.6378 349.955 48.8517C350.315 49.0544 350.726 49.1557 351.188 49.1557C351.582 49.1557 351.942 49.0882 352.269 48.9531C352.607 48.8067 352.894 48.5928 353.13 48.3113L354.346 49.5442C353.963 49.9945 353.496 50.3436 352.944 50.5913C352.404 50.8277 351.819 50.9459 351.188 50.9459Z" fill="#80937D"/>
<path d="M240.276 665.088C239.542 665.088 238.862 664.957 238.234 664.697C237.617 664.427 237.076 664.055 236.613 663.582C236.15 663.1 235.793 662.545 235.542 661.917C235.291 661.281 235.166 660.6 235.166 659.876C235.166 659.153 235.291 658.477 235.542 657.85C235.793 657.213 236.15 656.658 236.613 656.185C237.076 655.712 237.617 655.341 238.234 655.07C238.862 654.8 239.542 654.665 240.276 654.665C241.096 654.665 241.805 654.8 242.403 655.07C243.002 655.341 243.533 655.707 243.996 656.171L242.867 657.3C242.568 656.972 242.201 656.716 241.767 656.532C241.342 656.349 240.845 656.257 240.276 656.257C239.774 656.257 239.315 656.344 238.9 656.518C238.485 656.692 238.123 656.943 237.815 657.271C237.515 657.589 237.284 657.97 237.12 658.414C236.956 658.858 236.874 659.346 236.874 659.876C236.874 660.407 236.956 660.895 237.12 661.338C237.284 661.782 237.515 662.168 237.815 662.497C238.123 662.815 238.485 663.061 238.9 663.235C239.315 663.408 239.774 663.495 240.276 663.495C240.893 663.495 241.414 663.404 241.839 663.22C242.273 663.027 242.64 662.767 242.939 662.439L244.068 663.568C243.605 664.041 243.06 664.412 242.432 664.682C241.805 664.953 241.086 665.088 240.276 665.088ZM248.323 665.088C247.648 665.088 247.035 664.928 246.485 664.61C245.935 664.282 245.496 663.843 245.168 663.293C244.849 662.743 244.69 662.13 244.69 661.454C244.69 660.779 244.849 660.171 245.168 659.63C245.496 659.09 245.935 658.66 246.485 658.342C247.035 658.014 247.648 657.85 248.323 657.85C249.008 657.85 249.626 658.009 250.176 658.327C250.726 658.646 251.161 659.08 251.479 659.63C251.807 660.171 251.971 660.779 251.971 661.454C251.971 662.13 251.807 662.743 251.479 663.293C251.161 663.843 250.726 664.282 250.176 664.61C249.626 664.928 249.008 665.088 248.323 665.088ZM248.323 663.553C248.719 663.553 249.066 663.466 249.366 663.293C249.674 663.109 249.911 662.858 250.075 662.54C250.249 662.221 250.335 661.86 250.335 661.454C250.335 661.049 250.249 660.692 250.075 660.383C249.901 660.074 249.665 659.833 249.366 659.659C249.066 659.476 248.719 659.384 248.323 659.384C247.937 659.384 247.59 659.476 247.281 659.659C246.982 659.833 246.745 660.074 246.572 660.383C246.408 660.692 246.326 661.049 246.326 661.454C246.326 661.86 246.408 662.221 246.572 662.54C246.745 662.858 246.982 663.109 247.281 663.293C247.59 663.466 247.937 663.553 248.323 663.553ZM253.295 664.943V657.995H254.888V664.943H253.295ZM257.913 664.943V660.803C257.913 660.34 257.768 659.983 257.479 659.732C257.189 659.471 256.832 659.341 256.408 659.341C256.118 659.341 255.858 659.399 255.626 659.514C255.404 659.63 255.226 659.799 255.09 660.021C254.955 660.233 254.888 660.494 254.888 660.803L254.265 660.455C254.265 659.925 254.381 659.466 254.613 659.08C254.844 658.694 255.158 658.395 255.554 658.183C255.949 657.961 256.393 657.85 256.885 657.85C257.378 657.85 257.822 657.956 258.217 658.168C258.613 658.381 258.927 658.68 259.158 659.066C259.39 659.452 259.506 659.915 259.506 660.455V664.943H257.913ZM262.531 664.943V660.803C262.531 660.34 262.386 659.983 262.097 659.732C261.807 659.471 261.45 659.341 261.026 659.341C260.746 659.341 260.49 659.399 260.258 659.514C260.027 659.63 259.843 659.799 259.708 660.021C259.573 660.233 259.506 660.494 259.506 660.803L258.608 660.455C258.656 659.925 258.811 659.466 259.071 659.08C259.332 658.694 259.665 658.395 260.07 658.183C260.485 657.961 260.939 657.85 261.431 657.85C261.933 657.85 262.386 657.956 262.792 658.168C263.197 658.381 263.52 658.68 263.761 659.066C264.003 659.452 264.123 659.915 264.123 660.455V664.943H262.531ZM269.484 665.088C268.953 665.088 268.481 664.977 268.066 664.755C267.651 664.523 267.322 664.209 267.081 663.814C266.85 663.418 266.734 662.969 266.734 662.468V660.47C266.734 659.968 266.854 659.519 267.096 659.124C267.337 658.728 267.665 658.419 268.08 658.197C268.495 657.966 268.963 657.85 269.484 657.85C270.111 657.85 270.676 658.014 271.178 658.342C271.689 658.66 272.09 659.095 272.379 659.645C272.679 660.185 272.828 660.798 272.828 661.483C272.828 662.159 272.679 662.772 272.379 663.322C272.09 663.862 271.689 664.292 271.178 664.61C270.676 664.928 270.111 665.088 269.484 665.088ZM269.224 663.582C269.61 663.582 269.947 663.495 270.237 663.322C270.536 663.138 270.768 662.887 270.932 662.569C271.106 662.25 271.192 661.884 271.192 661.469C271.192 661.054 271.106 660.687 270.932 660.369C270.768 660.05 270.536 659.804 270.237 659.63C269.947 659.447 269.61 659.355 269.224 659.355C268.838 659.355 268.495 659.447 268.196 659.63C267.897 659.804 267.665 660.05 267.501 660.369C267.337 660.687 267.255 661.054 267.255 661.469C267.255 661.884 267.337 662.25 267.501 662.569C267.665 662.887 267.897 663.138 268.196 663.322C268.495 663.495 268.838 663.582 269.224 663.582ZM265.764 667.838L265.764 657.995H267.356V659.862L267.081 661.556L267.356 663.235V667.838H265.764ZM277.013 665.088C276.424 665.088 275.898 664.957 275.435 664.697C274.981 664.436 274.624 664.079 274.364 663.626C274.113 663.162 273.987 662.632 273.987 662.033V657.995H275.58V661.961C275.58 662.299 275.633 662.588 275.739 662.829C275.855 663.061 276.019 663.24 276.231 663.365C276.453 663.491 276.714 663.553 277.013 663.553C277.476 663.553 277.828 663.418 278.07 663.148C278.32 662.868 278.446 662.472 278.446 661.961V657.995H280.038V662.033C280.038 662.641 279.908 663.177 279.647 663.64C279.396 664.094 279.044 664.451 278.591 664.711C278.137 664.962 277.611 665.088 277.013 665.088ZM282.696 664.943V655.099H284.288V664.943H282.696ZM281.031 659.442V657.995H285.953V659.442H281.031ZM290.14 665.088C289.446 665.088 288.818 664.933 288.259 664.624C287.708 664.306 287.269 663.872 286.941 663.322C286.623 662.772 286.463 662.154 286.463 661.469C286.463 660.784 286.623 660.171 286.941 659.63C287.26 659.08 287.689 658.646 288.23 658.327C288.78 658.009 289.388 657.85 290.054 657.85C290.7 657.85 291.269 657.999 291.762 658.299C292.263 658.598 292.654 659.008 292.934 659.529C293.224 660.05 293.368 660.644 293.368 661.309C293.368 661.425 293.359 661.546 293.34 661.671C293.33 661.787 293.311 661.917 293.282 662.062H287.578V660.759H292.457L291.863 661.281C291.844 660.856 291.762 660.499 291.617 660.209C291.472 659.92 291.265 659.698 290.994 659.543C290.734 659.389 290.411 659.312 290.025 659.312C289.619 659.312 289.267 659.399 288.968 659.572C288.669 659.746 288.437 659.992 288.273 660.311C288.109 660.619 288.027 660.991 288.027 661.425C288.027 661.86 288.114 662.241 288.287 662.569C288.461 662.897 288.707 663.153 289.026 663.336C289.344 663.51 289.711 663.597 290.126 663.597C290.483 663.597 290.811 663.534 291.11 663.408C291.419 663.283 291.68 663.1 291.892 662.858L292.905 663.886C292.567 664.282 292.157 664.581 291.675 664.784C291.192 664.986 290.681 665.088 290.14 665.088ZM299.465 665.088C298.732 665.088 298.052 664.957 297.424 664.697C296.807 664.427 296.266 664.055 295.803 663.582C295.34 663.1 294.983 662.545 294.732 661.917C294.481 661.281 294.355 660.6 294.355 659.876C294.355 659.153 294.481 658.477 294.732 657.85C294.983 657.213 295.34 656.658 295.803 656.185C296.266 655.712 296.807 655.341 297.424 655.07C298.052 654.8 298.732 654.665 299.465 654.665C300.286 654.665 300.995 654.8 301.593 655.07C302.192 655.341 302.723 655.707 303.186 656.171L302.057 657.3C301.757 656.972 301.391 656.716 300.956 656.532C300.532 656.349 300.035 656.257 299.465 656.257C298.964 656.257 298.505 656.344 298.09 656.518C297.675 656.692 297.313 656.943 297.005 657.271C296.705 657.589 296.474 657.97 296.31 658.414C296.146 658.858 296.064 659.346 296.064 659.876C296.064 660.407 296.146 660.895 296.31 661.338C296.474 661.782 296.705 662.168 297.005 662.497C297.313 662.815 297.675 663.061 298.09 663.235C298.505 663.408 298.964 663.495 299.465 663.495C300.083 663.495 300.604 663.404 301.029 663.22C301.463 663.027 301.83 662.767 302.129 662.439L303.258 663.568C302.795 664.041 302.25 664.412 301.622 664.682C300.995 664.953 300.276 665.088 299.465 665.088ZM307.238 665.088C306.611 665.088 306.042 664.928 305.53 664.61C305.028 664.292 304.628 663.862 304.329 663.322C304.039 662.772 303.894 662.159 303.894 661.483C303.894 660.798 304.039 660.185 304.329 659.645C304.628 659.095 305.028 658.66 305.53 658.342C306.042 658.014 306.611 657.85 307.238 657.85C307.769 657.85 308.237 657.966 308.642 658.197C309.057 658.419 309.385 658.728 309.627 659.124C309.868 659.519 309.989 659.968 309.989 660.47V662.468C309.989 662.969 309.868 663.418 309.627 663.814C309.395 664.209 309.072 664.523 308.657 664.755C308.242 664.977 307.769 665.088 307.238 665.088ZM307.499 663.582C308.087 663.582 308.56 663.384 308.917 662.989C309.284 662.593 309.467 662.086 309.467 661.469C309.467 661.054 309.385 660.687 309.221 660.369C309.057 660.05 308.826 659.804 308.527 659.63C308.237 659.447 307.894 659.355 307.499 659.355C307.113 659.355 306.77 659.447 306.471 659.63C306.181 659.804 305.95 660.05 305.776 660.369C305.612 660.687 305.53 661.054 305.53 661.469C305.53 661.884 305.612 662.25 305.776 662.569C305.95 662.887 306.181 663.138 306.471 663.322C306.77 663.495 307.113 663.582 307.499 663.582ZM309.366 664.943V663.076L309.641 661.382L309.366 659.703V657.995H310.958V664.943H309.366ZM317.488 664.943V660.933C317.488 660.47 317.339 660.089 317.039 659.79C316.75 659.49 316.374 659.341 315.91 659.341C315.602 659.341 315.327 659.408 315.085 659.543C314.844 659.679 314.656 659.867 314.521 660.108C314.386 660.349 314.318 660.624 314.318 660.933L313.696 660.586C313.696 660.055 313.811 659.587 314.043 659.182C314.275 658.767 314.593 658.443 314.998 658.212C315.413 657.97 315.877 657.85 316.388 657.85C316.909 657.85 317.372 657.985 317.778 658.255C318.183 658.516 318.502 658.858 318.733 659.283C318.965 659.698 319.081 660.132 319.081 660.586V664.943H317.488ZM312.726 664.943V657.995H314.318V664.943H312.726ZM323.608 665.088C322.981 665.088 322.412 664.928 321.9 664.61C321.398 664.292 320.998 663.862 320.699 663.322C320.409 662.772 320.264 662.159 320.264 661.483C320.264 660.798 320.409 660.185 320.699 659.645C320.998 659.095 321.398 658.66 321.9 658.342C322.412 658.014 322.981 657.85 323.608 657.85C324.139 657.85 324.607 657.966 325.013 658.197C325.427 658.419 325.756 658.728 325.997 659.124C326.238 659.519 326.359 659.968 326.359 660.47V662.468C326.359 662.969 326.238 663.418 325.997 663.814C325.765 664.209 325.442 664.523 325.027 664.755C324.612 664.977 324.139 665.088 323.608 665.088ZM323.869 663.582C324.458 663.582 324.93 663.384 325.288 662.989C325.654 662.593 325.838 662.086 325.838 661.469C325.838 661.054 325.756 660.687 325.592 660.369C325.427 660.05 325.196 659.804 324.897 659.63C324.607 659.447 324.265 659.355 323.869 659.355C323.483 659.355 323.14 659.447 322.841 659.63C322.552 659.804 322.32 660.05 322.146 660.369C321.982 660.687 321.9 661.054 321.9 661.469C321.9 661.884 321.982 662.25 322.146 662.569C322.32 662.887 322.552 663.138 322.841 663.322C323.14 663.495 323.483 663.582 323.869 663.582ZM325.736 664.943V663.076L326.011 661.382L325.736 659.703V657.995H327.329V664.943H325.736ZM332.006 665.088C331.378 665.088 330.809 664.928 330.297 664.61C329.796 664.292 329.395 663.862 329.096 663.322C328.806 662.772 328.662 662.159 328.662 661.483C328.662 660.798 328.806 660.185 329.096 659.645C329.395 659.095 329.796 658.66 330.297 658.342C330.809 658.014 331.378 657.85 332.006 657.85C332.536 657.85 333.004 657.966 333.41 658.197C333.825 658.419 334.153 658.728 334.394 659.124C334.635 659.519 334.756 659.968 334.756 660.47V662.468C334.756 662.969 334.635 663.418 334.394 663.814C334.162 664.209 333.839 664.523 333.424 664.755C333.009 664.977 332.536 665.088 332.006 665.088ZM332.266 663.582C332.662 663.582 333.004 663.495 333.294 663.322C333.593 663.138 333.825 662.887 333.989 662.569C334.153 662.25 334.235 661.884 334.235 661.469C334.235 661.054 334.153 660.687 333.989 660.369C333.825 660.05 333.593 659.804 333.294 659.63C333.004 659.447 332.667 659.355 332.281 659.355C331.885 659.355 331.537 659.447 331.238 659.63C330.949 659.804 330.717 660.05 330.543 660.369C330.379 660.687 330.297 661.054 330.297 661.469C330.297 661.884 330.379 662.25 330.543 662.569C330.717 662.887 330.949 663.138 331.238 663.322C331.537 663.495 331.88 663.582 332.266 663.582ZM335.726 664.943H334.133V663.076L334.408 661.382L334.133 659.703V654.52H335.726V664.943ZM340.403 665.088C339.775 665.088 339.206 664.928 338.694 664.61C338.193 664.292 337.792 663.862 337.493 663.322C337.203 662.772 337.059 662.159 337.059 661.483C337.059 660.798 337.203 660.185 337.493 659.645C337.792 659.095 338.193 658.66 338.694 658.342C339.206 658.014 339.775 657.85 340.403 657.85C340.933 657.85 341.401 657.966 341.807 658.197C342.222 658.419 342.55 658.728 342.791 659.124C343.032 659.519 343.153 659.968 343.153 660.47V662.468C343.153 662.969 343.032 663.418 342.791 663.814C342.56 664.209 342.236 664.523 341.821 664.755C341.406 664.977 340.933 665.088 340.403 665.088ZM340.663 663.582C341.252 663.582 341.725 663.384 342.082 662.989C342.449 662.593 342.632 662.086 342.632 661.469C342.632 661.054 342.55 660.687 342.386 660.369C342.222 660.05 341.99 659.804 341.691 659.63C341.401 659.447 341.059 659.355 340.663 659.355C340.277 659.355 339.935 659.447 339.635 659.63C339.346 659.804 339.114 660.05 338.941 660.369C338.777 660.687 338.694 661.054 338.694 661.469C338.694 661.884 338.777 662.25 338.941 662.569C339.114 662.887 339.346 663.138 339.635 663.322C339.935 663.495 340.277 663.582 340.663 663.582ZM342.531 664.943V663.076L342.806 661.382L342.531 659.703V657.995H344.123V664.943H342.531ZM351.828 665.088C351.027 665.088 350.347 664.943 349.787 664.653C349.227 664.364 348.725 663.939 348.281 663.38L349.411 662.25C349.69 662.656 350.023 662.974 350.409 663.206C350.795 663.428 351.288 663.539 351.886 663.539C352.446 663.539 352.89 663.423 353.218 663.191C353.556 662.96 353.724 662.641 353.724 662.236C353.724 661.898 353.638 661.623 353.464 661.411C353.29 661.199 353.059 661.025 352.769 660.89C352.489 660.745 352.175 660.619 351.828 660.513C351.49 660.398 351.148 660.272 350.8 660.137C350.463 659.992 350.149 659.814 349.859 659.601C349.579 659.389 349.353 659.114 349.179 658.776C349.005 658.438 348.918 658.009 348.918 657.488C348.918 656.89 349.063 656.383 349.353 655.968C349.652 655.543 350.052 655.22 350.554 654.998C351.056 654.776 351.616 654.665 352.233 654.665C352.899 654.665 353.493 654.795 354.014 655.056C354.545 655.316 354.974 655.649 355.302 656.055L354.173 657.184C353.884 656.856 353.58 656.614 353.261 656.46C352.952 656.296 352.595 656.214 352.19 656.214C351.688 656.214 351.292 656.315 351.003 656.518C350.723 656.721 350.583 657.005 350.583 657.372C350.583 657.681 350.67 657.932 350.844 658.125C351.017 658.308 351.244 658.467 351.524 658.602C351.814 658.728 352.127 658.849 352.465 658.964C352.812 659.08 353.155 659.21 353.493 659.355C353.84 659.5 354.154 659.688 354.434 659.92C354.723 660.142 354.955 660.431 355.129 660.788C355.302 661.145 355.389 661.594 355.389 662.135C355.389 663.042 355.066 663.761 354.419 664.292C353.782 664.822 352.919 665.088 351.828 665.088ZM359.975 665.088C359.28 665.088 358.653 664.933 358.093 664.624C357.543 664.306 357.104 663.872 356.776 663.322C356.458 662.772 356.298 662.154 356.298 661.469C356.298 660.784 356.458 660.171 356.776 659.63C357.094 659.08 357.524 658.646 358.064 658.327C358.614 658.009 359.222 657.85 359.888 657.85C360.535 657.85 361.104 657.999 361.596 658.299C362.098 658.598 362.489 659.008 362.769 659.529C363.059 660.05 363.203 660.644 363.203 661.309C363.203 661.425 363.194 661.546 363.174 661.671C363.165 661.787 363.145 661.917 363.116 662.062H357.413V660.759H362.291L361.698 661.281C361.678 660.856 361.596 660.499 361.452 660.209C361.307 659.92 361.099 659.698 360.829 659.543C360.569 659.389 360.245 659.312 359.859 659.312C359.454 659.312 359.102 659.399 358.803 659.572C358.503 659.746 358.272 659.992 358.108 660.311C357.944 660.619 357.862 660.991 357.862 661.425C357.862 661.86 357.949 662.241 358.122 662.569C358.296 662.897 358.542 663.153 358.861 663.336C359.179 663.51 359.546 663.597 359.961 663.597C360.318 663.597 360.646 663.534 360.945 663.408C361.254 663.283 361.514 663.1 361.727 662.858L362.74 663.886C362.402 664.282 361.992 664.581 361.51 664.784C361.027 664.986 360.516 665.088 359.975 665.088ZM364.48 664.943V657.995H366.072V664.943H364.48ZM366.072 661.078L365.522 660.803C365.522 659.925 365.715 659.215 366.101 658.675C366.497 658.125 367.09 657.85 367.882 657.85C368.229 657.85 368.543 657.912 368.823 658.038C369.102 658.163 369.363 658.366 369.604 658.646L368.562 659.717C368.436 659.582 368.297 659.486 368.142 659.428C367.988 659.37 367.809 659.341 367.607 659.341C367.163 659.341 366.796 659.481 366.506 659.761C366.217 660.04 366.072 660.48 366.072 661.078ZM372.621 664.943L369.451 657.995H371.217L373.634 663.655H372.592L375.024 657.995H376.718L373.547 664.943H372.621ZM380.657 665.088C379.962 665.088 379.335 664.933 378.775 664.624C378.225 664.306 377.786 663.872 377.458 663.322C377.139 662.772 376.98 662.154 376.98 661.469C376.98 660.784 377.139 660.171 377.458 659.63C377.776 659.08 378.206 658.646 378.746 658.327C379.296 658.009 379.904 657.85 380.57 657.85C381.217 657.85 381.786 657.999 382.278 658.299C382.78 658.598 383.171 659.008 383.451 659.529C383.74 660.05 383.885 660.644 383.885 661.309C383.885 661.425 383.875 661.546 383.856 661.671C383.847 661.787 383.827 661.917 383.798 662.062H378.095V660.759H382.973L382.38 661.281C382.36 660.856 382.278 660.499 382.134 660.209C381.989 659.92 381.781 659.698 381.511 659.543C381.25 659.389 380.927 659.312 380.541 659.312C380.136 659.312 379.784 659.399 379.484 659.572C379.185 659.746 378.954 659.992 378.79 660.311C378.626 660.619 378.544 660.991 378.544 661.425C378.544 661.86 378.63 662.241 378.804 662.569C378.978 662.897 379.224 663.153 379.542 663.336C379.861 663.51 380.228 663.597 380.643 663.597C381 663.597 381.328 663.534 381.627 663.408C381.936 663.283 382.196 663.1 382.409 662.858L383.422 663.886C383.084 664.282 382.674 664.581 382.191 664.784C381.709 664.986 381.197 665.088 380.657 665.088ZM385.162 664.943V657.995H386.754V664.943H385.162ZM386.754 661.078L386.204 660.803C386.204 659.925 386.397 659.215 386.783 658.675C387.179 658.125 387.772 657.85 388.563 657.85C388.911 657.85 389.224 657.912 389.504 658.038C389.784 658.163 390.045 658.366 390.286 658.646L389.244 659.717C389.118 659.582 388.978 659.486 388.824 659.428C388.67 659.37 388.491 659.341 388.288 659.341C387.844 659.341 387.478 659.481 387.188 659.761C386.899 660.04 386.754 660.48 386.754 661.078Z" fill="#80937D"/>
<rect x="101.393" y="447.833" width="180.948" height="180.948" rx="53.0782" fill="#F9F9F9"/>
<path d="M150.455 546.048C149.253 546.048 148.233 545.831 147.393 545.397C146.553 544.962 145.801 544.325 145.135 543.486L146.828 541.792C147.248 542.4 147.748 542.878 148.327 543.225C148.906 543.558 149.644 543.725 150.541 543.725C151.381 543.725 152.047 543.551 152.539 543.204C153.046 542.856 153.299 542.378 153.299 541.771C153.299 541.264 153.169 540.851 152.908 540.533C152.648 540.214 152.3 539.954 151.866 539.751C151.446 539.534 150.976 539.346 150.455 539.187C149.948 539.013 149.434 538.825 148.913 538.622C148.406 538.405 147.936 538.137 147.502 537.819C147.082 537.5 146.742 537.088 146.481 536.581C146.22 536.074 146.09 535.43 146.09 534.648C146.09 533.751 146.307 532.991 146.742 532.368C147.19 531.731 147.791 531.247 148.544 530.914C149.297 530.581 150.136 530.414 151.063 530.414C152.061 530.414 152.952 530.61 153.733 531C154.53 531.391 155.174 531.891 155.666 532.499L153.972 534.192C153.538 533.7 153.082 533.338 152.604 533.107C152.141 532.861 151.605 532.738 150.997 532.738C150.245 532.738 149.651 532.89 149.217 533.194C148.797 533.498 148.587 533.925 148.587 534.475C148.587 534.938 148.718 535.314 148.978 535.604C149.239 535.879 149.579 536.118 149.999 536.32C150.433 536.509 150.903 536.689 151.41 536.863C151.931 537.037 152.445 537.232 152.952 537.449C153.473 537.667 153.943 537.949 154.363 538.296C154.797 538.629 155.145 539.064 155.405 539.599C155.666 540.135 155.796 540.808 155.796 541.619C155.796 542.979 155.311 544.058 154.341 544.854C153.386 545.65 152.09 546.048 150.455 546.048ZM162.238 546.048C161.355 546.048 160.566 545.853 159.871 545.462C159.191 545.071 158.655 544.535 158.264 543.855C157.888 543.16 157.7 542.364 157.7 541.467V535.408H160.088V541.358C160.088 541.865 160.168 542.299 160.327 542.661C160.501 543.008 160.747 543.276 161.065 543.464C161.398 543.652 161.789 543.746 162.238 543.746C162.933 543.746 163.461 543.544 163.823 543.138C164.199 542.719 164.388 542.125 164.388 541.358V535.408H166.776V541.467C166.776 542.378 166.581 543.182 166.19 543.877C165.813 544.557 165.285 545.093 164.605 545.484C163.924 545.86 163.135 546.048 162.238 546.048ZM174.758 546.048C173.962 546.048 173.253 545.882 172.63 545.549C172.008 545.201 171.516 544.731 171.154 544.137C170.806 543.544 170.633 542.871 170.633 542.118V539.121C170.633 538.369 170.813 537.696 171.175 537.102C171.537 536.509 172.029 536.045 172.652 535.712C173.274 535.365 173.976 535.191 174.758 535.191C175.699 535.191 176.546 535.437 177.299 535.929C178.066 536.407 178.667 537.059 179.101 537.884C179.55 538.694 179.774 539.614 179.774 540.641C179.774 541.655 179.55 542.574 179.101 543.399C178.667 544.21 178.066 544.854 177.299 545.332C176.546 545.809 175.699 546.048 174.758 546.048ZM174.367 543.79C174.946 543.79 175.453 543.66 175.887 543.399C176.336 543.124 176.683 542.748 176.93 542.27C177.19 541.792 177.32 541.242 177.32 540.62C177.32 539.997 177.19 539.447 176.93 538.969C176.683 538.492 176.336 538.123 175.887 537.862C175.453 537.587 174.946 537.449 174.367 537.449C173.788 537.449 173.274 537.587 172.826 537.862C172.377 538.123 172.029 538.492 171.783 538.969C171.537 539.447 171.414 539.997 171.414 540.62C171.414 541.242 171.537 541.792 171.783 542.27C172.029 542.748 172.377 543.124 172.826 543.399C173.274 543.66 173.788 543.79 174.367 543.79ZM169.178 550.174V535.408H171.566V538.209L171.154 540.75L171.566 543.269V550.174H169.178ZM186.138 546.048C185.197 546.048 184.343 545.809 183.576 545.332C182.823 544.854 182.222 544.21 181.773 543.399C181.339 542.574 181.122 541.655 181.122 540.641C181.122 539.614 181.339 538.694 181.773 537.884C182.222 537.059 182.823 536.407 183.576 535.929C184.343 535.437 185.197 535.191 186.138 535.191C186.934 535.191 187.636 535.365 188.244 535.712C188.867 536.045 189.359 536.509 189.721 537.102C190.083 537.696 190.264 538.369 190.264 539.121V542.118C190.264 542.871 190.083 543.544 189.721 544.137C189.373 544.731 188.888 545.201 188.266 545.549C187.643 545.882 186.934 546.048 186.138 546.048ZM186.529 543.79C187.412 543.79 188.121 543.493 188.657 542.9C189.207 542.306 189.482 541.546 189.482 540.62C189.482 539.997 189.359 539.447 189.113 538.969C188.867 538.492 188.519 538.123 188.07 537.862C187.636 537.587 187.122 537.449 186.529 537.449C185.95 537.449 185.436 537.587 184.987 537.862C184.553 538.123 184.205 538.492 183.945 538.969C183.699 539.447 183.576 539.997 183.576 540.62C183.576 541.242 183.699 541.792 183.945 542.27C184.205 542.748 184.553 543.124 184.987 543.399C185.436 543.66 185.95 543.79 186.529 543.79ZM189.33 545.831V543.03L189.742 540.489L189.33 537.971V535.408H191.718V545.831H189.33ZM199.95 546.048C199.153 546.048 198.444 545.882 197.822 545.549C197.199 545.201 196.707 544.731 196.345 544.137C195.998 543.544 195.824 542.871 195.824 542.118V539.121C195.824 538.369 196.005 537.696 196.367 537.102C196.729 536.509 197.221 536.045 197.843 535.712C198.466 535.365 199.168 535.191 199.95 535.191C200.891 535.191 201.737 535.437 202.49 535.929C203.257 536.407 203.858 537.059 204.292 537.884C204.741 538.694 204.965 539.614 204.965 540.641C204.965 541.655 204.741 542.574 204.292 543.399C203.858 544.21 203.257 544.854 202.49 545.332C201.737 545.809 200.891 546.048 199.95 546.048ZM199.559 543.79C200.138 543.79 200.644 543.66 201.079 543.399C201.527 543.124 201.875 542.748 202.121 542.27C202.382 541.792 202.512 541.242 202.512 540.62C202.512 539.997 202.382 539.447 202.121 538.969C201.875 538.492 201.527 538.123 201.079 537.862C200.644 537.587 200.138 537.449 199.559 537.449C198.98 537.449 198.466 537.587 198.017 537.862C197.568 538.123 197.221 538.492 196.975 538.969C196.729 539.447 196.606 539.997 196.606 540.62C196.606 541.242 196.729 541.792 196.975 542.27C197.221 542.748 197.568 543.124 198.017 543.399C198.466 543.66 198.98 543.79 199.559 543.79ZM194.369 545.831V530.197H196.758V537.971L196.345 540.489L196.758 543.03V545.831H194.369ZM211.329 546.048C210.388 546.048 209.534 545.809 208.767 545.332C208.014 544.854 207.414 544.21 206.965 543.399C206.531 542.574 206.313 541.655 206.313 540.641C206.313 539.614 206.531 538.694 206.965 537.884C207.414 537.059 208.014 536.407 208.767 535.929C209.534 535.437 210.388 535.191 211.329 535.191C212.125 535.191 212.828 535.365 213.436 535.712C214.058 536.045 214.55 536.509 214.912 537.102C215.274 537.696 215.455 538.369 215.455 539.121V542.118C215.455 542.871 215.274 543.544 214.912 544.137C214.565 544.731 214.08 545.201 213.457 545.549C212.835 545.882 212.125 546.048 211.329 546.048ZM211.72 543.79C212.603 543.79 213.312 543.493 213.848 542.9C214.398 542.306 214.673 541.546 214.673 540.62C214.673 539.997 214.55 539.447 214.304 538.969C214.058 538.492 213.711 538.123 213.262 537.862C212.828 537.587 212.314 537.449 211.72 537.449C211.141 537.449 210.627 537.587 210.178 537.862C209.744 538.123 209.397 538.492 209.136 538.969C208.89 539.447 208.767 539.997 208.767 540.62C208.767 541.242 208.89 541.792 209.136 542.27C209.397 542.748 209.744 543.124 210.178 543.399C210.627 543.66 211.141 543.79 211.72 543.79ZM214.521 545.831V543.03L214.934 540.489L214.521 537.971V535.408H216.91V545.831H214.521ZM222.97 546.048C222.391 546.048 221.833 545.976 221.298 545.831C220.762 545.672 220.27 545.455 219.821 545.18C219.372 544.89 218.981 544.543 218.649 544.137L220.169 542.617C220.53 543.037 220.943 543.356 221.406 543.573C221.884 543.775 222.42 543.877 223.013 543.877C223.549 543.877 223.954 543.797 224.229 543.638C224.504 543.479 224.642 543.247 224.642 542.943C224.642 542.625 224.511 542.378 224.251 542.205C223.99 542.031 223.65 541.886 223.23 541.771C222.825 541.64 222.391 541.51 221.927 541.38C221.479 541.249 221.044 541.076 220.625 540.859C220.219 540.627 219.886 540.316 219.626 539.925C219.365 539.534 219.235 539.027 219.235 538.405C219.235 537.739 219.387 537.167 219.691 536.689C220.009 536.212 220.451 535.843 221.015 535.582C221.594 535.322 222.282 535.191 223.078 535.191C223.918 535.191 224.656 535.343 225.293 535.647C225.944 535.937 226.487 536.378 226.922 536.972L225.402 538.492C225.098 538.115 224.75 537.833 224.359 537.645C223.968 537.457 223.52 537.363 223.013 537.363C222.535 537.363 222.166 537.435 221.906 537.58C221.645 537.724 221.515 537.934 221.515 538.209C221.515 538.499 221.645 538.723 221.906 538.883C222.166 539.042 222.499 539.179 222.904 539.295C223.324 539.411 223.759 539.541 224.207 539.686C224.671 539.816 225.105 540.004 225.51 540.251C225.93 540.482 226.27 540.801 226.531 541.206C226.791 541.597 226.922 542.111 226.922 542.748C226.922 543.761 226.567 544.564 225.858 545.158C225.148 545.751 224.186 546.048 222.97 546.048ZM233.733 546.048C232.691 546.048 231.75 545.817 230.91 545.353C230.085 544.876 229.426 544.224 228.934 543.399C228.456 542.574 228.218 541.647 228.218 540.62C228.218 539.592 228.456 538.673 228.934 537.862C229.412 537.037 230.056 536.385 230.867 535.908C231.692 535.43 232.604 535.191 233.603 535.191C234.572 535.191 235.427 535.416 236.165 535.864C236.918 536.313 237.504 536.928 237.924 537.71C238.358 538.492 238.575 539.382 238.575 540.381C238.575 540.555 238.561 540.735 238.532 540.924C238.517 541.097 238.488 541.293 238.445 541.51H229.89V539.556H237.207L236.317 540.337C236.288 539.7 236.165 539.165 235.948 538.731C235.731 538.296 235.419 537.963 235.014 537.732C234.623 537.5 234.138 537.384 233.559 537.384C232.951 537.384 232.423 537.515 231.974 537.775C231.525 538.036 231.178 538.405 230.932 538.883C230.686 539.346 230.563 539.903 230.563 540.555C230.563 541.206 230.693 541.778 230.954 542.27C231.214 542.762 231.583 543.146 232.061 543.421C232.539 543.681 233.089 543.812 233.711 543.812C234.247 543.812 234.739 543.718 235.188 543.529C235.651 543.341 236.042 543.066 236.36 542.704L237.88 544.246C237.374 544.839 236.758 545.288 236.035 545.592C235.311 545.896 234.544 546.048 233.733 546.048Z" fill="#393131"/>
<path d="M160.412 463.821L159.428 465.659L158.892 465.804C158.95 465.688 159.017 465.592 159.095 465.514C159.182 465.437 159.273 465.399 159.37 465.399C159.592 465.399 159.794 465.495 159.978 465.688C160.171 465.871 160.267 466.108 160.267 466.397C160.267 466.697 160.161 466.957 159.949 467.179C159.736 467.401 159.481 467.512 159.182 467.512C158.892 467.512 158.636 467.406 158.414 467.194C158.202 466.972 158.096 466.706 158.096 466.397C158.096 466.272 158.12 466.127 158.168 465.963C158.226 465.789 158.323 465.572 158.458 465.312L159.529 463.343L160.412 463.821ZM163.365 463.821L162.381 465.659L161.845 465.804C161.903 465.688 161.971 465.592 162.048 465.514C162.135 465.437 162.226 465.399 162.323 465.399C162.545 465.399 162.747 465.495 162.931 465.688C163.124 465.871 163.22 466.108 163.22 466.397C163.22 466.697 163.114 466.957 162.902 467.179C162.69 467.401 162.434 467.512 162.135 467.512C161.845 467.512 161.589 467.406 161.367 467.194C161.155 466.972 161.049 466.706 161.049 466.397C161.049 466.272 161.073 466.127 161.121 465.963C161.179 465.789 161.276 465.572 161.411 465.312L162.482 463.343L163.365 463.821ZM166.305 473.896V472.448H169.214C169.726 472.448 170.122 472.289 170.401 471.971C170.681 471.652 170.821 471.285 170.821 470.87C170.821 470.591 170.759 470.33 170.633 470.089C170.508 469.847 170.324 469.654 170.083 469.51C169.842 469.365 169.552 469.293 169.214 469.293H166.305V467.845H168.968C169.403 467.845 169.75 467.734 170.011 467.512C170.271 467.29 170.401 466.962 170.401 466.528C170.401 466.093 170.271 465.765 170.011 465.543C169.75 465.321 169.403 465.21 168.968 465.21H166.305V463.763H169.012C169.697 463.763 170.266 463.888 170.72 464.139C171.174 464.39 171.511 464.713 171.733 465.109C171.955 465.505 172.066 465.929 172.066 466.383C172.066 466.914 171.917 467.382 171.617 467.787C171.328 468.192 170.898 468.521 170.329 468.771L170.459 468.25C171.096 468.511 171.593 468.878 171.95 469.35C172.307 469.823 172.486 470.378 172.486 471.015C172.486 471.536 172.356 472.014 172.095 472.448C171.844 472.883 171.468 473.235 170.966 473.505C170.474 473.766 169.866 473.896 169.142 473.896H166.305ZM165.161 473.896V463.763H166.826V473.896H165.161ZM176.859 474.041C176.231 474.041 175.662 473.881 175.151 473.563C174.649 473.244 174.248 472.815 173.949 472.275C173.66 471.724 173.515 471.112 173.515 470.436C173.515 469.751 173.66 469.138 173.949 468.598C174.248 468.048 174.649 467.613 175.151 467.295C175.662 466.967 176.231 466.803 176.859 466.803C177.39 466.803 177.858 466.919 178.263 467.15C178.678 467.372 179.006 467.681 179.247 468.077C179.489 468.472 179.609 468.921 179.609 469.423V471.421C179.609 471.922 179.489 472.371 179.247 472.767C179.016 473.162 178.692 473.476 178.277 473.708C177.862 473.93 177.39 474.041 176.859 474.041ZM177.119 472.535C177.708 472.535 178.181 472.337 178.538 471.942C178.905 471.546 179.088 471.039 179.088 470.422C179.088 470.007 179.006 469.64 178.842 469.322C178.678 469.003 178.446 468.757 178.147 468.583C177.858 468.4 177.515 468.308 177.119 468.308C176.733 468.308 176.391 468.4 176.092 468.583C175.802 468.757 175.57 469.003 175.397 469.322C175.233 469.64 175.151 470.007 175.151 470.422C175.151 470.837 175.233 471.203 175.397 471.522C175.57 471.84 175.802 472.091 176.092 472.275C176.391 472.448 176.733 472.535 177.119 472.535ZM178.987 473.896V472.028L179.262 470.335L178.987 468.656V466.947H180.579V473.896H178.987ZM185.545 474.041C184.86 474.041 184.238 473.881 183.678 473.563C183.128 473.244 182.694 472.81 182.375 472.26C182.057 471.71 181.897 471.097 181.897 470.422C181.897 469.736 182.057 469.124 182.375 468.583C182.694 468.033 183.128 467.599 183.678 467.28C184.238 466.962 184.86 466.803 185.545 466.803C186.086 466.803 186.588 466.909 187.051 467.121C187.524 467.324 187.924 467.618 188.252 468.004L187.21 469.061C187.007 468.82 186.761 468.641 186.472 468.525C186.192 468.4 185.883 468.337 185.545 468.337C185.15 468.337 184.797 468.429 184.489 468.612C184.189 468.786 183.953 469.027 183.779 469.336C183.615 469.645 183.533 470.007 183.533 470.422C183.533 470.827 183.615 471.189 183.779 471.507C183.953 471.816 184.189 472.062 184.489 472.246C184.797 472.419 185.15 472.506 185.545 472.506C185.883 472.506 186.192 472.448 186.472 472.332C186.761 472.207 187.007 472.024 187.21 471.782L188.252 472.839C187.924 473.225 187.524 473.524 187.051 473.737C186.588 473.939 186.086 474.041 185.545 474.041ZM193.816 473.896L190.877 470.349L193.801 466.947H195.697L192.339 470.769L192.411 469.857L195.842 473.896H193.816ZM189.4 473.896V463.473H190.993V473.896H189.4ZM199.669 474.041C198.974 474.041 198.346 473.886 197.787 473.577C197.237 473.259 196.797 472.825 196.469 472.275C196.151 471.724 195.992 471.107 195.992 470.422C195.992 469.736 196.151 469.124 196.469 468.583C196.788 468.033 197.217 467.599 197.758 467.28C198.308 466.962 198.916 466.803 199.582 466.803C200.228 466.803 200.798 466.952 201.29 467.251C201.792 467.551 202.182 467.961 202.462 468.482C202.752 469.003 202.897 469.597 202.897 470.262C202.897 470.378 202.887 470.499 202.868 470.624C202.858 470.74 202.839 470.87 202.81 471.015H197.106V469.712H201.985L201.391 470.233C201.372 469.809 201.29 469.452 201.145 469.162C201 468.873 200.793 468.651 200.523 468.496C200.262 468.342 199.939 468.265 199.553 468.265C199.147 468.265 198.795 468.352 198.496 468.525C198.197 468.699 197.965 468.945 197.801 469.264C197.637 469.572 197.555 469.944 197.555 470.378C197.555 470.813 197.642 471.194 197.816 471.522C197.989 471.85 198.235 472.106 198.554 472.289C198.872 472.463 199.239 472.55 199.654 472.55C200.011 472.55 200.339 472.487 200.638 472.361C200.947 472.236 201.208 472.053 201.42 471.811L202.433 472.839C202.096 473.235 201.685 473.534 201.203 473.737C200.72 473.939 200.209 474.041 199.669 474.041ZM208.936 473.896V469.886C208.936 469.423 208.786 469.042 208.487 468.742C208.197 468.443 207.821 468.294 207.358 468.294C207.049 468.294 206.774 468.361 206.533 468.496C206.291 468.631 206.103 468.82 205.968 469.061C205.833 469.302 205.765 469.577 205.765 469.886L205.143 469.539C205.143 469.008 205.259 468.54 205.49 468.134C205.722 467.72 206.041 467.396 206.446 467.165C206.861 466.923 207.324 466.803 207.836 466.803C208.357 466.803 208.82 466.938 209.225 467.208C209.631 467.469 209.949 467.811 210.181 468.236C210.412 468.651 210.528 469.085 210.528 469.539V473.896H208.936ZM204.173 473.896V466.947H205.765V473.896H204.173ZM215.056 474.041C214.429 474.041 213.859 473.881 213.348 473.563C212.846 473.244 212.445 472.815 212.146 472.275C211.857 471.724 211.712 471.112 211.712 470.436C211.712 469.751 211.857 469.138 212.146 468.598C212.445 468.048 212.846 467.613 213.348 467.295C213.859 466.967 214.429 466.803 215.056 466.803C215.587 466.803 216.055 466.919 216.46 467.15C216.875 467.372 217.203 467.681 217.444 468.077C217.686 468.472 217.806 468.921 217.806 469.423V471.421C217.806 471.922 217.686 472.371 217.444 472.767C217.213 473.162 216.889 473.476 216.474 473.708C216.059 473.93 215.587 474.041 215.056 474.041ZM215.316 472.535C215.712 472.535 216.055 472.448 216.344 472.275C216.643 472.091 216.875 471.84 217.039 471.522C217.203 471.203 217.285 470.837 217.285 470.422C217.285 470.007 217.203 469.64 217.039 469.322C216.875 469.003 216.643 468.757 216.344 468.583C216.055 468.4 215.717 468.308 215.331 468.308C214.935 468.308 214.588 468.4 214.289 468.583C213.999 468.757 213.767 469.003 213.594 469.322C213.43 469.64 213.348 470.007 213.348 470.422C213.348 470.837 213.43 471.203 213.594 471.522C213.767 471.84 213.999 472.091 214.289 472.275C214.588 472.448 214.93 472.535 215.316 472.535ZM218.776 473.896H217.184V472.028L217.459 470.335L217.184 468.656V463.473H218.776V473.896ZM223.323 467.309L224.307 465.471L224.843 465.326C224.785 465.442 224.717 465.538 224.64 465.616C224.563 465.693 224.471 465.731 224.365 465.731C224.143 465.731 223.935 465.64 223.742 465.456C223.559 465.263 223.467 465.022 223.467 464.733C223.467 464.424 223.574 464.163 223.786 463.951C223.998 463.729 224.254 463.618 224.553 463.618C224.843 463.618 225.094 463.729 225.306 463.951C225.528 464.163 225.639 464.424 225.639 464.733C225.639 464.858 225.61 465.008 225.552 465.181C225.504 465.345 225.412 465.558 225.277 465.818L224.206 467.787L223.323 467.309ZM220.37 467.309L221.354 465.471L221.89 465.326C221.832 465.442 221.764 465.538 221.687 465.616C221.61 465.693 221.518 465.731 221.412 465.731C221.19 465.731 220.982 465.64 220.789 465.456C220.606 465.263 220.514 465.022 220.514 464.733C220.514 464.424 220.62 464.163 220.833 463.951C221.045 463.729 221.301 463.618 221.6 463.618C221.89 463.618 222.14 463.729 222.353 463.951C222.575 464.163 222.686 464.424 222.686 464.733C222.686 464.858 222.657 465.008 222.599 465.181C222.551 465.345 222.459 465.558 222.324 465.818L221.253 467.787L220.37 467.309ZM165.012 492.041C164.327 492.041 163.704 491.881 163.145 491.563C162.595 491.244 162.16 490.81 161.842 490.26C161.523 489.71 161.364 489.097 161.364 488.422C161.364 487.736 161.523 487.124 161.842 486.583C162.16 486.033 162.595 485.599 163.145 485.28C163.704 484.962 164.327 484.803 165.012 484.803C165.552 484.803 166.054 484.909 166.517 485.121C166.99 485.324 167.391 485.618 167.719 486.004L166.677 487.061C166.474 486.82 166.228 486.641 165.938 486.525C165.659 486.4 165.35 486.337 165.012 486.337C164.616 486.337 164.264 486.429 163.955 486.612C163.656 486.786 163.42 487.027 163.246 487.336C163.082 487.645 163 488.007 163 488.422C163 488.827 163.082 489.189 163.246 489.507C163.42 489.816 163.656 490.062 163.955 490.246C164.264 490.419 164.616 490.506 165.012 490.506C165.35 490.506 165.659 490.448 165.938 490.332C166.228 490.207 166.474 490.024 166.677 489.782L167.719 490.839C167.391 491.225 166.99 491.524 166.517 491.737C166.054 491.939 165.552 492.041 165.012 492.041ZM171.91 492.041C171.235 492.041 170.622 491.881 170.072 491.563C169.522 491.235 169.083 490.796 168.755 490.246C168.436 489.696 168.277 489.083 168.277 488.407C168.277 487.732 168.436 487.124 168.755 486.583C169.083 486.043 169.522 485.613 170.072 485.295C170.622 484.967 171.235 484.803 171.91 484.803C172.595 484.803 173.213 484.962 173.763 485.28C174.313 485.599 174.748 486.033 175.066 486.583C175.394 487.124 175.558 487.732 175.558 488.407C175.558 489.083 175.394 489.696 175.066 490.246C174.748 490.796 174.313 491.235 173.763 491.563C173.213 491.881 172.595 492.041 171.91 492.041ZM171.91 490.506C172.306 490.506 172.653 490.419 172.953 490.246C173.261 490.062 173.498 489.811 173.662 489.493C173.836 489.174 173.922 488.813 173.922 488.407C173.922 488.002 173.836 487.645 173.662 487.336C173.488 487.027 173.252 486.786 172.953 486.612C172.653 486.429 172.306 486.337 171.91 486.337C171.524 486.337 171.177 486.429 170.868 486.612C170.569 486.786 170.332 487.027 170.159 487.336C169.995 487.645 169.913 488.002 169.913 488.407C169.913 488.813 169.995 489.174 170.159 489.493C170.332 489.811 170.569 490.062 170.868 490.246C171.177 490.419 171.524 490.506 171.91 490.506ZM181.645 491.896V487.886C181.645 487.423 181.495 487.042 181.196 486.742C180.907 486.443 180.53 486.294 180.067 486.294C179.758 486.294 179.483 486.361 179.242 486.496C179.001 486.631 178.813 486.82 178.677 487.061C178.542 487.302 178.475 487.577 178.475 487.886L177.852 487.539C177.852 487.008 177.968 486.54 178.2 486.134C178.431 485.72 178.75 485.396 179.155 485.165C179.57 484.923 180.033 484.803 180.545 484.803C181.066 484.803 181.529 484.938 181.934 485.208C182.34 485.469 182.658 485.811 182.89 486.236C183.122 486.651 183.237 487.085 183.237 487.539V491.896H181.645ZM176.882 491.896V484.947H178.475V491.896H176.882ZM185.827 491.896V482.052H187.42V491.896H185.827ZM184.163 486.395V484.947H189.084V486.395H184.163ZM192.953 492.041C192.326 492.041 191.757 491.881 191.245 491.563C190.743 491.244 190.343 490.815 190.044 490.275C189.754 489.724 189.609 489.112 189.609 488.436C189.609 487.751 189.754 487.138 190.044 486.598C190.343 486.048 190.743 485.613 191.245 485.295C191.757 484.967 192.326 484.803 192.953 484.803C193.484 484.803 193.952 484.919 194.357 485.15C194.772 485.372 195.1 485.681 195.342 486.077C195.583 486.472 195.704 486.921 195.704 487.423V489.421C195.704 489.922 195.583 490.371 195.342 490.767C195.11 491.162 194.787 491.476 194.372 491.708C193.957 491.93 193.484 492.041 192.953 492.041ZM193.214 490.535C193.802 490.535 194.275 490.337 194.632 489.942C194.999 489.546 195.183 489.039 195.183 488.422C195.183 488.007 195.1 487.64 194.936 487.322C194.772 487.003 194.541 486.757 194.242 486.583C193.952 486.4 193.609 486.308 193.214 486.308C192.828 486.308 192.485 486.4 192.186 486.583C191.897 486.757 191.665 487.003 191.491 487.322C191.327 487.64 191.245 488.007 191.245 488.422C191.245 488.837 191.327 489.203 191.491 489.522C191.665 489.84 191.897 490.091 192.186 490.275C192.485 490.448 192.828 490.535 193.214 490.535ZM195.081 491.896V490.028L195.356 488.335L195.081 486.656V484.947H196.674V491.896H195.081ZM198.455 491.896V484.947H200.048V491.896H198.455ZM199.251 483.674C198.981 483.674 198.754 483.582 198.571 483.399C198.397 483.215 198.31 482.988 198.31 482.718C198.31 482.448 198.397 482.221 198.571 482.038C198.754 481.854 198.981 481.763 199.251 481.763C199.531 481.763 199.758 481.854 199.932 482.038C200.105 482.221 200.192 482.448 200.192 482.718C200.192 482.988 200.105 483.215 199.932 483.399C199.758 483.582 199.531 483.674 199.251 483.674ZM206.596 491.896V487.886C206.596 487.423 206.446 487.042 206.147 486.742C205.858 486.443 205.481 486.294 205.018 486.294C204.709 486.294 204.434 486.361 204.193 486.496C203.952 486.631 203.764 486.82 203.629 487.061C203.493 487.302 203.426 487.577 203.426 487.886L202.803 487.539C202.803 487.008 202.919 486.54 203.151 486.134C203.382 485.72 203.701 485.396 204.106 485.165C204.521 484.923 204.984 484.803 205.496 484.803C206.017 484.803 206.48 484.938 206.886 485.208C207.291 485.469 207.609 485.811 207.841 486.236C208.073 486.651 208.188 487.085 208.188 487.539V491.896H206.596ZM201.834 491.896V484.947H203.426V491.896H201.834ZM213.035 492.041C212.34 492.041 211.713 491.886 211.153 491.577C210.603 491.259 210.164 490.825 209.835 490.275C209.517 489.724 209.358 489.107 209.358 488.422C209.358 487.736 209.517 487.124 209.835 486.583C210.154 486.033 210.583 485.599 211.124 485.28C211.674 484.962 212.282 484.803 212.948 484.803C213.594 484.803 214.164 484.952 214.656 485.251C215.158 485.551 215.549 485.961 215.829 486.482C216.118 487.003 216.263 487.597 216.263 488.262C216.263 488.378 216.253 488.499 216.234 488.624C216.224 488.74 216.205 488.87 216.176 489.015H210.472V487.712H215.351L214.757 488.233C214.738 487.809 214.656 487.452 214.511 487.162C214.366 486.873 214.159 486.651 213.889 486.496C213.628 486.342 213.305 486.265 212.919 486.265C212.514 486.265 212.161 486.352 211.862 486.525C211.563 486.699 211.331 486.945 211.167 487.264C211.003 487.572 210.921 487.944 210.921 488.378C210.921 488.813 211.008 489.194 211.182 489.522C211.355 489.85 211.602 490.106 211.92 490.289C212.238 490.463 212.605 490.55 213.02 490.55C213.377 490.55 213.705 490.487 214.005 490.361C214.313 490.236 214.574 490.053 214.786 489.811L215.8 490.839C215.462 491.235 215.052 491.534 214.569 491.737C214.087 491.939 213.575 492.041 213.035 492.041ZM217.539 491.896V484.947H219.132V491.896H217.539ZM219.132 488.031L218.582 487.756C218.582 486.878 218.775 486.168 219.161 485.628C219.556 485.078 220.15 484.803 220.941 484.803C221.289 484.803 221.602 484.865 221.882 484.991C222.162 485.116 222.422 485.319 222.664 485.599L221.621 486.67C221.496 486.535 221.356 486.438 221.202 486.381C221.047 486.323 220.869 486.294 220.666 486.294C220.222 486.294 219.855 486.434 219.566 486.714C219.276 486.993 219.132 487.432 219.132 488.031Z" fill="#80937D"/>
<rect x="342.658" y="447.833" width="180.948" height="180.948" rx="53.0782" fill="#F9F9F9"/>
<path d="M395.759 546.048C394.557 546.048 393.537 545.831 392.697 545.397C391.857 544.962 391.105 544.325 390.439 543.486L392.133 541.792C392.552 542.4 393.052 542.878 393.631 543.225C394.21 543.558 394.948 543.725 395.846 543.725C396.685 543.725 397.351 543.551 397.843 543.204C398.35 542.856 398.603 542.378 398.603 541.771C398.603 541.264 398.473 540.851 398.212 540.533C397.952 540.214 397.604 539.954 397.17 539.751C396.75 539.534 396.28 539.346 395.759 539.187C395.252 539.013 394.738 538.825 394.217 538.622C393.71 538.405 393.24 538.137 392.806 537.819C392.386 537.5 392.046 537.088 391.785 536.581C391.525 536.074 391.394 535.43 391.394 534.648C391.394 533.751 391.611 532.991 392.046 532.368C392.494 531.731 393.095 531.247 393.848 530.914C394.601 530.581 395.44 530.414 396.367 530.414C397.366 530.414 398.256 530.61 399.038 531C399.834 531.391 400.478 531.891 400.97 532.499L399.276 534.192C398.842 533.7 398.386 533.338 397.908 533.107C397.445 532.861 396.91 532.738 396.302 532.738C395.549 532.738 394.955 532.89 394.521 533.194C394.101 533.498 393.891 533.925 393.891 534.475C393.891 534.938 394.022 535.314 394.282 535.604C394.543 535.879 394.883 536.118 395.303 536.32C395.737 536.509 396.207 536.689 396.714 536.863C397.235 537.037 397.749 537.232 398.256 537.449C398.777 537.667 399.247 537.949 399.667 538.296C400.101 538.629 400.449 539.064 400.709 539.599C400.97 540.135 401.1 540.808 401.1 541.619C401.1 542.979 400.615 544.058 399.646 544.854C398.69 545.65 397.395 546.048 395.759 546.048ZM406.464 545.831L401.709 535.408H404.358L407.984 543.898H406.421L410.068 535.408H412.609L407.854 545.831H406.464ZM418.518 546.048C417.476 546.048 416.535 545.817 415.695 545.353C414.87 544.876 414.212 544.224 413.719 543.399C413.242 542.574 413.003 541.647 413.003 540.62C413.003 539.592 413.242 538.673 413.719 537.862C414.197 537.037 414.841 536.385 415.652 535.908C416.477 535.43 417.389 535.191 418.388 535.191C419.358 535.191 420.212 535.416 420.95 535.864C421.703 536.313 422.289 536.928 422.709 537.71C423.143 538.492 423.36 539.382 423.36 540.381C423.36 540.555 423.346 540.735 423.317 540.924C423.302 541.097 423.274 541.293 423.23 541.51H414.675V539.556H421.992L421.102 540.337C421.073 539.7 420.95 539.165 420.733 538.731C420.516 538.296 420.205 537.963 419.799 537.732C419.408 537.5 418.924 537.384 418.344 537.384C417.737 537.384 417.208 537.515 416.759 537.775C416.311 538.036 415.963 538.405 415.717 538.883C415.471 539.346 415.348 539.903 415.348 540.555C415.348 541.206 415.478 541.778 415.739 542.27C415.999 542.762 416.369 543.146 416.846 543.421C417.324 543.681 417.874 543.812 418.496 543.812C419.032 543.812 419.524 543.718 419.973 543.529C420.436 543.341 420.827 543.066 421.146 542.704L422.666 544.246C422.159 544.839 421.544 545.288 420.82 545.592C420.096 545.896 419.329 546.048 418.518 546.048ZM425.275 545.831V530.197H427.664V545.831H425.275ZM431.907 545.831V531.066H434.295V545.831H431.907ZM429.41 537.58V535.408H436.793V537.58H429.41ZM443.073 546.048C442.031 546.048 441.09 545.817 440.251 545.353C439.426 544.876 438.767 544.224 438.275 543.399C437.797 542.574 437.558 541.647 437.558 540.62C437.558 539.592 437.797 538.673 438.275 537.862C438.752 537.037 439.397 536.385 440.207 535.908C441.032 535.43 441.944 535.191 442.943 535.191C443.913 535.191 444.767 535.416 445.505 535.864C446.258 536.313 446.844 536.928 447.264 537.71C447.699 538.492 447.916 539.382 447.916 540.381C447.916 540.555 447.901 540.735 447.872 540.924C447.858 541.097 447.829 541.293 447.785 541.51H439.23V539.556H446.548L445.657 540.337C445.628 539.7 445.505 539.165 445.288 538.731C445.071 538.296 444.76 537.963 444.355 537.732C443.964 537.5 443.479 537.384 442.9 537.384C442.292 537.384 441.763 537.515 441.315 537.775C440.866 538.036 440.518 538.405 440.272 538.883C440.026 539.346 439.903 539.903 439.903 540.555C439.903 541.206 440.034 541.778 440.294 542.27C440.555 542.762 440.924 543.146 441.402 543.421C441.879 543.681 442.429 543.812 443.052 543.812C443.587 543.812 444.08 543.718 444.528 543.529C444.992 543.341 445.382 543.066 445.701 542.704L447.221 544.246C446.714 544.839 446.099 545.288 445.375 545.592C444.651 545.896 443.884 546.048 443.073 546.048ZM459.341 545.831L452.306 537.905L459.189 530.631H462.381L454.781 538.535L454.803 537.167L462.598 545.831H459.341ZM450.156 545.831V530.631H452.653V545.831H450.156ZM464.441 545.831V535.408H466.83V545.831H464.441ZM465.635 533.498C465.23 533.498 464.89 533.36 464.615 533.085C464.354 532.81 464.224 532.47 464.224 532.064C464.224 531.659 464.354 531.319 464.615 531.044C464.89 530.769 465.23 530.631 465.635 530.631C466.055 530.631 466.395 530.769 466.656 531.044C466.916 531.319 467.047 531.659 467.047 532.064C467.047 532.47 466.916 532.81 466.656 533.085C466.395 533.36 466.055 533.498 465.635 533.498ZM471.094 545.831V531.066H473.482V545.831H471.094ZM468.597 537.58V535.408H475.979V537.58H468.597Z" fill="#393131"/>
<path d="M399.825 463.821L398.84 465.659L398.305 465.804C398.363 465.688 398.43 465.592 398.507 465.514C398.594 465.437 398.686 465.399 398.782 465.399C399.004 465.399 399.207 465.495 399.39 465.688C399.583 465.871 399.68 466.108 399.68 466.397C399.68 466.697 399.574 466.957 399.361 467.179C399.149 467.401 398.893 467.512 398.594 467.512C398.305 467.512 398.049 467.406 397.827 467.194C397.615 466.972 397.509 466.706 397.509 466.397C397.509 466.272 397.533 466.127 397.581 465.963C397.639 465.789 397.735 465.572 397.87 465.312L398.942 463.343L399.825 463.821ZM402.778 463.821L401.793 465.659L401.258 465.804C401.316 465.688 401.383 465.592 401.46 465.514C401.547 465.437 401.639 465.399 401.735 465.399C401.957 465.399 402.16 465.495 402.343 465.688C402.536 465.871 402.633 466.108 402.633 466.397C402.633 466.697 402.527 466.957 402.314 467.179C402.102 467.401 401.846 467.512 401.547 467.512C401.258 467.512 401.002 467.406 400.78 467.194C400.568 466.972 400.462 466.706 400.462 466.397C400.462 466.272 400.486 466.127 400.534 465.963C400.592 465.789 400.688 465.572 400.823 465.312L401.895 463.343L402.778 463.821ZM404.574 473.896V463.763H406.239V473.896H404.574ZM405.717 469.553V468.033H410.871V469.553H405.717ZM405.717 465.283V463.763H411.117V465.283H405.717ZM412.556 473.896L412.556 466.947H414.148V473.896H412.556ZM414.148 470.031L413.598 469.756C413.598 468.878 413.791 468.168 414.177 467.628C414.573 467.078 415.166 466.803 415.958 466.803C416.305 466.803 416.619 466.865 416.899 466.991C417.179 467.116 417.439 467.319 417.68 467.599L416.638 468.67C416.513 468.535 416.373 468.438 416.218 468.381C416.064 468.323 415.885 468.294 415.683 468.294C415.239 468.294 414.872 468.434 414.583 468.714C414.293 468.993 414.148 469.432 414.148 470.031ZM421.424 474.041C420.748 474.041 420.135 473.881 419.585 473.563C419.035 473.235 418.596 472.796 418.268 472.246C417.949 471.696 417.79 471.083 417.79 470.407C417.79 469.732 417.949 469.124 418.268 468.583C418.596 468.043 419.035 467.613 419.585 467.295C420.135 466.967 420.748 466.803 421.424 466.803C422.109 466.803 422.726 466.962 423.276 467.28C423.827 467.599 424.261 468.033 424.579 468.583C424.907 469.124 425.071 469.732 425.071 470.407C425.071 471.083 424.907 471.696 424.579 472.246C424.261 472.796 423.827 473.235 423.276 473.563C422.726 473.881 422.109 474.041 421.424 474.041ZM421.424 472.506C421.819 472.506 422.167 472.419 422.466 472.246C422.775 472.062 423.011 471.811 423.175 471.493C423.349 471.174 423.436 470.813 423.436 470.407C423.436 470.002 423.349 469.645 423.175 469.336C423.001 469.027 422.765 468.786 422.466 468.612C422.167 468.429 421.819 468.337 421.424 468.337C421.038 468.337 420.69 468.429 420.381 468.612C420.082 468.786 419.846 469.027 419.672 469.336C419.508 469.645 419.426 470.002 419.426 470.407C419.426 470.813 419.508 471.174 419.672 471.493C419.846 471.811 420.082 472.062 420.381 472.246C420.69 472.419 421.038 472.506 421.424 472.506ZM431.158 473.896V469.886C431.158 469.423 431.009 469.042 430.709 468.742C430.42 468.443 430.044 468.294 429.58 468.294C429.272 468.294 428.997 468.361 428.755 468.496C428.514 468.631 428.326 468.82 428.191 469.061C428.056 469.302 427.988 469.577 427.988 469.886L427.366 469.539C427.366 469.008 427.481 468.54 427.713 468.134C427.945 467.72 428.263 467.396 428.668 467.165C429.083 466.923 429.547 466.803 430.058 466.803C430.579 466.803 431.042 466.938 431.448 467.208C431.853 467.469 432.172 467.811 432.403 468.236C432.635 468.651 432.751 469.085 432.751 469.539V473.896H431.158ZM426.396 473.896V466.947H427.988V473.896H426.396ZM435.341 473.896V464.052H436.933V473.896H435.341ZM433.676 468.395V466.947H438.598V468.395H433.676ZM442.785 474.041C442.09 474.041 441.463 473.886 440.903 473.577C440.353 473.259 439.914 472.825 439.586 472.275C439.267 471.724 439.108 471.107 439.108 470.422C439.108 469.736 439.267 469.124 439.586 468.583C439.904 468.033 440.334 467.599 440.874 467.28C441.424 466.962 442.032 466.803 442.698 466.803C443.345 466.803 443.914 466.952 444.406 467.251C444.908 467.551 445.299 467.961 445.579 468.482C445.868 469.003 446.013 469.597 446.013 470.262C446.013 470.378 446.003 470.499 445.984 470.624C445.974 470.74 445.955 470.87 445.926 471.015H440.223V469.712H445.101L444.508 470.233C444.488 469.809 444.406 469.452 444.262 469.162C444.117 468.873 443.909 468.651 443.639 468.496C443.378 468.342 443.055 468.265 442.669 468.265C442.264 468.265 441.912 468.352 441.612 468.525C441.313 468.699 441.082 468.945 440.918 469.264C440.754 469.572 440.671 469.944 440.671 470.378C440.671 470.813 440.758 471.194 440.932 471.522C441.106 471.85 441.352 472.106 441.67 472.289C441.989 472.463 442.356 472.55 442.77 472.55C443.128 472.55 443.456 472.487 443.755 472.361C444.064 472.236 444.324 472.053 444.537 471.811L445.55 472.839C445.212 473.235 444.802 473.534 444.319 473.737C443.837 473.939 443.325 474.041 442.785 474.041ZM452.052 473.896V469.886C452.052 469.423 451.903 469.042 451.603 468.742C451.314 468.443 450.937 468.294 450.474 468.294C450.165 468.294 449.89 468.361 449.649 468.496C449.408 468.631 449.22 468.82 449.085 469.061C448.949 469.302 448.882 469.577 448.882 469.886L448.259 469.539C448.259 469.008 448.375 468.54 448.607 468.134C448.838 467.72 449.157 467.396 449.562 467.165C449.977 466.923 450.44 466.803 450.952 466.803C451.473 466.803 451.936 466.938 452.342 467.208C452.747 467.469 453.065 467.811 453.297 468.236C453.529 468.651 453.644 469.085 453.644 469.539V473.896H452.052ZM447.29 473.896V466.947H448.882V473.896H447.29ZM458.172 474.041C457.545 474.041 456.976 473.881 456.464 473.563C455.962 473.244 455.562 472.815 455.263 472.275C454.973 471.724 454.828 471.112 454.828 470.436C454.828 469.751 454.973 469.138 455.263 468.598C455.562 468.048 455.962 467.613 456.464 467.295C456.976 466.967 457.545 466.803 458.172 466.803C458.703 466.803 459.171 466.919 459.576 467.15C459.991 467.372 460.32 467.681 460.561 468.077C460.802 468.472 460.923 468.921 460.923 469.423V471.421C460.923 471.922 460.802 472.371 460.561 472.767C460.329 473.162 460.006 473.476 459.591 473.708C459.176 473.93 458.703 474.041 458.172 474.041ZM458.433 472.535C458.828 472.535 459.171 472.448 459.461 472.275C459.76 472.091 459.991 471.84 460.155 471.522C460.32 471.203 460.402 470.837 460.402 470.422C460.402 470.007 460.32 469.64 460.155 469.322C459.991 469.003 459.76 468.757 459.461 468.583C459.171 468.4 458.833 468.308 458.447 468.308C458.052 468.308 457.704 468.4 457.405 468.583C457.116 468.757 456.884 469.003 456.71 469.322C456.546 469.64 456.464 470.007 456.464 470.422C456.464 470.837 456.546 471.203 456.71 471.522C456.884 471.84 457.116 472.091 457.405 472.275C457.704 472.448 458.047 472.535 458.433 472.535ZM461.893 473.896H460.3V472.028L460.575 470.335L460.3 468.656V463.473H461.893V473.896ZM466.439 467.309L467.423 465.471L467.959 465.326C467.901 465.442 467.834 465.538 467.756 465.616C467.679 465.693 467.588 465.731 467.481 465.731C467.259 465.731 467.052 465.64 466.859 465.456C466.676 465.263 466.584 465.022 466.584 464.733C466.584 464.424 466.69 464.163 466.902 463.951C467.115 463.729 467.37 463.618 467.67 463.618C467.959 463.618 468.21 463.729 468.422 463.951C468.644 464.163 468.755 464.424 468.755 464.733C468.755 464.858 468.726 465.008 468.668 465.181C468.62 465.345 468.528 465.558 468.393 465.818L467.322 467.787L466.439 467.309ZM463.486 467.309L464.47 465.471L465.006 465.326C464.948 465.442 464.881 465.538 464.803 465.616C464.726 465.693 464.634 465.731 464.528 465.731C464.306 465.731 464.099 465.64 463.906 465.456C463.722 465.263 463.631 465.022 463.631 464.733C463.631 464.424 463.737 464.163 463.949 463.951C464.162 463.729 464.417 463.618 464.716 463.618C465.006 463.618 465.257 463.729 465.469 463.951C465.691 464.163 465.802 464.424 465.802 464.733C465.802 464.858 465.773 465.008 465.715 465.181C465.667 465.345 465.575 465.558 465.44 465.818L464.369 467.787L463.486 467.309ZM406.277 492.041C405.591 492.041 404.969 491.881 404.409 491.563C403.859 491.244 403.425 490.81 403.106 490.26C402.788 489.71 402.629 489.097 402.629 488.422C402.629 487.736 402.788 487.124 403.106 486.583C403.425 486.033 403.859 485.599 404.409 485.28C404.969 484.962 405.591 484.803 406.277 484.803C406.817 484.803 407.319 484.909 407.782 485.121C408.255 485.324 408.655 485.618 408.984 486.004L407.941 487.061C407.739 486.82 407.493 486.641 407.203 486.525C406.923 486.4 406.614 486.337 406.277 486.337C405.881 486.337 405.529 486.429 405.22 486.612C404.921 486.786 404.684 487.027 404.51 487.336C404.346 487.645 404.264 488.007 404.264 488.422C404.264 488.827 404.346 489.189 404.51 489.507C404.684 489.816 404.921 490.062 405.22 490.246C405.529 490.419 405.881 490.506 406.277 490.506C406.614 490.506 406.923 490.448 407.203 490.332C407.493 490.207 407.739 490.024 407.941 489.782L408.984 490.839C408.655 491.225 408.255 491.524 407.782 491.737C407.319 491.939 406.817 492.041 406.277 492.041ZM413.175 492.041C412.499 492.041 411.886 491.881 411.336 491.563C410.786 491.235 410.347 490.796 410.019 490.246C409.701 489.696 409.541 489.083 409.541 488.407C409.541 487.732 409.701 487.124 410.019 486.583C410.347 486.043 410.786 485.613 411.336 485.295C411.886 484.967 412.499 484.803 413.175 484.803C413.86 484.803 414.478 484.962 415.028 485.28C415.578 485.599 416.012 486.033 416.331 486.583C416.659 487.124 416.823 487.732 416.823 488.407C416.823 489.083 416.659 489.696 416.331 490.246C416.012 490.796 415.578 491.235 415.028 491.563C414.478 491.881 413.86 492.041 413.175 492.041ZM413.175 490.506C413.571 490.506 413.918 490.419 414.217 490.246C414.526 490.062 414.762 489.811 414.926 489.493C415.1 489.174 415.187 488.813 415.187 488.407C415.187 488.002 415.1 487.645 414.926 487.336C414.753 487.027 414.516 486.786 414.217 486.612C413.918 486.429 413.571 486.337 413.175 486.337C412.789 486.337 412.441 486.429 412.133 486.612C411.833 486.786 411.597 487.027 411.423 487.336C411.259 487.645 411.177 488.002 411.177 488.407C411.177 488.813 411.259 489.174 411.423 489.493C411.597 489.811 411.833 490.062 412.133 490.246C412.441 490.419 412.789 490.506 413.175 490.506ZM422.91 491.896V487.886C422.91 487.423 422.76 487.042 422.461 486.742C422.171 486.443 421.795 486.294 421.332 486.294C421.023 486.294 420.748 486.361 420.507 486.496C420.265 486.631 420.077 486.82 419.942 487.061C419.807 487.302 419.739 487.577 419.739 487.886L419.117 487.539C419.117 487.008 419.233 486.54 419.464 486.134C419.696 485.72 420.014 485.396 420.42 485.165C420.835 484.923 421.298 484.803 421.809 484.803C422.331 484.803 422.794 484.938 423.199 485.208C423.604 485.469 423.923 485.811 424.154 486.236C424.386 486.651 424.502 487.085 424.502 487.539V491.896H422.91ZM418.147 491.896V484.947H419.739V491.896H418.147ZM427.092 491.896V482.052H428.684V491.896H427.092ZM425.427 486.395V484.947H430.349V486.395H425.427ZM434.218 492.041C433.591 492.041 433.021 491.881 432.51 491.563C432.008 491.244 431.607 490.815 431.308 490.275C431.019 489.724 430.874 489.112 430.874 488.436C430.874 487.751 431.019 487.138 431.308 486.598C431.607 486.048 432.008 485.613 432.51 485.295C433.021 484.967 433.591 484.803 434.218 484.803C434.749 484.803 435.217 484.919 435.622 485.15C436.037 485.372 436.365 485.681 436.606 486.077C436.848 486.472 436.968 486.921 436.968 487.423V489.421C436.968 489.922 436.848 490.371 436.606 490.767C436.375 491.162 436.051 491.476 435.636 491.708C435.221 491.93 434.749 492.041 434.218 492.041ZM434.478 490.535C435.067 490.535 435.54 490.337 435.897 489.942C436.264 489.546 436.447 489.039 436.447 488.422C436.447 488.007 436.365 487.64 436.201 487.322C436.037 487.003 435.805 486.757 435.506 486.583C435.217 486.4 434.874 486.308 434.478 486.308C434.092 486.308 433.75 486.4 433.451 486.583C433.161 486.757 432.929 487.003 432.756 487.322C432.592 487.64 432.51 488.007 432.51 488.422C432.51 488.837 432.592 489.203 432.756 489.522C432.929 489.84 433.161 490.091 433.451 490.275C433.75 490.448 434.092 490.535 434.478 490.535ZM436.346 491.896V490.028L436.621 488.335L436.346 486.656V484.947H437.938V491.896H436.346ZM439.72 491.896V484.947H441.312V491.896H439.72ZM440.516 483.674C440.246 483.674 440.019 483.582 439.836 483.399C439.662 483.215 439.575 482.988 439.575 482.718C439.575 482.448 439.662 482.221 439.836 482.038C440.019 481.854 440.246 481.763 440.516 481.763C440.796 481.763 441.023 481.854 441.196 482.038C441.37 482.221 441.457 482.448 441.457 482.718C441.457 482.988 441.37 483.215 441.196 483.399C441.023 483.582 440.796 483.674 440.516 483.674ZM447.861 491.896V487.886C447.861 487.423 447.711 487.042 447.412 486.742C447.122 486.443 446.746 486.294 446.283 486.294C445.974 486.294 445.699 486.361 445.458 486.496C445.216 486.631 445.028 486.82 444.893 487.061C444.758 487.302 444.69 487.577 444.69 487.886L444.068 487.539C444.068 487.008 444.184 486.54 444.415 486.134C444.647 485.72 444.965 485.396 445.371 485.165C445.786 484.923 446.249 484.803 446.76 484.803C447.282 484.803 447.745 484.938 448.15 485.208C448.555 485.469 448.874 485.811 449.106 486.236C449.337 486.651 449.453 487.085 449.453 487.539V491.896H447.861ZM443.098 491.896V484.947H444.69V491.896H443.098ZM454.299 492.041C453.604 492.041 452.977 491.886 452.417 491.577C451.867 491.259 451.428 490.825 451.1 490.275C450.782 489.724 450.622 489.107 450.622 488.422C450.622 487.736 450.782 487.124 451.1 486.583C451.419 486.033 451.848 485.599 452.388 485.28C452.938 484.962 453.546 484.803 454.212 484.803C454.859 484.803 455.428 484.952 455.921 485.251C456.422 485.551 456.813 485.961 457.093 486.482C457.383 487.003 457.527 487.597 457.527 488.262C457.527 488.378 457.518 488.499 457.498 488.624C457.489 488.74 457.469 488.87 457.44 489.015H451.737V487.712H456.615L456.022 488.233C456.003 487.809 455.921 487.452 455.776 487.162C455.631 486.873 455.424 486.651 455.153 486.496C454.893 486.342 454.569 486.265 454.183 486.265C453.778 486.265 453.426 486.352 453.127 486.525C452.828 486.699 452.596 486.945 452.432 487.264C452.268 487.572 452.186 487.944 452.186 488.378C452.186 488.813 452.273 489.194 452.446 489.522C452.62 489.85 452.866 490.106 453.185 490.289C453.503 490.463 453.87 490.55 454.285 490.55C454.642 490.55 454.97 490.487 455.269 490.361C455.578 490.236 455.838 490.053 456.051 489.811L457.064 490.839C456.726 491.235 456.316 491.534 455.834 491.737C455.351 491.939 454.84 492.041 454.299 492.041ZM458.804 491.896V484.947H460.396V491.896H458.804ZM460.396 488.031L459.846 487.756C459.846 486.878 460.039 486.168 460.425 485.628C460.821 485.078 461.414 484.803 462.206 484.803C462.553 484.803 462.867 484.865 463.147 484.991C463.426 485.116 463.687 485.319 463.928 485.599L462.886 486.67C462.761 486.535 462.621 486.438 462.466 486.381C462.312 486.323 462.133 486.294 461.931 486.294C461.487 486.294 461.12 486.434 460.83 486.714C460.541 486.993 460.396 487.432 460.396 488.031Z" fill="#80937D"/>
<rect x="222.026" y="182.442" width="180.948" height="180.948" rx="53.0782" fill="#F9F9F9"/>
<path d="M286.678 280.44V265.24H288.415L289.175 268.107V280.44H286.678ZM297.209 280.44L288.111 268.563L288.415 265.24L297.513 277.118L297.209 280.44ZM297.209 280.44L296.449 277.769V265.24H298.946V280.44H297.209ZM306.26 285C305.159 285 304.197 284.797 303.372 284.392C302.547 284.001 301.881 283.444 301.374 282.72L302.937 281.157C303.357 281.678 303.835 282.069 304.37 282.329C304.906 282.59 305.55 282.72 306.303 282.72C307.244 282.72 307.989 282.474 308.54 281.982C309.09 281.504 309.365 280.845 309.365 280.006V277.443L309.777 275.142L309.365 272.818V270.017H311.753V280.006C311.753 281.005 311.522 281.873 311.058 282.611C310.595 283.364 309.951 283.95 309.126 284.37C308.301 284.79 307.345 285 306.26 285ZM306.151 280.223C305.225 280.223 304.385 279.998 303.632 279.55C302.894 279.086 302.308 278.457 301.873 277.661C301.454 276.864 301.244 275.974 301.244 274.99C301.244 274.005 301.454 273.122 301.873 272.341C302.308 271.559 302.894 270.944 303.632 270.495C304.385 270.032 305.225 269.8 306.151 269.8C306.976 269.8 307.7 269.967 308.322 270.3C308.945 270.633 309.43 271.096 309.777 271.689C310.125 272.268 310.298 272.949 310.298 273.73V276.293C310.298 277.06 310.117 277.74 309.756 278.334C309.408 278.927 308.923 279.39 308.301 279.723C307.678 280.056 306.962 280.223 306.151 280.223ZM306.629 277.965C307.208 277.965 307.714 277.842 308.149 277.595C308.583 277.349 308.916 277.009 309.148 276.575C309.394 276.126 309.517 275.605 309.517 275.012C309.517 274.418 309.394 273.904 309.148 273.47C308.916 273.021 308.583 272.674 308.149 272.428C307.714 272.181 307.208 272.058 306.629 272.058C306.05 272.058 305.536 272.181 305.087 272.428C304.653 272.674 304.313 273.021 304.066 273.47C303.82 273.904 303.697 274.418 303.697 275.012C303.697 275.591 303.82 276.104 304.066 276.553C304.313 277.002 304.653 277.349 305.087 277.595C305.536 277.842 306.05 277.965 306.629 277.965ZM314.428 280.44V270.017H316.817V280.44H314.428ZM315.622 268.107C315.217 268.107 314.877 267.969 314.602 267.694C314.341 267.419 314.211 267.079 314.211 266.673C314.211 266.268 314.341 265.928 314.602 265.653C314.877 265.378 315.217 265.24 315.622 265.24C316.042 265.24 316.382 265.378 316.643 265.653C316.904 265.928 317.034 266.268 317.034 266.673C317.034 267.079 316.904 267.419 316.643 267.694C316.382 267.969 316.042 268.107 315.622 268.107ZM326.64 280.44V274.425C326.64 273.73 326.415 273.159 325.966 272.71C325.532 272.261 324.968 272.037 324.273 272.037C323.809 272.037 323.397 272.138 323.035 272.341C322.673 272.543 322.391 272.826 322.188 273.188C321.986 273.549 321.884 273.962 321.884 274.425L320.95 273.904C320.95 273.108 321.124 272.406 321.472 271.798C321.819 271.175 322.297 270.69 322.905 270.343C323.527 269.981 324.222 269.8 324.989 269.8C325.771 269.8 326.466 270.003 327.074 270.408C327.682 270.799 328.159 271.313 328.507 271.95C328.854 272.572 329.028 273.224 329.028 273.904V280.44H326.64ZM319.496 280.44V270.017H321.884V280.44H319.496ZM338.056 280.44L335.06 276.032L334.625 275.641L330.587 270.017H333.475L336.145 273.882L336.558 274.252L340.922 280.44H338.056ZM330.391 280.44L334.604 274.599L335.993 276.314L333.171 280.44H330.391ZM336.775 275.598L335.364 273.904L337.969 270.017H340.727L336.775 275.598Z" fill="#393131"/>
<path d="M274.261 198.43L273.277 200.268L272.741 200.413C272.799 200.297 272.867 200.201 272.944 200.123C273.031 200.046 273.122 200.008 273.219 200.008C273.441 200.008 273.643 200.104 273.827 200.297C274.02 200.48 274.116 200.717 274.116 201.006C274.116 201.306 274.01 201.566 273.798 201.788C273.585 202.01 273.33 202.121 273.031 202.121C272.741 202.121 272.485 202.015 272.263 201.803C272.051 201.581 271.945 201.315 271.945 201.006C271.945 200.881 271.969 200.736 272.017 200.572C272.075 200.398 272.172 200.181 272.307 199.921L273.378 197.952L274.261 198.43ZM277.214 198.43L276.23 200.268L275.694 200.413C275.752 200.297 275.82 200.201 275.897 200.123C275.984 200.046 276.075 200.008 276.172 200.008C276.394 200.008 276.596 200.104 276.78 200.297C276.973 200.48 277.069 200.717 277.069 201.006C277.069 201.306 276.963 201.566 276.751 201.788C276.539 202.01 276.283 202.121 275.984 202.121C275.694 202.121 275.438 202.015 275.216 201.803C275.004 201.581 274.898 201.315 274.898 201.006C274.898 200.881 274.922 200.736 274.97 200.572C275.028 200.398 275.125 200.181 275.26 199.921L276.331 197.952L277.214 198.43ZM281.616 208.505L278.286 198.372H279.922L282.427 206.174H281.992L284.439 198.372H285.597L288.043 206.174H287.609L290.113 198.372H291.749L288.42 208.505H287.261L284.801 200.717H285.235L282.774 208.505H281.616ZM295.225 208.65C294.53 208.65 293.903 208.495 293.343 208.186C292.793 207.868 292.354 207.434 292.026 206.884C291.707 206.333 291.548 205.716 291.548 205.031C291.548 204.345 291.707 203.733 292.026 203.192C292.344 202.642 292.774 202.208 293.314 201.889C293.864 201.571 294.472 201.412 295.138 201.412C295.785 201.412 296.354 201.561 296.846 201.86C297.348 202.16 297.739 202.57 298.019 203.091C298.308 203.612 298.453 204.206 298.453 204.871C298.453 204.987 298.443 205.108 298.424 205.233C298.414 205.349 298.395 205.479 298.366 205.624H292.663L292.663 204.321H297.541L296.947 204.842C296.928 204.418 296.846 204.061 296.701 203.771C296.557 203.482 296.349 203.26 296.079 203.105C295.818 202.951 295.495 202.874 295.109 202.874C294.704 202.874 294.351 202.961 294.052 203.134C293.753 203.308 293.521 203.554 293.357 203.873C293.193 204.181 293.111 204.553 293.111 204.987C293.111 205.421 293.198 205.803 293.372 206.131C293.546 206.459 293.792 206.715 294.11 206.898C294.429 207.072 294.795 207.159 295.21 207.159C295.567 207.159 295.896 207.096 296.195 206.97C296.504 206.845 296.764 206.662 296.976 206.42L297.99 207.448C297.652 207.844 297.242 208.143 296.759 208.346C296.277 208.548 295.765 208.65 295.225 208.65ZM303.45 208.65C302.919 208.65 302.446 208.539 302.031 208.317C301.616 208.085 301.288 207.771 301.047 207.376C300.815 206.98 300.699 206.531 300.699 206.029V204.032C300.699 203.53 300.82 203.081 301.061 202.686C301.302 202.29 301.631 201.981 302.046 201.759C302.461 201.527 302.929 201.412 303.45 201.412C304.077 201.412 304.642 201.576 305.143 201.904C305.655 202.222 306.055 202.657 306.345 203.207C306.644 203.747 306.794 204.36 306.794 205.045C306.794 205.721 306.644 206.333 306.345 206.884C306.055 207.424 305.655 207.853 305.143 208.172C304.642 208.49 304.077 208.65 303.45 208.65ZM303.189 207.144C303.575 207.144 303.913 207.057 304.202 206.884C304.502 206.7 304.733 206.449 304.897 206.131C305.071 205.812 305.158 205.446 305.158 205.031C305.158 204.616 305.071 204.249 304.897 203.93C304.733 203.612 304.502 203.366 304.202 203.192C303.913 203.009 303.575 202.917 303.189 202.917C302.803 202.917 302.461 203.009 302.161 203.192C301.862 203.366 301.631 203.612 301.467 203.93C301.302 204.249 301.22 204.616 301.22 205.031C301.22 205.446 301.302 205.812 301.467 206.131C301.631 206.449 301.862 206.7 302.161 206.884C302.461 207.057 302.803 207.144 303.189 207.144ZM299.729 208.505V198.082H301.322V203.265L301.047 204.944L301.322 206.637V208.505H299.729ZM310.399 208.65C310.013 208.65 309.642 208.601 309.285 208.505C308.928 208.399 308.599 208.254 308.3 208.071C308.001 207.878 307.741 207.646 307.519 207.376L308.532 206.362C308.773 206.642 309.048 206.855 309.357 206.999C309.675 207.134 310.033 207.202 310.428 207.202C310.785 207.202 311.055 207.149 311.239 207.043C311.422 206.937 311.514 206.782 311.514 206.58C311.514 206.367 311.427 206.203 311.253 206.087C311.08 205.972 310.853 205.875 310.573 205.798C310.303 205.711 310.013 205.624 309.704 205.537C309.405 205.45 309.116 205.335 308.836 205.19C308.566 205.035 308.344 204.828 308.17 204.567C307.996 204.307 307.909 203.969 307.909 203.554C307.909 203.11 308.011 202.729 308.213 202.411C308.426 202.092 308.72 201.846 309.096 201.672C309.482 201.499 309.941 201.412 310.472 201.412C311.031 201.412 311.524 201.513 311.948 201.716C312.382 201.909 312.744 202.203 313.034 202.599L312.021 203.612C311.818 203.361 311.586 203.173 311.326 203.047C311.065 202.922 310.766 202.859 310.428 202.859C310.11 202.859 309.864 202.908 309.69 203.004C309.516 203.101 309.429 203.24 309.429 203.424C309.429 203.617 309.516 203.766 309.69 203.873C309.864 203.979 310.086 204.07 310.356 204.148C310.636 204.225 310.925 204.312 311.224 204.408C311.533 204.495 311.823 204.62 312.093 204.785C312.373 204.939 312.6 205.151 312.773 205.421C312.947 205.682 313.034 206.025 313.034 206.449C313.034 207.125 312.797 207.66 312.325 208.056C311.852 208.452 311.21 208.65 310.399 208.65ZM317.575 208.65C316.88 208.65 316.253 208.495 315.693 208.186C315.143 207.868 314.704 207.434 314.376 206.884C314.057 206.333 313.898 205.716 313.898 205.031C313.898 204.345 314.057 203.733 314.376 203.192C314.694 202.642 315.124 202.208 315.664 201.889C316.214 201.571 316.822 201.412 317.488 201.412C318.134 201.412 318.704 201.561 319.196 201.86C319.698 202.16 320.089 202.57 320.369 203.091C320.658 203.612 320.803 204.206 320.803 204.871C320.803 204.987 320.793 205.108 320.774 205.233C320.764 205.349 320.745 205.479 320.716 205.624H315.013V204.321H319.891L319.297 204.842C319.278 204.418 319.196 204.061 319.051 203.771C318.907 203.482 318.699 203.26 318.429 203.105C318.168 202.951 317.845 202.874 317.459 202.874C317.054 202.874 316.701 202.961 316.402 203.134C316.103 203.308 315.871 203.554 315.707 203.873C315.543 204.181 315.461 204.553 315.461 204.987C315.461 205.421 315.548 205.803 315.722 206.131C315.896 206.459 316.142 206.715 316.46 206.898C316.779 207.072 317.145 207.159 317.56 207.159C317.917 207.159 318.245 207.096 318.545 206.97C318.853 206.845 319.114 206.662 319.326 206.42L320.34 207.448C320.002 207.844 319.592 208.143 319.109 208.346C318.627 208.548 318.115 208.65 317.575 208.65ZM322.079 208.505V201.556H323.672V208.505H322.079ZM323.672 204.64L323.122 204.365C323.122 203.487 323.315 202.777 323.701 202.237C324.096 201.687 324.69 201.412 325.481 201.412C325.829 201.412 326.142 201.474 326.422 201.6C326.702 201.725 326.963 201.928 327.204 202.208L326.162 203.279C326.036 203.144 325.896 203.047 325.742 202.99C325.587 202.932 325.409 202.903 325.206 202.903C324.762 202.903 324.395 203.043 324.106 203.322C323.816 203.602 323.672 204.041 323.672 204.64ZM330.22 208.505L327.05 201.556H328.816L331.234 207.216H330.192L332.623 201.556H334.317L331.147 208.505H330.22ZM338.257 208.65C337.562 208.65 336.934 208.495 336.375 208.186C335.825 207.868 335.386 207.434 335.057 206.884C334.739 206.333 334.58 205.716 334.58 205.031C334.58 204.345 334.739 203.733 335.057 203.192C335.376 202.642 335.805 202.208 336.346 201.889C336.896 201.571 337.504 201.412 338.17 201.412C338.816 201.412 339.386 201.561 339.878 201.86C340.38 202.16 340.771 202.57 341.05 203.091C341.34 203.612 341.485 204.206 341.485 204.871C341.485 204.987 341.475 205.108 341.456 205.233C341.446 205.349 341.427 205.479 341.398 205.624H335.694V204.321H340.573L339.979 204.842C339.96 204.418 339.878 204.061 339.733 203.771C339.588 203.482 339.381 203.26 339.111 203.105C338.85 202.951 338.527 202.874 338.141 202.874C337.735 202.874 337.383 202.961 337.084 203.134C336.785 203.308 336.553 203.554 336.389 203.873C336.225 204.181 336.143 204.553 336.143 204.987C336.143 205.421 336.23 205.803 336.404 206.131C336.577 206.459 336.823 206.715 337.142 206.898C337.46 207.072 337.827 207.159 338.242 207.159C338.599 207.159 338.927 207.096 339.226 206.97C339.535 206.845 339.796 206.662 340.008 206.42L341.021 207.448C340.684 207.844 340.274 208.143 339.791 208.346C339.309 208.548 338.797 208.65 338.257 208.65ZM342.761 208.505V201.556H344.354V208.505H342.761ZM344.354 204.64L343.803 204.365C343.803 203.487 343.996 202.777 344.383 202.237C344.778 201.687 345.372 201.412 346.163 201.412C346.51 201.412 346.824 201.474 347.104 201.6C347.384 201.725 347.644 201.928 347.886 202.208L346.843 203.279C346.718 203.144 346.578 203.047 346.424 202.99C346.269 202.932 346.091 202.903 345.888 202.903C345.444 202.903 345.077 203.043 344.788 203.322C344.498 203.602 344.354 204.041 344.354 204.64ZM351.944 201.918L352.929 200.08L353.464 199.935C353.407 200.051 353.339 200.147 353.262 200.225C353.185 200.302 353.093 200.34 352.987 200.34C352.765 200.34 352.557 200.249 352.364 200.065C352.181 199.872 352.089 199.631 352.089 199.342C352.089 199.033 352.195 198.772 352.408 198.56C352.62 198.338 352.876 198.227 353.175 198.227C353.464 198.227 353.715 198.338 353.928 198.56C354.15 198.772 354.261 199.033 354.261 199.342C354.261 199.467 354.232 199.617 354.174 199.79C354.125 199.954 354.034 200.167 353.899 200.427L352.827 202.396L351.944 201.918ZM348.991 201.918L349.976 200.08L350.511 199.935C350.453 200.051 350.386 200.147 350.309 200.225C350.231 200.302 350.14 200.34 350.034 200.34C349.812 200.34 349.604 200.249 349.411 200.065C349.228 199.872 349.136 199.631 349.136 199.342C349.136 199.033 349.242 198.772 349.455 198.56C349.667 198.338 349.923 198.227 350.222 198.227C350.511 198.227 350.762 198.338 350.975 198.56C351.197 198.772 351.308 199.033 351.308 199.342C351.308 199.467 351.279 199.617 351.221 199.79C351.172 199.954 351.081 200.167 350.946 200.427L349.874 202.396L348.991 201.918ZM286.247 226.65C285.562 226.65 284.94 226.49 284.38 226.172C283.83 225.853 283.396 225.419 283.077 224.869C282.759 224.319 282.599 223.706 282.599 223.031C282.599 222.345 282.759 221.733 283.077 221.192C283.396 220.642 283.83 220.208 284.38 219.889C284.94 219.571 285.562 219.412 286.247 219.412C286.788 219.412 287.29 219.518 287.753 219.73C288.226 219.933 288.626 220.227 288.954 220.613L287.912 221.67C287.709 221.429 287.463 221.25 287.174 221.134C286.894 221.009 286.585 220.946 286.247 220.946C285.852 220.946 285.499 221.038 285.191 221.221C284.891 221.395 284.655 221.636 284.481 221.945C284.317 222.254 284.235 222.616 284.235 223.031C284.235 223.436 284.317 223.798 284.481 224.116C284.655 224.425 284.891 224.671 285.191 224.855C285.499 225.028 285.852 225.115 286.247 225.115C286.585 225.115 286.894 225.057 287.174 224.941C287.463 224.816 287.709 224.633 287.912 224.391L288.954 225.448C288.626 225.834 288.226 226.133 287.753 226.346C287.29 226.548 286.788 226.65 286.247 226.65ZM293.146 226.65C292.47 226.65 291.857 226.49 291.307 226.172C290.757 225.844 290.318 225.405 289.99 224.855C289.671 224.305 289.512 223.692 289.512 223.016C289.512 222.341 289.671 221.733 289.99 221.192C290.318 220.652 290.757 220.222 291.307 219.904C291.857 219.576 292.47 219.412 293.146 219.412C293.831 219.412 294.449 219.571 294.999 219.889C295.549 220.208 295.983 220.642 296.301 221.192C296.63 221.733 296.794 222.341 296.794 223.016C296.794 223.692 296.63 224.305 296.301 224.855C295.983 225.405 295.549 225.844 294.999 226.172C294.449 226.49 293.831 226.65 293.146 226.65ZM293.146 225.115C293.541 225.115 293.889 225.028 294.188 224.855C294.497 224.671 294.733 224.42 294.897 224.102C295.071 223.783 295.158 223.421 295.158 223.016C295.158 222.611 295.071 222.254 294.897 221.945C294.724 221.636 294.487 221.395 294.188 221.221C293.889 221.038 293.541 220.946 293.146 220.946C292.76 220.946 292.412 221.038 292.103 221.221C291.804 221.395 291.568 221.636 291.394 221.945C291.23 222.254 291.148 222.611 291.148 223.016C291.148 223.421 291.23 223.783 291.394 224.102C291.568 224.42 291.804 224.671 292.103 224.855C292.412 225.028 292.76 225.115 293.146 225.115ZM302.88 226.505V222.495C302.88 222.032 302.731 221.651 302.432 221.351C302.142 221.052 301.766 220.903 301.303 220.903C300.994 220.903 300.719 220.97 300.477 221.105C300.236 221.24 300.048 221.429 299.913 221.67C299.778 221.911 299.71 222.186 299.71 222.495L299.088 222.148C299.088 221.617 299.204 221.149 299.435 220.743C299.667 220.328 299.985 220.005 300.391 219.774C300.806 219.532 301.269 219.412 301.78 219.412C302.301 219.412 302.765 219.547 303.17 219.817C303.575 220.078 303.894 220.42 304.125 220.845C304.357 221.26 304.473 221.694 304.473 222.148V226.505H302.88ZM298.118 226.505V219.556H299.71V226.505H298.118ZM307.063 226.505V216.661H308.655V226.505H307.063ZM305.398 221.004V219.556H310.32V221.004H305.398ZM314.189 226.65C313.561 226.65 312.992 226.49 312.48 226.172C311.979 225.853 311.578 225.424 311.279 224.884C310.989 224.333 310.845 223.721 310.845 223.045C310.845 222.36 310.989 221.747 311.279 221.207C311.578 220.657 311.979 220.222 312.48 219.904C312.992 219.576 313.561 219.412 314.189 219.412C314.719 219.412 315.187 219.527 315.593 219.759C316.008 219.981 316.336 220.29 316.577 220.686C316.818 221.081 316.939 221.53 316.939 222.032V224.029C316.939 224.531 316.818 224.98 316.577 225.376C316.346 225.771 316.022 226.085 315.607 226.317C315.192 226.539 314.719 226.65 314.189 226.65ZM314.449 225.144C315.038 225.144 315.511 224.946 315.868 224.551C316.235 224.155 316.418 223.648 316.418 223.031C316.418 222.616 316.336 222.249 316.172 221.93C316.008 221.612 315.776 221.366 315.477 221.192C315.187 221.009 314.845 220.917 314.449 220.917C314.063 220.917 313.721 221.009 313.421 221.192C313.132 221.366 312.9 221.612 312.727 221.93C312.563 222.249 312.48 222.616 312.48 223.031C312.48 223.446 312.563 223.812 312.727 224.131C312.9 224.449 313.132 224.7 313.421 224.884C313.721 225.057 314.063 225.144 314.449 225.144ZM316.317 226.505V224.637L316.592 222.944L316.317 221.265V219.556H317.909V226.505H316.317ZM319.691 226.505V219.556H321.283V226.505H319.691ZM320.487 218.283C320.217 218.283 319.99 218.191 319.806 218.008C319.633 217.824 319.546 217.597 319.546 217.327C319.546 217.057 319.633 216.83 319.806 216.647C319.99 216.463 320.217 216.372 320.487 216.372C320.767 216.372 320.993 216.463 321.167 216.647C321.341 216.83 321.428 217.057 321.428 217.327C321.428 217.597 321.341 217.824 321.167 218.008C320.993 218.191 320.767 218.283 320.487 218.283ZM327.831 226.505V222.495C327.831 222.032 327.682 221.651 327.383 221.351C327.093 221.052 326.717 220.903 326.254 220.903C325.945 220.903 325.67 220.97 325.428 221.105C325.187 221.24 324.999 221.429 324.864 221.67C324.729 221.911 324.661 222.186 324.661 222.495L324.039 222.148C324.039 221.617 324.155 221.149 324.386 220.743C324.618 220.328 324.936 220.005 325.342 219.774C325.757 219.532 326.22 219.412 326.731 219.412C327.252 219.412 327.716 219.547 328.121 219.817C328.526 220.078 328.845 220.42 329.076 220.845C329.308 221.26 329.424 221.694 329.424 222.148V226.505H327.831ZM323.069 226.505V219.556H324.661V226.505H323.069ZM334.27 226.65C333.575 226.65 332.948 226.495 332.388 226.186C331.838 225.868 331.399 225.434 331.071 224.884C330.752 224.333 330.593 223.716 330.593 223.031C330.593 222.345 330.752 221.733 331.071 221.192C331.389 220.642 331.819 220.208 332.359 219.889C332.909 219.571 333.517 219.412 334.183 219.412C334.83 219.412 335.399 219.561 335.891 219.86C336.393 220.16 336.784 220.57 337.064 221.091C337.353 221.612 337.498 222.206 337.498 222.871C337.498 222.987 337.489 223.108 337.469 223.233C337.46 223.349 337.44 223.479 337.411 223.624H331.708V222.321H336.586L335.993 222.842C335.973 222.418 335.891 222.061 335.747 221.771C335.602 221.482 335.394 221.26 335.124 221.105C334.864 220.951 334.54 220.874 334.154 220.874C333.749 220.874 333.397 220.961 333.098 221.134C332.798 221.308 332.567 221.554 332.403 221.873C332.239 222.181 332.157 222.553 332.157 222.987C332.157 223.421 332.243 223.803 332.417 224.131C332.591 224.459 332.837 224.715 333.155 224.898C333.474 225.072 333.841 225.159 334.256 225.159C334.613 225.159 334.941 225.096 335.24 224.97C335.549 224.845 335.809 224.662 336.022 224.42L337.035 225.448C336.697 225.844 336.287 226.143 335.805 226.346C335.322 226.548 334.811 226.65 334.27 226.65ZM338.775 226.505V219.556H340.367V226.505H338.775ZM340.367 222.64L339.817 222.365C339.817 221.487 340.01 220.777 340.396 220.237C340.792 219.687 341.385 219.412 342.177 219.412C342.524 219.412 342.838 219.474 343.117 219.6C343.397 219.725 343.658 219.928 343.899 220.208L342.857 221.279C342.731 221.144 342.591 221.047 342.437 220.99C342.283 220.932 342.104 220.903 341.901 220.903C341.458 220.903 341.091 221.043 340.801 221.322C340.512 221.602 340.367 222.041 340.367 222.64Z" fill="#80937D"/>
<path d="M313.353 66.7011C312.882 66.23 312.118 66.23 311.647 66.7011L303.97 74.3781C303.499 74.8492 303.499 75.613 303.97 76.0841C304.441 76.5552 305.205 76.5552 305.676 76.0841L312.5 69.2601L319.324 76.0841C319.795 76.5552 320.559 76.5552 321.03 76.0841C321.501 75.613 321.501 74.8492 321.03 74.3781L313.353 66.7011ZM311.647 180.882C312.118 181.353 312.882 181.353 313.353 180.882L321.03 173.205C321.501 172.734 321.501 171.97 321.03 171.499C320.559 171.028 319.795 171.028 319.324 171.499L312.5 178.323L305.676 171.499C305.205 171.028 304.441 171.028 303.97 171.499C303.499 171.97 303.499 172.734 303.97 173.205L311.647 180.882ZM311.294 67.5541L311.294 180.029L313.706 180.029L313.706 67.5541L311.294 67.5541Z" fill="#82917F"/>
<path d="M253.365 361.068C253.082 360.465 252.363 360.205 251.76 360.489L241.934 365.105C241.331 365.388 241.071 366.106 241.355 366.709C241.638 367.312 242.356 367.572 242.96 367.288L251.694 363.185L255.798 371.92C256.081 372.523 256.799 372.782 257.402 372.499C258.005 372.216 258.265 371.497 257.981 370.894L253.365 361.068ZM220.934 445.933C221.217 446.536 221.936 446.795 222.539 446.512L232.365 441.896C232.968 441.612 233.228 440.894 232.944 440.291C232.661 439.688 231.943 439.429 231.34 439.712L222.605 443.815L218.502 435.08C218.218 434.477 217.5 434.218 216.897 434.501C216.294 434.785 216.035 435.503 216.318 436.106L220.934 445.933ZM251.139 361.171L220.891 445.011L223.161 445.829L253.408 361.99L251.139 361.171Z" fill="#82917F"/>
<path d="M373.451 360.49C372.849 360.205 372.13 360.463 371.845 361.065L367.207 370.882C366.923 371.484 367.18 372.203 367.783 372.488C368.385 372.772 369.104 372.515 369.389 371.912L373.511 363.187L382.237 367.309C382.839 367.594 383.558 367.336 383.843 366.734C384.127 366.131 383.87 365.412 383.267 365.128L373.451 360.49ZM402.459 446.511C403.061 446.795 403.78 446.538 404.065 445.935L408.703 436.119C408.987 435.516 408.73 434.797 408.127 434.513C407.525 434.228 406.806 434.486 406.521 435.088L402.399 443.814L393.673 439.692C393.071 439.407 392.352 439.665 392.067 440.267C391.782 440.869 392.04 441.588 392.642 441.873L402.459 446.511ZM371.8 361.987L401.839 445.827L404.11 445.013L374.071 361.174L371.8 361.987Z" fill="#82917F"/>
</svg>
