<svg width="517" height="601" viewBox="0 0 517 601" fill="none" xmlns="http://www.w3.org/2000/svg">
<rect x="38.2804" y="112.383" width="440.439" height="451" rx="74.5" stroke="#A7B8A4"/>
<path d="M227.139 42L223.919 32.2H225.501L227.923 39.746H227.503L229.869 32.2H230.989L233.355 39.746H232.935L235.357 32.2H236.939L233.719 42H232.599L230.219 34.468H230.639L228.259 42H227.139ZM240.3 42.14C239.628 42.14 239.022 41.9907 238.48 41.692C237.948 41.384 237.524 40.964 237.206 40.432C236.898 39.9 236.744 39.3027 236.744 38.64C236.744 37.9773 236.898 37.3847 237.206 36.862C237.514 36.33 237.93 35.91 238.452 35.602C238.984 35.294 239.572 35.14 240.216 35.14C240.842 35.14 241.392 35.2847 241.868 35.574C242.354 35.8633 242.732 36.26 243.002 36.764C243.282 37.268 243.422 37.842 243.422 38.486C243.422 38.598 243.413 38.7147 243.394 38.836C243.385 38.948 243.366 39.074 243.338 39.214H237.822V37.954H242.54L241.966 38.458C241.948 38.0473 241.868 37.702 241.728 37.422C241.588 37.142 241.388 36.9273 241.126 36.778C240.874 36.6287 240.562 36.554 240.188 36.554C239.796 36.554 239.456 36.638 239.166 36.806C238.877 36.974 238.653 37.212 238.494 37.52C238.336 37.8187 238.256 38.178 238.256 38.598C238.256 39.018 238.34 39.3867 238.508 39.704C238.676 40.0213 238.914 40.2687 239.222 40.446C239.53 40.614 239.885 40.698 240.286 40.698C240.632 40.698 240.949 40.6373 241.238 40.516C241.537 40.3947 241.789 40.2173 241.994 39.984L242.974 40.978C242.648 41.3607 242.251 41.65 241.784 41.846C241.318 42.042 240.823 42.14 240.3 42.14ZM248.255 42.14C247.741 42.14 247.284 42.0327 246.883 41.818C246.481 41.594 246.164 41.2907 245.931 40.908C245.707 40.5253 245.595 40.0913 245.595 39.606V37.674C245.595 37.1887 245.711 36.7547 245.945 36.372C246.178 35.9893 246.495 35.6907 246.897 35.476C247.298 35.252 247.751 35.14 248.255 35.14C248.861 35.14 249.407 35.2987 249.893 35.616C250.387 35.924 250.775 36.344 251.055 36.876C251.344 37.3987 251.489 37.9913 251.489 38.654C251.489 39.3073 251.344 39.9 251.055 40.432C250.775 40.9547 250.387 41.37 249.893 41.678C249.407 41.986 248.861 42.14 248.255 42.14ZM248.003 40.684C248.376 40.684 248.703 40.6 248.983 40.432C249.272 40.2547 249.496 40.012 249.655 39.704C249.823 39.396 249.907 39.0413 249.907 38.64C249.907 38.2387 249.823 37.884 249.655 37.576C249.496 37.268 249.272 37.03 248.983 36.862C248.703 36.6847 248.376 36.596 248.003 36.596C247.629 36.596 247.298 36.6847 247.009 36.862C246.719 37.03 246.495 37.268 246.337 37.576C246.178 37.884 246.099 38.2387 246.099 38.64C246.099 39.0413 246.178 39.396 246.337 39.704C246.495 40.012 246.719 40.2547 247.009 40.432C247.298 40.6 247.629 40.684 248.003 40.684ZM244.657 42V31.92H246.197V36.932L245.931 38.556L246.197 40.194V42H244.657ZM256.603 42V32.48H258.143V42H256.603ZM254.993 36.68V35.28H259.753V36.68H254.993ZM260.872 42V35.28H262.412V42H260.872ZM262.412 38.262L261.88 37.996C261.88 37.1467 262.066 36.4607 262.44 35.938C262.822 35.406 263.396 35.14 264.162 35.14C264.498 35.14 264.801 35.2007 265.072 35.322C265.342 35.4433 265.594 35.6393 265.828 35.91L264.82 36.946C264.698 36.8153 264.563 36.722 264.414 36.666C264.264 36.61 264.092 36.582 263.896 36.582C263.466 36.582 263.112 36.7173 262.832 36.988C262.552 37.2587 262.412 37.6833 262.412 38.262ZM269.182 42.14C268.575 42.14 268.024 41.986 267.53 41.678C267.044 41.37 266.657 40.9547 266.368 40.432C266.088 39.9 265.948 39.3073 265.948 38.654C265.948 37.9913 266.088 37.3987 266.368 36.876C266.657 36.344 267.044 35.924 267.53 35.616C268.024 35.2987 268.575 35.14 269.182 35.14C269.695 35.14 270.148 35.252 270.54 35.476C270.941 35.6907 271.258 35.9893 271.492 36.372C271.725 36.7547 271.842 37.1887 271.842 37.674V39.606C271.842 40.0913 271.725 40.5253 271.492 40.908C271.268 41.2907 270.955 41.594 270.554 41.818C270.152 42.0327 269.695 42.14 269.182 42.14ZM269.434 40.684C270.003 40.684 270.46 40.4927 270.806 40.11C271.16 39.7273 271.338 39.2373 271.338 38.64C271.338 38.2387 271.258 37.884 271.1 37.576C270.941 37.268 270.717 37.03 270.428 36.862C270.148 36.6847 269.816 36.596 269.434 36.596C269.06 36.596 268.729 36.6847 268.44 36.862C268.16 37.03 267.936 37.268 267.768 37.576C267.609 37.884 267.53 38.2387 267.53 38.64C267.53 39.0413 267.609 39.396 267.768 39.704C267.936 40.012 268.16 40.2547 268.44 40.432C268.729 40.6 269.06 40.684 269.434 40.684ZM271.24 42V40.194L271.506 38.556L271.24 36.932V35.28H272.78V42H271.24ZM275.413 42V34.706C275.413 34.1647 275.529 33.6887 275.763 33.278C275.996 32.858 276.323 32.5267 276.743 32.284C277.172 32.0413 277.662 31.92 278.213 31.92C278.773 31.92 279.225 32.0413 279.571 32.284C279.925 32.5267 280.182 32.858 280.341 33.278C280.509 33.6887 280.593 34.1647 280.593 34.706L279.473 34.692C279.473 34.2627 279.365 33.9267 279.151 33.684C278.945 33.4413 278.633 33.32 278.213 33.32C277.793 33.32 277.475 33.4413 277.261 33.684C277.055 33.9173 276.953 34.2393 276.953 34.65V42H275.413ZM273.803 36.68V35.28H283.043V36.68H273.803ZM279.473 42V34.398C279.473 33.8847 279.585 33.432 279.809 33.04C280.042 32.648 280.359 32.34 280.761 32.116C281.171 31.892 281.643 31.78 282.175 31.78C282.585 31.78 282.935 31.85 283.225 31.99C283.514 32.13 283.785 32.3307 284.037 32.592L283.043 33.586C282.931 33.474 282.809 33.3853 282.679 33.32C282.548 33.2547 282.38 33.222 282.175 33.222C281.801 33.222 281.512 33.3247 281.307 33.53C281.111 33.726 281.013 34.0107 281.013 34.384V42H279.473ZM284.21 42V35.28H285.75V42H284.21ZM284.98 34.048C284.718 34.048 284.499 33.9593 284.322 33.782C284.154 33.6047 284.07 33.3853 284.07 33.124C284.07 32.8627 284.154 32.6433 284.322 32.466C284.499 32.2887 284.718 32.2 284.98 32.2C285.25 32.2 285.47 32.2887 285.638 32.466C285.806 32.6433 285.89 32.8627 285.89 33.124C285.89 33.3853 285.806 33.6047 285.638 33.782C285.47 33.9593 285.25 34.048 284.98 34.048ZM290.571 42.14C289.908 42.14 289.306 41.986 288.765 41.678C288.233 41.37 287.813 40.95 287.505 40.418C287.197 39.886 287.043 39.2933 287.043 38.64C287.043 37.9773 287.197 37.3847 287.505 36.862C287.813 36.33 288.233 35.91 288.765 35.602C289.306 35.294 289.908 35.14 290.571 35.14C291.094 35.14 291.579 35.2427 292.027 35.448C292.484 35.644 292.872 35.9287 293.189 36.302L292.181 37.324C291.985 37.0907 291.747 36.918 291.467 36.806C291.196 36.6847 290.898 36.624 290.571 36.624C290.188 36.624 289.848 36.7127 289.549 36.89C289.26 37.058 289.031 37.2913 288.863 37.59C288.704 37.8887 288.625 38.2387 288.625 38.64C288.625 39.032 288.704 39.382 288.863 39.69C289.031 39.9887 289.26 40.2267 289.549 40.404C289.848 40.572 290.188 40.656 290.571 40.656C290.898 40.656 291.196 40.6 291.467 40.488C291.747 40.3667 291.985 40.1893 292.181 39.956L293.189 40.978C292.872 41.3513 292.484 41.6407 292.027 41.846C291.579 42.042 291.094 42.14 290.571 42.14Z" fill="black"/>
<path d="M198.628 551.729C198.02 551.729 197.456 551.621 196.936 551.405C196.424 551.181 195.976 550.873 195.592 550.481C195.208 550.081 194.912 549.621 194.704 549.101C194.496 548.573 194.392 548.009 194.392 547.409C194.392 546.809 194.496 546.249 194.704 545.729C194.912 545.201 195.208 544.741 195.592 544.349C195.976 543.957 196.424 543.649 196.936 543.425C197.456 543.201 198.02 543.089 198.628 543.089C199.308 543.089 199.896 543.201 200.392 543.425C200.888 543.649 201.328 543.953 201.712 544.337L200.776 545.273C200.528 545.001 200.224 544.789 199.864 544.637C199.512 544.485 199.1 544.409 198.628 544.409C198.212 544.409 197.832 544.481 197.488 544.625C197.144 544.769 196.844 544.977 196.588 545.249C196.34 545.513 196.148 545.829 196.012 546.197C195.876 546.565 195.808 546.969 195.808 547.409C195.808 547.849 195.876 548.253 196.012 548.621C196.148 548.989 196.34 549.309 196.588 549.581C196.844 549.845 197.144 550.049 197.488 550.193C197.832 550.337 198.212 550.409 198.628 550.409C199.14 550.409 199.572 550.333 199.924 550.181C200.284 550.021 200.588 549.805 200.836 549.533L201.772 550.469C201.388 550.861 200.936 551.169 200.416 551.393C199.896 551.617 199.3 551.729 198.628 551.729ZM205.3 551.729C204.74 551.729 204.232 551.597 203.776 551.333C203.32 551.061 202.956 550.697 202.684 550.241C202.42 549.785 202.288 549.277 202.288 548.717C202.288 548.157 202.42 547.653 202.684 547.205C202.956 546.757 203.32 546.401 203.776 546.137C204.232 545.865 204.74 545.729 205.3 545.729C205.868 545.729 206.38 545.861 206.836 546.125C207.292 546.389 207.652 546.749 207.916 547.205C208.188 547.653 208.324 548.157 208.324 548.717C208.324 549.277 208.188 549.785 207.916 550.241C207.652 550.697 207.292 551.061 206.836 551.333C206.38 551.597 205.868 551.729 205.3 551.729ZM205.3 550.457C205.628 550.457 205.916 550.385 206.164 550.241C206.42 550.089 206.616 549.881 206.752 549.617C206.896 549.353 206.968 549.053 206.968 548.717C206.968 548.381 206.896 548.085 206.752 547.829C206.608 547.573 206.412 547.373 206.164 547.229C205.916 547.077 205.628 547.001 205.3 547.001C204.98 547.001 204.692 547.077 204.436 547.229C204.188 547.373 203.992 547.573 203.848 547.829C203.712 548.085 203.644 548.381 203.644 548.717C203.644 549.053 203.712 549.353 203.848 549.617C203.992 549.881 204.188 550.089 204.436 550.241C204.692 550.385 204.98 550.457 205.3 550.457ZM209.421 551.609V545.849H210.741V551.609H209.421ZM213.249 551.609V548.177C213.249 547.793 213.129 547.497 212.889 547.289C212.649 547.073 212.353 546.965 212.001 546.965C211.761 546.965 211.545 547.013 211.353 547.109C211.169 547.205 211.021 547.345 210.909 547.529C210.797 547.705 210.741 547.921 210.741 548.177L210.225 547.889C210.225 547.449 210.321 547.069 210.513 546.749C210.705 546.429 210.965 546.181 211.293 546.005C211.621 545.821 211.989 545.729 212.397 545.729C212.805 545.729 213.173 545.817 213.501 545.993C213.829 546.169 214.089 546.417 214.281 546.737C214.473 547.057 214.569 547.441 214.569 547.889V551.609H213.249ZM217.077 551.609V548.177C217.077 547.793 216.957 547.497 216.717 547.289C216.477 547.073 216.181 546.965 215.829 546.965C215.597 546.965 215.385 547.013 215.193 547.109C215.001 547.205 214.849 547.345 214.737 547.529C214.625 547.705 214.569 547.921 214.569 548.177L213.825 547.889C213.865 547.449 213.993 547.069 214.209 546.749C214.425 546.429 214.701 546.181 215.037 546.005C215.381 545.821 215.757 545.729 216.165 545.729C216.581 545.729 216.957 545.817 217.293 545.993C217.629 546.169 217.897 546.417 218.097 546.737C218.297 547.057 218.397 547.441 218.397 547.889V551.609H217.077ZM222.841 551.729C222.401 551.729 222.009 551.637 221.665 551.453C221.321 551.261 221.049 551.001 220.849 550.673C220.657 550.345 220.561 549.973 220.561 549.557V547.901C220.561 547.485 220.661 547.113 220.861 546.785C221.061 546.457 221.333 546.201 221.677 546.017C222.021 545.825 222.409 545.729 222.841 545.729C223.361 545.729 223.829 545.865 224.245 546.137C224.669 546.401 225.001 546.761 225.241 547.217C225.489 547.665 225.613 548.173 225.613 548.741C225.613 549.301 225.489 549.809 225.241 550.265C225.001 550.713 224.669 551.069 224.245 551.333C223.829 551.597 223.361 551.729 222.841 551.729ZM222.625 550.481C222.945 550.481 223.225 550.409 223.465 550.265C223.713 550.113 223.905 549.905 224.041 549.641C224.185 549.377 224.257 549.073 224.257 548.729C224.257 548.385 224.185 548.081 224.041 547.817C223.905 547.553 223.713 547.349 223.465 547.205C223.225 547.053 222.945 546.977 222.625 546.977C222.305 546.977 222.021 547.053 221.773 547.205C221.525 547.349 221.333 547.553 221.197 547.817C221.061 548.081 220.993 548.385 220.993 548.729C220.993 549.073 221.061 549.377 221.197 549.641C221.333 549.905 221.525 550.113 221.773 550.265C222.021 550.409 222.305 550.481 222.625 550.481ZM219.757 554.009V545.849H221.077V547.397L220.849 548.801L221.077 550.193V554.009H219.757ZM229.082 551.729C228.594 551.729 228.158 551.621 227.774 551.405C227.398 551.189 227.102 550.893 226.886 550.517C226.678 550.133 226.574 549.693 226.574 549.197V545.849H227.894V549.137C227.894 549.417 227.938 549.657 228.026 549.857C228.122 550.049 228.258 550.197 228.434 550.301C228.618 550.405 228.834 550.457 229.082 550.457C229.466 550.457 229.758 550.345 229.958 550.121C230.166 549.889 230.27 549.561 230.27 549.137V545.849H231.59V549.197C231.59 549.701 231.482 550.145 231.266 550.529C231.058 550.905 230.766 551.201 230.39 551.417C230.014 551.625 229.578 551.729 229.082 551.729ZM233.794 551.609V543.449H235.114V551.609H233.794ZM232.414 547.049V545.849H236.494V547.049H232.414ZM239.965 551.729C239.389 551.729 238.869 551.601 238.405 551.345C237.949 551.081 237.585 550.721 237.313 550.265C237.049 549.809 236.917 549.297 236.917 548.729C236.917 548.161 237.049 547.653 237.313 547.205C237.577 546.749 237.933 546.389 238.381 546.125C238.837 545.861 239.341 545.729 239.893 545.729C240.429 545.729 240.901 545.853 241.309 546.101C241.725 546.349 242.049 546.689 242.281 547.121C242.521 547.553 242.641 548.045 242.641 548.597C242.641 548.693 242.633 548.793 242.617 548.897C242.609 548.993 242.593 549.101 242.569 549.221H237.841V548.141H241.885L241.393 548.573C241.377 548.221 241.309 547.925 241.189 547.685C241.069 547.445 240.897 547.261 240.673 547.133C240.457 547.005 240.189 546.941 239.869 546.941C239.533 546.941 239.241 547.013 238.993 547.157C238.745 547.301 238.553 547.505 238.417 547.769C238.281 548.025 238.213 548.333 238.213 548.693C238.213 549.053 238.285 549.369 238.429 549.641C238.573 549.913 238.777 550.125 239.041 550.277C239.305 550.421 239.609 550.493 239.953 550.493C240.249 550.493 240.521 550.441 240.769 550.337C241.025 550.233 241.241 550.081 241.417 549.881L242.257 550.733C241.977 551.061 241.637 551.309 241.237 551.477C240.837 551.645 240.413 551.729 239.965 551.729ZM247.695 551.729C247.087 551.729 246.523 551.621 246.003 551.405C245.491 551.181 245.043 550.873 244.659 550.481C244.275 550.081 243.979 549.621 243.771 549.101C243.563 548.573 243.459 548.009 243.459 547.409C243.459 546.809 243.563 546.249 243.771 545.729C243.979 545.201 244.275 544.741 244.659 544.349C245.043 543.957 245.491 543.649 246.003 543.425C246.523 543.201 247.087 543.089 247.695 543.089C248.375 543.089 248.963 543.201 249.459 543.425C249.955 543.649 250.395 543.953 250.779 544.337L249.843 545.273C249.595 545.001 249.291 544.789 248.931 544.637C248.579 544.485 248.167 544.409 247.695 544.409C247.279 544.409 246.899 544.481 246.555 544.625C246.211 544.769 245.911 544.977 245.655 545.249C245.407 545.513 245.215 545.829 245.079 546.197C244.943 546.565 244.875 546.969 244.875 547.409C244.875 547.849 244.943 548.253 245.079 548.621C245.215 548.989 245.407 549.309 245.655 549.581C245.911 549.845 246.211 550.049 246.555 550.193C246.899 550.337 247.279 550.409 247.695 550.409C248.207 550.409 248.639 550.333 248.991 550.181C249.351 550.021 249.655 549.805 249.903 549.533L250.839 550.469C250.455 550.861 250.003 551.169 249.483 551.393C248.963 551.617 248.367 551.729 247.695 551.729ZM254.138 551.729C253.618 551.729 253.146 551.597 252.722 551.333C252.306 551.069 251.974 550.713 251.726 550.265C251.486 549.809 251.366 549.301 251.366 548.741C251.366 548.173 251.486 547.665 251.726 547.217C251.974 546.761 252.306 546.401 252.722 546.137C253.146 545.865 253.618 545.729 254.138 545.729C254.578 545.729 254.966 545.825 255.302 546.017C255.646 546.201 255.918 546.457 256.118 546.785C256.318 547.113 256.418 547.485 256.418 547.901V549.557C256.418 549.973 256.318 550.345 256.118 550.673C255.926 551.001 255.658 551.261 255.314 551.453C254.97 551.637 254.578 551.729 254.138 551.729ZM254.354 550.481C254.842 550.481 255.234 550.317 255.53 549.989C255.834 549.661 255.986 549.241 255.986 548.729C255.986 548.385 255.918 548.081 255.782 547.817C255.646 547.553 255.454 547.349 255.206 547.205C254.966 547.053 254.682 546.977 254.354 546.977C254.034 546.977 253.75 547.053 253.502 547.205C253.262 547.349 253.07 547.553 252.926 547.817C252.79 548.081 252.722 548.385 252.722 548.729C252.722 549.073 252.79 549.377 252.926 549.641C253.07 549.905 253.262 550.113 253.502 550.265C253.75 550.409 254.034 550.481 254.354 550.481ZM255.902 551.609V550.061L256.13 548.657L255.902 547.265V545.849H257.222V551.609H255.902ZM262.635 551.609V548.285C262.635 547.901 262.511 547.585 262.263 547.337C262.023 547.089 261.711 546.965 261.327 546.965C261.071 546.965 260.843 547.021 260.643 547.133C260.443 547.245 260.287 547.401 260.175 547.601C260.063 547.801 260.007 548.029 260.007 548.285L259.491 547.997C259.491 547.557 259.587 547.169 259.779 546.833C259.971 546.489 260.235 546.221 260.571 546.029C260.915 545.829 261.299 545.729 261.723 545.729C262.155 545.729 262.539 545.841 262.875 546.065C263.211 546.281 263.475 546.565 263.667 546.917C263.859 547.261 263.955 547.621 263.955 547.997V551.609H262.635ZM258.687 551.609V545.849H260.007V551.609H258.687ZM267.708 551.729C267.188 551.729 266.716 551.597 266.292 551.333C265.876 551.069 265.544 550.713 265.296 550.265C265.056 549.809 264.936 549.301 264.936 548.741C264.936 548.173 265.056 547.665 265.296 547.217C265.544 546.761 265.876 546.401 266.292 546.137C266.716 545.865 267.188 545.729 267.708 545.729C268.148 545.729 268.536 545.825 268.872 546.017C269.216 546.201 269.488 546.457 269.688 546.785C269.888 547.113 269.988 547.485 269.988 547.901V549.557C269.988 549.973 269.888 550.345 269.688 550.673C269.496 551.001 269.228 551.261 268.884 551.453C268.54 551.637 268.148 551.729 267.708 551.729ZM267.924 550.481C268.412 550.481 268.804 550.317 269.1 549.989C269.404 549.661 269.556 549.241 269.556 548.729C269.556 548.385 269.488 548.081 269.352 547.817C269.216 547.553 269.024 547.349 268.776 547.205C268.536 547.053 268.252 546.977 267.924 546.977C267.604 546.977 267.32 547.053 267.072 547.205C266.832 547.349 266.64 547.553 266.496 547.817C266.36 548.081 266.292 548.385 266.292 548.729C266.292 549.073 266.36 549.377 266.496 549.641C266.64 549.905 266.832 550.113 267.072 550.265C267.32 550.409 267.604 550.481 267.924 550.481ZM269.472 551.609V550.061L269.7 548.657L269.472 547.265V545.849H270.792V551.609H269.472ZM274.669 551.729C274.149 551.729 273.677 551.597 273.253 551.333C272.837 551.069 272.505 550.713 272.257 550.265C272.017 549.809 271.897 549.301 271.897 548.741C271.897 548.173 272.017 547.665 272.257 547.217C272.505 546.761 272.837 546.401 273.253 546.137C273.677 545.865 274.149 545.729 274.669 545.729C275.109 545.729 275.497 545.825 275.833 546.017C276.177 546.201 276.449 546.457 276.649 546.785C276.849 547.113 276.949 547.485 276.949 547.901V549.557C276.949 549.973 276.849 550.345 276.649 550.673C276.457 551.001 276.189 551.261 275.845 551.453C275.501 551.637 275.109 551.729 274.669 551.729ZM274.885 550.481C275.213 550.481 275.497 550.409 275.737 550.265C275.985 550.113 276.177 549.905 276.313 549.641C276.449 549.377 276.517 549.073 276.517 548.729C276.517 548.385 276.449 548.081 276.313 547.817C276.177 547.553 275.985 547.349 275.737 547.205C275.497 547.053 275.217 546.977 274.897 546.977C274.569 546.977 274.281 547.053 274.033 547.205C273.793 547.349 273.601 547.553 273.457 547.817C273.321 548.081 273.253 548.385 273.253 548.729C273.253 549.073 273.321 549.377 273.457 549.641C273.601 549.905 273.793 550.113 274.033 550.265C274.281 550.409 274.565 550.481 274.885 550.481ZM277.753 551.609H276.433V550.061L276.661 548.657L276.433 547.265V542.969H277.753V551.609ZM281.63 551.729C281.11 551.729 280.638 551.597 280.214 551.333C279.798 551.069 279.466 550.713 279.218 550.265C278.978 549.809 278.858 549.301 278.858 548.741C278.858 548.173 278.978 547.665 279.218 547.217C279.466 546.761 279.798 546.401 280.214 546.137C280.638 545.865 281.11 545.729 281.63 545.729C282.07 545.729 282.458 545.825 282.794 546.017C283.138 546.201 283.41 546.457 283.61 546.785C283.81 547.113 283.91 547.485 283.91 547.901V549.557C283.91 549.973 283.81 550.345 283.61 550.673C283.418 551.001 283.15 551.261 282.806 551.453C282.462 551.637 282.07 551.729 281.63 551.729ZM281.846 550.481C282.334 550.481 282.726 550.317 283.022 549.989C283.326 549.661 283.478 549.241 283.478 548.729C283.478 548.385 283.41 548.081 283.274 547.817C283.138 547.553 282.946 547.349 282.698 547.205C282.458 547.053 282.174 546.977 281.846 546.977C281.526 546.977 281.242 547.053 280.994 547.205C280.754 547.349 280.562 547.553 280.418 547.817C280.282 548.081 280.214 548.385 280.214 548.729C280.214 549.073 280.282 549.377 280.418 549.641C280.562 549.905 280.754 550.113 280.994 550.265C281.242 550.409 281.526 550.481 281.846 550.481ZM283.394 551.609V550.061L283.622 548.657L283.394 547.265V545.849H284.714V551.609H283.394ZM291.102 551.729C290.438 551.729 289.874 551.609 289.41 551.369C288.946 551.129 288.53 550.777 288.162 550.313L289.098 549.377C289.33 549.713 289.606 549.977 289.926 550.169C290.246 550.353 290.654 550.445 291.15 550.445C291.614 550.445 291.982 550.349 292.254 550.157C292.534 549.965 292.674 549.701 292.674 549.365C292.674 549.085 292.602 548.857 292.458 548.681C292.314 548.505 292.122 548.361 291.882 548.249C291.65 548.129 291.39 548.025 291.102 547.937C290.822 547.841 290.538 547.737 290.25 547.625C289.97 547.505 289.71 547.357 289.47 547.181C289.238 547.005 289.05 546.777 288.906 546.497C288.762 546.217 288.69 545.861 288.69 545.429C288.69 544.933 288.81 544.513 289.05 544.169C289.298 543.817 289.63 543.549 290.046 543.365C290.462 543.181 290.926 543.089 291.438 543.089C291.99 543.089 292.482 543.197 292.914 543.413C293.354 543.629 293.71 543.905 293.982 544.241L293.046 545.177C292.806 544.905 292.554 544.705 292.29 544.577C292.034 544.441 291.738 544.373 291.402 544.373C290.986 544.373 290.658 544.457 290.418 544.625C290.186 544.793 290.07 545.029 290.07 545.333C290.07 545.589 290.142 545.797 290.286 545.957C290.43 546.109 290.618 546.241 290.85 546.353C291.09 546.457 291.35 546.557 291.63 546.653C291.918 546.749 292.202 546.857 292.482 546.977C292.77 547.097 293.03 547.253 293.262 547.445C293.502 547.629 293.694 547.869 293.838 548.165C293.982 548.461 294.054 548.833 294.054 549.281C294.054 550.033 293.786 550.629 293.25 551.069C292.722 551.509 292.006 551.729 291.102 551.729ZM297.855 551.729C297.279 551.729 296.759 551.601 296.295 551.345C295.839 551.081 295.475 550.721 295.203 550.265C294.939 549.809 294.807 549.297 294.807 548.729C294.807 548.161 294.939 547.653 295.203 547.205C295.467 546.749 295.823 546.389 296.271 546.125C296.727 545.861 297.231 545.729 297.783 545.729C298.319 545.729 298.791 545.853 299.199 546.101C299.615 546.349 299.939 546.689 300.171 547.121C300.411 547.553 300.531 548.045 300.531 548.597C300.531 548.693 300.523 548.793 300.507 548.897C300.499 548.993 300.483 549.101 300.459 549.221H295.731V548.141H299.775L299.283 548.573C299.267 548.221 299.199 547.925 299.079 547.685C298.959 547.445 298.787 547.261 298.563 547.133C298.347 547.005 298.079 546.941 297.759 546.941C297.423 546.941 297.131 547.013 296.883 547.157C296.635 547.301 296.443 547.505 296.307 547.769C296.171 548.025 296.103 548.333 296.103 548.693C296.103 549.053 296.175 549.369 296.319 549.641C296.463 549.913 296.667 550.125 296.931 550.277C297.195 550.421 297.499 550.493 297.843 550.493C298.139 550.493 298.411 550.441 298.659 550.337C298.915 550.233 299.131 550.081 299.307 549.881L300.147 550.733C299.867 551.061 299.527 551.309 299.127 551.477C298.727 551.645 298.303 551.729 297.855 551.729ZM301.589 551.609V545.849H302.909V551.609H301.589ZM302.909 548.405L302.453 548.177C302.453 547.449 302.613 546.861 302.933 546.413C303.261 545.957 303.753 545.729 304.409 545.729C304.697 545.729 304.957 545.781 305.189 545.885C305.421 545.989 305.637 546.157 305.837 546.389L304.973 547.277C304.869 547.165 304.753 547.085 304.625 547.037C304.497 546.989 304.349 546.965 304.181 546.965C303.813 546.965 303.509 547.081 303.269 547.313C303.029 547.545 302.909 547.909 302.909 548.405ZM308.338 551.609L305.71 545.849H307.174L309.178 550.541H308.314L310.33 545.849H311.734L309.106 551.609H308.338ZM315 551.729C314.424 551.729 313.904 551.601 313.44 551.345C312.984 551.081 312.62 550.721 312.348 550.265C312.084 549.809 311.952 549.297 311.952 548.729C311.952 548.161 312.084 547.653 312.348 547.205C312.612 546.749 312.968 546.389 313.416 546.125C313.872 545.861 314.376 545.729 314.928 545.729C315.464 545.729 315.936 545.853 316.344 546.101C316.76 546.349 317.084 546.689 317.316 547.121C317.556 547.553 317.676 548.045 317.676 548.597C317.676 548.693 317.668 548.793 317.652 548.897C317.644 548.993 317.628 549.101 317.604 549.221H312.876V548.141H316.92L316.428 548.573C316.412 548.221 316.344 547.925 316.224 547.685C316.104 547.445 315.932 547.261 315.708 547.133C315.492 547.005 315.224 546.941 314.904 546.941C314.568 546.941 314.276 547.013 314.028 547.157C313.78 547.301 313.588 547.505 313.452 547.769C313.316 548.025 313.248 548.333 313.248 548.693C313.248 549.053 313.32 549.369 313.464 549.641C313.608 549.913 313.812 550.125 314.076 550.277C314.34 550.421 314.644 550.493 314.988 550.493C315.284 550.493 315.556 550.441 315.804 550.337C316.06 550.233 316.276 550.081 316.452 549.881L317.292 550.733C317.012 551.061 316.672 551.309 316.272 551.477C315.872 551.645 315.448 551.729 315 551.729ZM318.734 551.609V545.849H320.054V551.609H318.734ZM320.054 548.405L319.598 548.177C319.598 547.449 319.758 546.861 320.078 546.413C320.406 545.957 320.898 545.729 321.554 545.729C321.842 545.729 322.102 545.781 322.334 545.885C322.566 545.989 322.782 546.157 322.982 546.389L322.118 547.277C322.014 547.165 321.898 547.085 321.77 547.037C321.642 546.989 321.494 546.965 321.326 546.965C320.958 546.965 320.654 547.081 320.414 547.313C320.174 547.545 320.054 547.909 320.054 548.405Z" fill="#A7B8A4"/>
<rect x="83.5" y="371.238" width="150" height="150" rx="44" fill="#F7F8F7"/>
<path d="M124.17 452.418C123.174 452.418 122.328 452.238 121.632 451.878C120.936 451.518 120.312 450.99 119.76 450.294L121.164 448.89C121.512 449.394 121.926 449.79 122.406 450.078C122.886 450.354 123.498 450.492 124.242 450.492C124.938 450.492 125.49 450.348 125.898 450.06C126.318 449.772 126.528 449.376 126.528 448.872C126.528 448.452 126.42 448.11 126.204 447.846C125.988 447.582 125.7 447.366 125.34 447.198C124.992 447.018 124.602 446.862 124.17 446.73C123.75 446.586 123.324 446.43 122.892 446.262C122.472 446.082 122.082 445.86 121.722 445.596C121.374 445.332 121.092 444.99 120.876 444.57C120.66 444.15 120.552 443.616 120.552 442.968C120.552 442.224 120.732 441.594 121.092 441.078C121.464 440.55 121.962 440.148 122.586 439.872C123.21 439.596 123.906 439.458 124.674 439.458C125.502 439.458 126.24 439.62 126.888 439.944C127.548 440.268 128.082 440.682 128.49 441.186L127.086 442.59C126.726 442.182 126.348 441.882 125.952 441.69C125.568 441.486 125.124 441.384 124.62 441.384C123.996 441.384 123.504 441.51 123.144 441.762C122.796 442.014 122.622 442.368 122.622 442.824C122.622 443.208 122.73 443.52 122.946 443.76C123.162 443.988 123.444 444.186 123.792 444.354C124.152 444.51 124.542 444.66 124.962 444.804C125.394 444.948 125.82 445.11 126.24 445.29C126.672 445.47 127.062 445.704 127.41 445.992C127.77 446.268 128.058 446.628 128.274 447.072C128.49 447.516 128.598 448.074 128.598 448.746C128.598 449.874 128.196 450.768 127.392 451.428C126.6 452.088 125.526 452.418 124.17 452.418ZM133.938 452.418C133.206 452.418 132.552 452.256 131.976 451.932C131.412 451.608 130.968 451.164 130.644 450.6C130.332 450.024 130.176 449.364 130.176 448.62V443.598H132.156V448.53C132.156 448.95 132.222 449.31 132.354 449.61C132.498 449.898 132.702 450.12 132.966 450.276C133.242 450.432 133.566 450.51 133.938 450.51C134.514 450.51 134.952 450.342 135.252 450.006C135.564 449.658 135.72 449.166 135.72 448.53V443.598H137.7V448.62C137.7 449.376 137.538 450.042 137.214 450.618C136.902 451.182 136.464 451.626 135.9 451.95C135.336 452.262 134.682 452.418 133.938 452.418ZM144.317 452.418C143.657 452.418 143.069 452.28 142.553 452.004C142.037 451.716 141.629 451.326 141.329 450.834C141.041 450.342 140.897 449.784 140.897 449.16V446.676C140.897 446.052 141.047 445.494 141.347 445.002C141.647 444.51 142.055 444.126 142.571 443.85C143.087 443.562 143.669 443.418 144.317 443.418C145.097 443.418 145.799 443.622 146.423 444.03C147.059 444.426 147.557 444.966 147.917 445.65C148.289 446.322 148.475 447.084 148.475 447.936C148.475 448.776 148.289 449.538 147.917 450.222C147.557 450.894 147.059 451.428 146.423 451.824C145.799 452.22 145.097 452.418 144.317 452.418ZM143.993 450.546C144.473 450.546 144.893 450.438 145.253 450.222C145.625 449.994 145.913 449.682 146.117 449.286C146.333 448.89 146.441 448.434 146.441 447.918C146.441 447.402 146.333 446.946 146.117 446.55C145.913 446.154 145.625 445.848 145.253 445.632C144.893 445.404 144.473 445.29 143.993 445.29C143.513 445.29 143.087 445.404 142.715 445.632C142.343 445.848 142.055 446.154 141.851 446.55C141.647 446.946 141.545 447.402 141.545 447.918C141.545 448.434 141.647 448.89 141.851 449.286C142.055 449.682 142.343 449.994 142.715 450.222C143.087 450.438 143.513 450.546 143.993 450.546ZM139.691 455.838V443.598H141.671V445.92L141.329 448.026L141.671 450.114V455.838H139.691ZM153.75 452.418C152.97 452.418 152.262 452.22 151.626 451.824C151.002 451.428 150.504 450.894 150.132 450.222C149.772 449.538 149.592 448.776 149.592 447.936C149.592 447.084 149.772 446.322 150.132 445.65C150.504 444.966 151.002 444.426 151.626 444.03C152.262 443.622 152.97 443.418 153.75 443.418C154.41 443.418 154.992 443.562 155.496 443.85C156.012 444.126 156.42 444.51 156.72 445.002C157.02 445.494 157.17 446.052 157.17 446.676V449.16C157.17 449.784 157.02 450.342 156.72 450.834C156.432 451.326 156.03 451.716 155.514 452.004C154.998 452.28 154.41 452.418 153.75 452.418ZM154.074 450.546C154.806 450.546 155.394 450.3 155.838 449.808C156.294 449.316 156.522 448.686 156.522 447.918C156.522 447.402 156.42 446.946 156.216 446.55C156.012 446.154 155.724 445.848 155.352 445.632C154.992 445.404 154.566 445.29 154.074 445.29C153.594 445.29 153.168 445.404 152.796 445.632C152.436 445.848 152.148 446.154 151.932 446.55C151.728 446.946 151.626 447.402 151.626 447.918C151.626 448.434 151.728 448.89 151.932 449.286C152.148 449.682 152.436 449.994 152.796 450.222C153.168 450.438 153.594 450.546 154.074 450.546ZM156.396 452.238V449.916L156.738 447.81L156.396 445.722V443.598H158.376V452.238H156.396ZM165.2 452.418C164.54 452.418 163.952 452.28 163.436 452.004C162.92 451.716 162.512 451.326 162.212 450.834C161.924 450.342 161.78 449.784 161.78 449.16V446.676C161.78 446.052 161.93 445.494 162.23 445.002C162.53 444.51 162.938 444.126 163.454 443.85C163.97 443.562 164.552 443.418 165.2 443.418C165.98 443.418 166.682 443.622 167.306 444.03C167.942 444.426 168.44 444.966 168.8 445.65C169.172 446.322 169.358 447.084 169.358 447.936C169.358 448.776 169.172 449.538 168.8 450.222C168.44 450.894 167.942 451.428 167.306 451.824C166.682 452.22 165.98 452.418 165.2 452.418ZM164.876 450.546C165.356 450.546 165.776 450.438 166.136 450.222C166.508 449.994 166.796 449.682 167 449.286C167.216 448.89 167.324 448.434 167.324 447.918C167.324 447.402 167.216 446.946 167 446.55C166.796 446.154 166.508 445.848 166.136 445.632C165.776 445.404 165.356 445.29 164.876 445.29C164.396 445.29 163.97 445.404 163.598 445.632C163.226 445.848 162.938 446.154 162.734 446.55C162.53 446.946 162.428 447.402 162.428 447.918C162.428 448.434 162.53 448.89 162.734 449.286C162.938 449.682 163.226 449.994 163.598 450.222C163.97 450.438 164.396 450.546 164.876 450.546ZM160.574 452.238V439.278H162.554V445.722L162.212 447.81L162.554 449.916V452.238H160.574ZM174.633 452.418C173.853 452.418 173.145 452.22 172.509 451.824C171.885 451.428 171.387 450.894 171.015 450.222C170.655 449.538 170.475 448.776 170.475 447.936C170.475 447.084 170.655 446.322 171.015 445.65C171.387 444.966 171.885 444.426 172.509 444.03C173.145 443.622 173.853 443.418 174.633 443.418C175.293 443.418 175.875 443.562 176.379 443.85C176.895 444.126 177.303 444.51 177.603 445.002C177.903 445.494 178.053 446.052 178.053 446.676V449.16C178.053 449.784 177.903 450.342 177.603 450.834C177.315 451.326 176.913 451.716 176.397 452.004C175.881 452.28 175.293 452.418 174.633 452.418ZM174.957 450.546C175.689 450.546 176.277 450.3 176.721 449.808C177.177 449.316 177.405 448.686 177.405 447.918C177.405 447.402 177.303 446.946 177.099 446.55C176.895 446.154 176.607 445.848 176.235 445.632C175.875 445.404 175.449 445.29 174.957 445.29C174.477 445.29 174.051 445.404 173.679 445.632C173.319 445.848 173.031 446.154 172.815 446.55C172.611 446.946 172.509 447.402 172.509 447.918C172.509 448.434 172.611 448.89 172.815 449.286C173.031 449.682 173.319 449.994 173.679 450.222C174.051 450.438 174.477 450.546 174.957 450.546ZM177.279 452.238V449.916L177.621 447.81L177.279 445.722V443.598H179.259V452.238H177.279ZM184.282 452.418C183.802 452.418 183.34 452.358 182.896 452.238C182.452 452.106 182.044 451.926 181.672 451.698C181.3 451.458 180.976 451.17 180.7 450.834L181.96 449.574C182.26 449.922 182.602 450.186 182.986 450.366C183.382 450.534 183.826 450.618 184.318 450.618C184.762 450.618 185.098 450.552 185.326 450.42C185.554 450.288 185.668 450.096 185.668 449.844C185.668 449.58 185.56 449.376 185.344 449.232C185.128 449.088 184.846 448.968 184.498 448.872C184.162 448.764 183.802 448.656 183.418 448.548C183.046 448.44 182.686 448.296 182.338 448.116C182.002 447.924 181.726 447.666 181.51 447.342C181.294 447.018 181.186 446.598 181.186 446.082C181.186 445.53 181.312 445.056 181.564 444.66C181.828 444.264 182.194 443.958 182.662 443.742C183.142 443.526 183.712 443.418 184.372 443.418C185.068 443.418 185.68 443.544 186.208 443.796C186.748 444.036 187.198 444.402 187.558 444.894L186.298 446.154C186.046 445.842 185.758 445.608 185.434 445.452C185.11 445.296 184.738 445.218 184.318 445.218C183.922 445.218 183.616 445.278 183.4 445.398C183.184 445.518 183.076 445.692 183.076 445.92C183.076 446.16 183.184 446.346 183.4 446.478C183.616 446.61 183.892 446.724 184.228 446.82C184.576 446.916 184.936 447.024 185.308 447.144C185.692 447.252 186.052 447.408 186.388 447.612C186.736 447.804 187.018 448.068 187.234 448.404C187.45 448.728 187.558 449.154 187.558 449.682C187.558 450.522 187.264 451.188 186.676 451.68C186.088 452.172 185.29 452.418 184.282 452.418ZM193.205 452.418C192.341 452.418 191.561 452.226 190.865 451.842C190.181 451.446 189.635 450.906 189.227 450.222C188.831 449.538 188.633 448.77 188.633 447.918C188.633 447.066 188.831 446.304 189.227 445.632C189.623 444.948 190.157 444.408 190.829 444.012C191.513 443.616 192.269 443.418 193.097 443.418C193.901 443.418 194.609 443.604 195.221 443.976C195.845 444.348 196.331 444.858 196.679 445.506C197.039 446.154 197.219 446.892 197.219 447.72C197.219 447.864 197.207 448.014 197.183 448.17C197.171 448.314 197.147 448.476 197.111 448.656H190.019V447.036H196.085L195.347 447.684C195.323 447.156 195.221 446.712 195.041 446.352C194.861 445.992 194.603 445.716 194.267 445.524C193.943 445.332 193.541 445.236 193.061 445.236C192.557 445.236 192.119 445.344 191.747 445.56C191.375 445.776 191.087 446.082 190.883 446.478C190.679 446.862 190.577 447.324 190.577 447.864C190.577 448.404 190.685 448.878 190.901 449.286C191.117 449.694 191.423 450.012 191.819 450.24C192.215 450.456 192.671 450.564 193.187 450.564C193.631 450.564 194.039 450.486 194.411 450.33C194.795 450.174 195.119 449.946 195.383 449.646L196.643 450.924C196.223 451.416 195.713 451.788 195.113 452.04C194.513 452.292 193.877 452.418 193.205 452.418Z" fill="black"/>
<path d="M132.424 384.886L131.608 386.41L131.164 386.53C131.212 386.434 131.268 386.354 131.332 386.29C131.404 386.226 131.48 386.194 131.56 386.194C131.744 386.194 131.912 386.274 132.064 386.434C132.224 386.586 132.304 386.782 132.304 387.022C132.304 387.27 132.216 387.486 132.04 387.67C131.864 387.854 131.652 387.946 131.404 387.946C131.164 387.946 130.952 387.858 130.768 387.682C130.592 387.498 130.504 387.278 130.504 387.022C130.504 386.918 130.524 386.798 130.564 386.662C130.612 386.518 130.692 386.338 130.804 386.122L131.692 384.49L132.424 384.886ZM134.872 384.886L134.056 386.41L133.612 386.53C133.66 386.434 133.716 386.354 133.78 386.29C133.852 386.226 133.928 386.194 134.008 386.194C134.192 386.194 134.36 386.274 134.512 386.434C134.672 386.586 134.752 386.782 134.752 387.022C134.752 387.27 134.664 387.486 134.488 387.67C134.312 387.854 134.1 387.946 133.852 387.946C133.612 387.946 133.4 387.858 133.216 387.682C133.04 387.498 132.952 387.278 132.952 387.022C132.952 386.918 132.972 386.798 133.012 386.662C133.06 386.518 133.14 386.338 133.252 386.122L134.14 384.49L134.872 384.886ZM137.309 393.238V392.038H139.721C140.145 392.038 140.473 391.906 140.705 391.642C140.937 391.378 141.053 391.074 141.053 390.73C141.053 390.498 141.001 390.282 140.897 390.082C140.793 389.882 140.641 389.722 140.441 389.602C140.241 389.482 140.001 389.422 139.721 389.422H137.309V388.222H139.517C139.877 388.222 140.165 388.13 140.381 387.946C140.597 387.762 140.705 387.49 140.705 387.13C140.705 386.77 140.597 386.498 140.381 386.314C140.165 386.13 139.877 386.038 139.517 386.038H137.309V384.838H139.553C140.121 384.838 140.593 384.942 140.969 385.15C141.345 385.358 141.625 385.626 141.809 385.954C141.993 386.282 142.085 386.634 142.085 387.01C142.085 387.45 141.961 387.838 141.713 388.174C141.473 388.51 141.117 388.782 140.645 388.99L140.753 388.558C141.281 388.774 141.693 389.078 141.989 389.47C142.285 389.862 142.433 390.322 142.433 390.85C142.433 391.282 142.325 391.678 142.109 392.038C141.901 392.398 141.589 392.69 141.173 392.914C140.765 393.13 140.261 393.238 139.661 393.238H137.309ZM136.361 393.238V384.838H137.741V393.238H136.361ZM146.058 393.358C145.538 393.358 145.066 393.226 144.642 392.962C144.226 392.698 143.894 392.342 143.646 391.894C143.406 391.438 143.286 390.93 143.286 390.37C143.286 389.802 143.406 389.294 143.646 388.846C143.894 388.39 144.226 388.03 144.642 387.766C145.066 387.494 145.538 387.358 146.058 387.358C146.498 387.358 146.886 387.454 147.222 387.646C147.566 387.83 147.838 388.086 148.038 388.414C148.238 388.742 148.338 389.114 148.338 389.53V391.186C148.338 391.602 148.238 391.974 148.038 392.302C147.846 392.63 147.578 392.89 147.234 393.082C146.89 393.266 146.498 393.358 146.058 393.358ZM146.274 392.11C146.762 392.11 147.154 391.946 147.45 391.618C147.754 391.29 147.906 390.87 147.906 390.358C147.906 390.014 147.838 389.71 147.702 389.446C147.566 389.182 147.374 388.978 147.126 388.834C146.886 388.682 146.602 388.606 146.274 388.606C145.954 388.606 145.67 388.682 145.422 388.834C145.182 388.978 144.99 389.182 144.846 389.446C144.71 389.71 144.642 390.014 144.642 390.358C144.642 390.702 144.71 391.006 144.846 391.27C144.99 391.534 145.182 391.742 145.422 391.894C145.67 392.038 145.954 392.11 146.274 392.11ZM147.822 393.238V391.69L148.05 390.286L147.822 388.894V387.478H149.142V393.238H147.822ZM153.259 393.358C152.691 393.358 152.175 393.226 151.711 392.962C151.255 392.698 150.895 392.338 150.631 391.882C150.367 391.426 150.235 390.918 150.235 390.358C150.235 389.79 150.367 389.282 150.631 388.834C150.895 388.378 151.255 388.018 151.711 387.754C152.175 387.49 152.691 387.358 153.259 387.358C153.707 387.358 154.123 387.446 154.507 387.622C154.899 387.79 155.231 388.034 155.503 388.354L154.639 389.23C154.471 389.03 154.267 388.882 154.027 388.786C153.795 388.682 153.539 388.63 153.259 388.63C152.931 388.63 152.639 388.706 152.383 388.858C152.135 389.002 151.939 389.202 151.795 389.458C151.659 389.714 151.591 390.014 151.591 390.358C151.591 390.694 151.659 390.994 151.795 391.258C151.939 391.514 152.135 391.718 152.383 391.87C152.639 392.014 152.931 392.086 153.259 392.086C153.539 392.086 153.795 392.038 154.027 391.942C154.267 391.838 154.471 391.686 154.639 391.486L155.503 392.362C155.231 392.682 154.899 392.93 154.507 393.106C154.123 393.274 153.707 393.358 153.259 393.358ZM160.115 393.238L157.679 390.298L160.103 387.478H161.675L158.891 390.646L158.951 389.89L161.795 393.238H160.115ZM156.455 393.238V384.598H157.775V393.238H156.455ZM164.967 393.358C164.391 393.358 163.871 393.23 163.407 392.974C162.951 392.71 162.587 392.35 162.315 391.894C162.051 391.438 161.919 390.926 161.919 390.358C161.919 389.79 162.051 389.282 162.315 388.834C162.579 388.378 162.935 388.018 163.383 387.754C163.839 387.49 164.343 387.358 164.895 387.358C165.431 387.358 165.903 387.482 166.311 387.73C166.727 387.978 167.051 388.318 167.283 388.75C167.523 389.182 167.643 389.674 167.643 390.226C167.643 390.322 167.635 390.422 167.619 390.526C167.611 390.622 167.595 390.73 167.571 390.85H162.843V389.77H166.887L166.395 390.202C166.379 389.85 166.311 389.554 166.191 389.314C166.071 389.074 165.899 388.89 165.675 388.762C165.459 388.634 165.191 388.57 164.871 388.57C164.535 388.57 164.243 388.642 163.995 388.786C163.747 388.93 163.555 389.134 163.419 389.398C163.283 389.654 163.215 389.962 163.215 390.322C163.215 390.682 163.287 390.998 163.431 391.27C163.575 391.542 163.779 391.754 164.043 391.906C164.307 392.05 164.611 392.122 164.955 392.122C165.251 392.122 165.523 392.07 165.771 391.966C166.027 391.862 166.243 391.71 166.419 391.51L167.259 392.362C166.979 392.69 166.639 392.938 166.239 393.106C165.839 393.274 165.415 393.358 164.967 393.358ZM172.649 393.238V389.914C172.649 389.53 172.525 389.214 172.277 388.966C172.037 388.718 171.725 388.594 171.341 388.594C171.085 388.594 170.857 388.65 170.657 388.762C170.457 388.874 170.301 389.03 170.189 389.23C170.077 389.43 170.021 389.658 170.021 389.914L169.505 389.626C169.505 389.186 169.601 388.798 169.793 388.462C169.985 388.118 170.249 387.85 170.585 387.658C170.929 387.458 171.313 387.358 171.737 387.358C172.169 387.358 172.553 387.47 172.889 387.694C173.225 387.91 173.489 388.194 173.681 388.546C173.873 388.89 173.969 389.25 173.969 389.626V393.238H172.649ZM168.701 393.238V387.478H170.021V393.238H168.701ZM177.722 393.358C177.202 393.358 176.73 393.226 176.306 392.962C175.89 392.698 175.558 392.342 175.31 391.894C175.07 391.438 174.95 390.93 174.95 390.37C174.95 389.802 175.07 389.294 175.31 388.846C175.558 388.39 175.89 388.03 176.306 387.766C176.73 387.494 177.202 387.358 177.722 387.358C178.162 387.358 178.55 387.454 178.886 387.646C179.23 387.83 179.502 388.086 179.702 388.414C179.902 388.742 180.002 389.114 180.002 389.53V391.186C180.002 391.602 179.902 391.974 179.702 392.302C179.51 392.63 179.242 392.89 178.898 393.082C178.554 393.266 178.162 393.358 177.722 393.358ZM177.938 392.11C178.266 392.11 178.55 392.038 178.79 391.894C179.038 391.742 179.23 391.534 179.366 391.27C179.502 391.006 179.57 390.702 179.57 390.358C179.57 390.014 179.502 389.71 179.366 389.446C179.23 389.182 179.038 388.978 178.79 388.834C178.55 388.682 178.27 388.606 177.95 388.606C177.622 388.606 177.334 388.682 177.086 388.834C176.846 388.978 176.654 389.182 176.51 389.446C176.374 389.71 176.306 390.014 176.306 390.358C176.306 390.702 176.374 391.006 176.51 391.27C176.654 391.534 176.846 391.742 177.086 391.894C177.334 392.038 177.618 392.11 177.938 392.11ZM180.806 393.238H179.486V391.69L179.714 390.286L179.486 388.894V384.598H180.806V393.238ZM184.575 387.778L185.391 386.254L185.835 386.134C185.787 386.23 185.731 386.31 185.667 386.374C185.603 386.438 185.527 386.47 185.439 386.47C185.255 386.47 185.083 386.394 184.923 386.242C184.771 386.082 184.695 385.882 184.695 385.642C184.695 385.386 184.783 385.17 184.959 384.994C185.135 384.81 185.347 384.718 185.595 384.718C185.835 384.718 186.043 384.81 186.219 384.994C186.403 385.17 186.495 385.386 186.495 385.642C186.495 385.746 186.471 385.87 186.423 386.014C186.383 386.15 186.307 386.326 186.195 386.542L185.307 388.174L184.575 387.778ZM182.127 387.778L182.943 386.254L183.387 386.134C183.339 386.23 183.283 386.31 183.219 386.374C183.155 386.438 183.079 386.47 182.991 386.47C182.807 386.47 182.635 386.394 182.475 386.242C182.323 386.082 182.247 385.882 182.247 385.642C182.247 385.386 182.335 385.17 182.511 384.994C182.687 384.81 182.899 384.718 183.147 384.718C183.387 384.718 183.595 384.81 183.771 384.994C183.955 385.17 184.047 385.386 184.047 385.642C184.047 385.746 184.023 385.87 183.975 386.014C183.935 386.15 183.859 386.326 183.747 386.542L182.859 388.174L182.127 387.778ZM136.238 408.358C135.67 408.358 135.154 408.226 134.69 407.962C134.234 407.698 133.874 407.338 133.61 406.882C133.346 406.426 133.214 405.918 133.214 405.358C133.214 404.79 133.346 404.282 133.61 403.834C133.874 403.378 134.234 403.018 134.69 402.754C135.154 402.49 135.67 402.358 136.238 402.358C136.686 402.358 137.102 402.446 137.486 402.622C137.878 402.79 138.21 403.034 138.482 403.354L137.618 404.23C137.45 404.03 137.246 403.882 137.006 403.786C136.774 403.682 136.518 403.63 136.238 403.63C135.91 403.63 135.618 403.706 135.362 403.858C135.114 404.002 134.918 404.202 134.774 404.458C134.638 404.714 134.57 405.014 134.57 405.358C134.57 405.694 134.638 405.994 134.774 406.258C134.918 406.514 135.114 406.718 135.362 406.87C135.618 407.014 135.91 407.086 136.238 407.086C136.518 407.086 136.774 407.038 137.006 406.942C137.246 406.838 137.45 406.686 137.618 406.486L138.482 407.362C138.21 407.682 137.878 407.93 137.486 408.106C137.102 408.274 136.686 408.358 136.238 408.358ZM141.956 408.358C141.396 408.358 140.888 408.226 140.432 407.962C139.976 407.69 139.612 407.326 139.34 406.87C139.076 406.414 138.944 405.906 138.944 405.346C138.944 404.786 139.076 404.282 139.34 403.834C139.612 403.386 139.976 403.03 140.432 402.766C140.888 402.494 141.396 402.358 141.956 402.358C142.524 402.358 143.036 402.49 143.492 402.754C143.948 403.018 144.308 403.378 144.572 403.834C144.844 404.282 144.98 404.786 144.98 405.346C144.98 405.906 144.844 406.414 144.572 406.87C144.308 407.326 143.948 407.69 143.492 407.962C143.036 408.226 142.524 408.358 141.956 408.358ZM141.956 407.086C142.284 407.086 142.572 407.014 142.82 406.87C143.076 406.718 143.272 406.51 143.408 406.246C143.552 405.982 143.624 405.682 143.624 405.346C143.624 405.01 143.552 404.714 143.408 404.458C143.264 404.202 143.068 404.002 142.82 403.858C142.572 403.706 142.284 403.63 141.956 403.63C141.636 403.63 141.348 403.706 141.092 403.858C140.844 404.002 140.648 404.202 140.504 404.458C140.368 404.714 140.3 405.01 140.3 405.346C140.3 405.682 140.368 405.982 140.504 406.246C140.648 406.51 140.844 406.718 141.092 406.87C141.348 407.014 141.636 407.086 141.956 407.086ZM150.026 408.238V404.914C150.026 404.53 149.902 404.214 149.654 403.966C149.414 403.718 149.102 403.594 148.718 403.594C148.462 403.594 148.234 403.65 148.034 403.762C147.834 403.874 147.678 404.03 147.566 404.23C147.454 404.43 147.398 404.658 147.398 404.914L146.882 404.626C146.882 404.186 146.978 403.798 147.17 403.462C147.362 403.118 147.626 402.85 147.962 402.658C148.306 402.458 148.69 402.358 149.114 402.358C149.546 402.358 149.93 402.47 150.266 402.694C150.602 402.91 150.866 403.194 151.058 403.546C151.25 403.89 151.346 404.25 151.346 404.626V408.238H150.026ZM146.078 408.238V402.478H147.398V408.238H146.078ZM153.493 408.238V400.078H154.813V408.238H153.493ZM152.113 403.678V402.478H156.193V403.678H152.113ZM159.4 408.358C158.88 408.358 158.408 408.226 157.984 407.962C157.568 407.698 157.236 407.342 156.988 406.894C156.748 406.438 156.628 405.93 156.628 405.37C156.628 404.802 156.748 404.294 156.988 403.846C157.236 403.39 157.568 403.03 157.984 402.766C158.408 402.494 158.88 402.358 159.4 402.358C159.84 402.358 160.228 402.454 160.564 402.646C160.908 402.83 161.18 403.086 161.38 403.414C161.58 403.742 161.68 404.114 161.68 404.53V406.186C161.68 406.602 161.58 406.974 161.38 407.302C161.188 407.63 160.92 407.89 160.576 408.082C160.232 408.266 159.84 408.358 159.4 408.358ZM159.616 407.11C160.104 407.11 160.496 406.946 160.792 406.618C161.096 406.29 161.248 405.87 161.248 405.358C161.248 405.014 161.18 404.71 161.044 404.446C160.908 404.182 160.716 403.978 160.468 403.834C160.228 403.682 159.944 403.606 159.616 403.606C159.296 403.606 159.012 403.682 158.764 403.834C158.524 403.978 158.332 404.182 158.188 404.446C158.052 404.71 157.984 405.014 157.984 405.358C157.984 405.702 158.052 406.006 158.188 406.27C158.332 406.534 158.524 406.742 158.764 406.894C159.012 407.038 159.296 407.11 159.616 407.11ZM161.164 408.238V406.69L161.392 405.286L161.164 403.894V402.478H162.484V408.238H161.164ZM163.961 408.238V402.478H165.281V408.238H163.961ZM164.621 401.422C164.397 401.422 164.209 401.346 164.057 401.194C163.913 401.042 163.841 400.854 163.841 400.63C163.841 400.406 163.913 400.218 164.057 400.066C164.209 399.914 164.397 399.838 164.621 399.838C164.853 399.838 165.041 399.914 165.185 400.066C165.329 400.218 165.401 400.406 165.401 400.63C165.401 400.854 165.329 401.042 165.185 401.194C165.041 401.346 164.853 401.422 164.621 401.422ZM170.709 408.238V404.914C170.709 404.53 170.585 404.214 170.337 403.966C170.097 403.718 169.785 403.594 169.401 403.594C169.145 403.594 168.917 403.65 168.717 403.762C168.517 403.874 168.361 404.03 168.249 404.23C168.137 404.43 168.081 404.658 168.081 404.914L167.565 404.626C167.565 404.186 167.661 403.798 167.853 403.462C168.045 403.118 168.309 402.85 168.645 402.658C168.989 402.458 169.373 402.358 169.797 402.358C170.229 402.358 170.613 402.47 170.949 402.694C171.285 402.91 171.549 403.194 171.741 403.546C171.933 403.89 172.029 404.25 172.029 404.626V408.238H170.709ZM166.761 408.238V402.478H168.081V408.238H166.761ZM176.047 408.358C175.471 408.358 174.951 408.23 174.487 407.974C174.031 407.71 173.667 407.35 173.395 406.894C173.131 406.438 172.999 405.926 172.999 405.358C172.999 404.79 173.131 404.282 173.395 403.834C173.659 403.378 174.015 403.018 174.463 402.754C174.919 402.49 175.423 402.358 175.975 402.358C176.511 402.358 176.983 402.482 177.391 402.73C177.807 402.978 178.131 403.318 178.363 403.75C178.603 404.182 178.723 404.674 178.723 405.226C178.723 405.322 178.715 405.422 178.699 405.526C178.691 405.622 178.675 405.73 178.651 405.85H173.923V404.77H177.967L177.475 405.202C177.459 404.85 177.391 404.554 177.271 404.314C177.151 404.074 176.979 403.89 176.755 403.762C176.539 403.634 176.271 403.57 175.951 403.57C175.615 403.57 175.323 403.642 175.075 403.786C174.827 403.93 174.635 404.134 174.499 404.398C174.363 404.654 174.295 404.962 174.295 405.322C174.295 405.682 174.367 405.998 174.511 406.27C174.655 406.542 174.859 406.754 175.123 406.906C175.387 407.05 175.691 407.122 176.035 407.122C176.331 407.122 176.603 407.07 176.851 406.966C177.107 406.862 177.323 406.71 177.499 406.51L178.339 407.362C178.059 407.69 177.719 407.938 177.319 408.106C176.919 408.274 176.495 408.358 176.047 408.358ZM179.781 408.238V402.478H181.101V408.238H179.781ZM181.101 405.034L180.645 404.806C180.645 404.078 180.805 403.49 181.125 403.042C181.453 402.586 181.945 402.358 182.601 402.358C182.889 402.358 183.149 402.41 183.381 402.514C183.613 402.618 183.829 402.786 184.029 403.018L183.165 403.906C183.061 403.794 182.945 403.714 182.817 403.666C182.689 403.618 182.541 403.594 182.373 403.594C182.005 403.594 181.701 403.71 181.461 403.942C181.221 404.174 181.101 404.538 181.101 405.034Z" fill="#A7B8A4"/>
<rect x="283.5" y="371.238" width="150" height="150" rx="44" fill="#F7F8F7"/>
<path d="M327.519 452.418C326.523 452.418 325.677 452.238 324.981 451.878C324.285 451.518 323.661 450.99 323.109 450.294L324.513 448.89C324.861 449.394 325.275 449.79 325.755 450.078C326.235 450.354 326.847 450.492 327.591 450.492C328.287 450.492 328.839 450.348 329.247 450.06C329.667 449.772 329.877 449.376 329.877 448.872C329.877 448.452 329.769 448.11 329.553 447.846C329.337 447.582 329.049 447.366 328.689 447.198C328.341 447.018 327.951 446.862 327.519 446.73C327.099 446.586 326.673 446.43 326.241 446.262C325.821 446.082 325.431 445.86 325.071 445.596C324.723 445.332 324.441 444.99 324.225 444.57C324.009 444.15 323.901 443.616 323.901 442.968C323.901 442.224 324.081 441.594 324.441 441.078C324.813 440.55 325.311 440.148 325.935 439.872C326.559 439.596 327.255 439.458 328.023 439.458C328.851 439.458 329.589 439.62 330.237 439.944C330.897 440.268 331.431 440.682 331.839 441.186L330.435 442.59C330.075 442.182 329.697 441.882 329.301 441.69C328.917 441.486 328.473 441.384 327.969 441.384C327.345 441.384 326.853 441.51 326.493 441.762C326.145 442.014 325.971 442.368 325.971 442.824C325.971 443.208 326.079 443.52 326.295 443.76C326.511 443.988 326.793 444.186 327.141 444.354C327.501 444.51 327.891 444.66 328.311 444.804C328.743 444.948 329.169 445.11 329.589 445.29C330.021 445.47 330.411 445.704 330.759 445.992C331.119 446.268 331.407 446.628 331.623 447.072C331.839 447.516 331.947 448.074 331.947 448.746C331.947 449.874 331.545 450.768 330.741 451.428C329.949 452.088 328.875 452.418 327.519 452.418ZM336.393 452.238L332.451 443.598H334.647L337.653 450.636H336.357L339.381 443.598H341.487L337.545 452.238H336.393ZM346.385 452.418C345.521 452.418 344.741 452.226 344.045 451.842C343.361 451.446 342.815 450.906 342.407 450.222C342.011 449.538 341.813 448.77 341.813 447.918C341.813 447.066 342.011 446.304 342.407 445.632C342.803 444.948 343.337 444.408 344.009 444.012C344.693 443.616 345.449 443.418 346.277 443.418C347.081 443.418 347.789 443.604 348.401 443.976C349.025 444.348 349.511 444.858 349.859 445.506C350.219 446.154 350.399 446.892 350.399 447.72C350.399 447.864 350.387 448.014 350.363 448.17C350.351 448.314 350.327 448.476 350.291 448.656H343.199V447.036H349.265L348.527 447.684C348.503 447.156 348.401 446.712 348.221 446.352C348.041 445.992 347.783 445.716 347.447 445.524C347.123 445.332 346.721 445.236 346.241 445.236C345.737 445.236 345.299 445.344 344.927 445.56C344.555 445.776 344.267 446.082 344.063 446.478C343.859 446.862 343.757 447.324 343.757 447.864C343.757 448.404 343.865 448.878 344.081 449.286C344.297 449.694 344.603 450.012 344.999 450.24C345.395 450.456 345.851 450.564 346.367 450.564C346.811 450.564 347.219 450.486 347.591 450.33C347.975 450.174 348.299 449.946 348.563 449.646L349.823 450.924C349.403 451.416 348.893 451.788 348.293 452.04C347.693 452.292 347.057 452.418 346.385 452.418ZM351.987 452.238V439.278H353.967V452.238H351.987ZM357.484 452.238V439.998H359.464V452.238H357.484ZM355.414 445.398V443.598H361.534V445.398H355.414ZM366.741 452.418C365.877 452.418 365.097 452.226 364.401 451.842C363.717 451.446 363.171 450.906 362.763 450.222C362.367 449.538 362.169 448.77 362.169 447.918C362.169 447.066 362.367 446.304 362.763 445.632C363.159 444.948 363.693 444.408 364.365 444.012C365.049 443.616 365.805 443.418 366.633 443.418C367.437 443.418 368.145 443.604 368.757 443.976C369.381 444.348 369.867 444.858 370.215 445.506C370.575 446.154 370.755 446.892 370.755 447.72C370.755 447.864 370.743 448.014 370.719 448.17C370.707 448.314 370.683 448.476 370.647 448.656H363.555V447.036H369.621L368.883 447.684C368.859 447.156 368.757 446.712 368.577 446.352C368.397 445.992 368.139 445.716 367.803 445.524C367.479 445.332 367.077 445.236 366.597 445.236C366.093 445.236 365.655 445.344 365.283 445.56C364.911 445.776 364.623 446.082 364.419 446.478C364.215 446.862 364.113 447.324 364.113 447.864C364.113 448.404 364.221 448.878 364.437 449.286C364.653 449.694 364.959 450.012 365.355 450.24C365.751 450.456 366.207 450.564 366.723 450.564C367.167 450.564 367.575 450.486 367.947 450.33C368.331 450.174 368.655 449.946 368.919 449.646L370.179 450.924C369.759 451.416 369.249 451.788 368.649 452.04C368.049 452.292 367.413 452.418 366.741 452.418ZM380.226 452.238L374.394 445.668L380.1 439.638H382.746L376.446 446.19L376.464 445.056L382.926 452.238H380.226ZM372.612 452.238V439.638H374.682V452.238H372.612ZM384.454 452.238V443.598H386.434V452.238H384.454ZM385.444 442.014C385.108 442.014 384.826 441.9 384.598 441.672C384.382 441.444 384.274 441.162 384.274 440.826C384.274 440.49 384.382 440.208 384.598 439.98C384.826 439.752 385.108 439.638 385.444 439.638C385.792 439.638 386.074 439.752 386.29 439.98C386.506 440.208 386.614 440.49 386.614 440.826C386.614 441.162 386.506 441.444 386.29 441.672C386.074 441.9 385.792 442.014 385.444 442.014ZM389.969 452.238V439.998H391.949V452.238H389.969ZM387.899 445.398V443.598H394.019V445.398H387.899Z" fill="black"/>
<path d="M330.889 384.886L330.073 386.41L329.629 386.53C329.677 386.434 329.733 386.354 329.797 386.29C329.869 386.226 329.945 386.194 330.025 386.194C330.209 386.194 330.377 386.274 330.529 386.434C330.689 386.586 330.769 386.782 330.769 387.022C330.769 387.27 330.681 387.486 330.505 387.67C330.329 387.854 330.117 387.946 329.869 387.946C329.629 387.946 329.417 387.858 329.233 387.682C329.057 387.498 328.969 387.278 328.969 387.022C328.969 386.918 328.989 386.798 329.029 386.662C329.077 386.518 329.157 386.338 329.269 386.122L330.157 384.49L330.889 384.886ZM333.337 384.886L332.521 386.41L332.077 386.53C332.125 386.434 332.181 386.354 332.245 386.29C332.317 386.226 332.393 386.194 332.473 386.194C332.657 386.194 332.825 386.274 332.977 386.434C333.137 386.586 333.217 386.782 333.217 387.022C333.217 387.27 333.129 387.486 332.953 387.67C332.777 387.854 332.565 387.946 332.317 387.946C332.077 387.946 331.865 387.858 331.681 387.682C331.505 387.498 331.417 387.278 331.417 387.022C331.417 386.918 331.437 386.798 331.477 386.662C331.525 386.518 331.605 386.338 331.717 386.122L332.605 384.49L333.337 384.886ZM334.826 393.238V384.838H336.206V393.238H334.826ZM335.774 389.638V388.378H340.046V389.638H335.774ZM335.774 386.098V384.838H340.25V386.098H335.774ZM341.443 393.238V387.478H342.763V393.238H341.443ZM342.763 390.034L342.307 389.806C342.307 389.078 342.467 388.49 342.787 388.042C343.115 387.586 343.607 387.358 344.263 387.358C344.551 387.358 344.811 387.41 345.043 387.514C345.275 387.618 345.491 387.786 345.691 388.018L344.827 388.906C344.723 388.794 344.607 388.714 344.479 388.666C344.351 388.618 344.203 388.594 344.035 388.594C343.667 388.594 343.363 388.71 343.123 388.942C342.883 389.174 342.763 389.538 342.763 390.034ZM348.794 393.358C348.234 393.358 347.726 393.226 347.27 392.962C346.814 392.69 346.45 392.326 346.178 391.87C345.914 391.414 345.782 390.906 345.782 390.346C345.782 389.786 345.914 389.282 346.178 388.834C346.45 388.386 346.814 388.03 347.27 387.766C347.726 387.494 348.234 387.358 348.794 387.358C349.362 387.358 349.874 387.49 350.33 387.754C350.786 388.018 351.146 388.378 351.41 388.834C351.682 389.282 351.818 389.786 351.818 390.346C351.818 390.906 351.682 391.414 351.41 391.87C351.146 392.326 350.786 392.69 350.33 392.962C349.874 393.226 349.362 393.358 348.794 393.358ZM348.794 392.086C349.122 392.086 349.41 392.014 349.658 391.87C349.914 391.718 350.11 391.51 350.246 391.246C350.39 390.982 350.462 390.682 350.462 390.346C350.462 390.01 350.39 389.714 350.246 389.458C350.102 389.202 349.906 389.002 349.658 388.858C349.41 388.706 349.122 388.63 348.794 388.63C348.474 388.63 348.186 388.706 347.93 388.858C347.682 389.002 347.486 389.202 347.342 389.458C347.206 389.714 347.138 390.01 347.138 390.346C347.138 390.682 347.206 390.982 347.342 391.246C347.486 391.51 347.682 391.718 347.93 391.87C348.186 392.014 348.474 392.086 348.794 392.086ZM356.864 393.238V389.914C356.864 389.53 356.74 389.214 356.492 388.966C356.252 388.718 355.94 388.594 355.556 388.594C355.3 388.594 355.072 388.65 354.872 388.762C354.672 388.874 354.516 389.03 354.404 389.23C354.292 389.43 354.236 389.658 354.236 389.914L353.72 389.626C353.72 389.186 353.816 388.798 354.008 388.462C354.2 388.118 354.464 387.85 354.8 387.658C355.144 387.458 355.528 387.358 355.952 387.358C356.384 387.358 356.768 387.47 357.104 387.694C357.44 387.91 357.704 388.194 357.896 388.546C358.088 388.89 358.184 389.25 358.184 389.626V393.238H356.864ZM352.916 393.238V387.478H354.236V393.238H352.916ZM360.331 393.238V385.078H361.651V393.238H360.331ZM358.951 388.678V387.478H363.031V388.678H358.951ZM366.502 393.358C365.926 393.358 365.406 393.23 364.942 392.974C364.486 392.71 364.122 392.35 363.85 391.894C363.586 391.438 363.454 390.926 363.454 390.358C363.454 389.79 363.586 389.282 363.85 388.834C364.114 388.378 364.47 388.018 364.918 387.754C365.374 387.49 365.878 387.358 366.43 387.358C366.966 387.358 367.438 387.482 367.846 387.73C368.262 387.978 368.586 388.318 368.818 388.75C369.058 389.182 369.178 389.674 369.178 390.226C369.178 390.322 369.17 390.422 369.154 390.526C369.146 390.622 369.13 390.73 369.106 390.85H364.378V389.77H368.422L367.93 390.202C367.914 389.85 367.846 389.554 367.726 389.314C367.606 389.074 367.434 388.89 367.21 388.762C366.994 388.634 366.726 388.57 366.406 388.57C366.07 388.57 365.778 388.642 365.53 388.786C365.282 388.93 365.09 389.134 364.954 389.398C364.818 389.654 364.75 389.962 364.75 390.322C364.75 390.682 364.822 390.998 364.966 391.27C365.11 391.542 365.314 391.754 365.578 391.906C365.842 392.05 366.146 392.122 366.49 392.122C366.786 392.122 367.058 392.07 367.306 391.966C367.562 391.862 367.778 391.71 367.954 391.51L368.794 392.362C368.514 392.69 368.174 392.938 367.774 393.106C367.374 393.274 366.95 393.358 366.502 393.358ZM374.184 393.238V389.914C374.184 389.53 374.06 389.214 373.812 388.966C373.572 388.718 373.26 388.594 372.876 388.594C372.62 388.594 372.392 388.65 372.192 388.762C371.992 388.874 371.836 389.03 371.724 389.23C371.612 389.43 371.556 389.658 371.556 389.914L371.04 389.626C371.04 389.186 371.136 388.798 371.328 388.462C371.52 388.118 371.784 387.85 372.12 387.658C372.464 387.458 372.848 387.358 373.272 387.358C373.704 387.358 374.088 387.47 374.424 387.694C374.76 387.91 375.024 388.194 375.216 388.546C375.408 388.89 375.504 389.25 375.504 389.626V393.238H374.184ZM370.236 393.238V387.478H371.556V393.238H370.236ZM379.257 393.358C378.737 393.358 378.265 393.226 377.841 392.962C377.425 392.698 377.093 392.342 376.845 391.894C376.605 391.438 376.485 390.93 376.485 390.37C376.485 389.802 376.605 389.294 376.845 388.846C377.093 388.39 377.425 388.03 377.841 387.766C378.265 387.494 378.737 387.358 379.257 387.358C379.697 387.358 380.085 387.454 380.421 387.646C380.765 387.83 381.037 388.086 381.237 388.414C381.437 388.742 381.537 389.114 381.537 389.53V391.186C381.537 391.602 381.437 391.974 381.237 392.302C381.045 392.63 380.777 392.89 380.433 393.082C380.089 393.266 379.697 393.358 379.257 393.358ZM379.473 392.11C379.801 392.11 380.085 392.038 380.325 391.894C380.573 391.742 380.765 391.534 380.901 391.27C381.037 391.006 381.105 390.702 381.105 390.358C381.105 390.014 381.037 389.71 380.901 389.446C380.765 389.182 380.573 388.978 380.325 388.834C380.085 388.682 379.805 388.606 379.485 388.606C379.157 388.606 378.869 388.682 378.621 388.834C378.381 388.978 378.189 389.182 378.045 389.446C377.909 389.71 377.841 390.014 377.841 390.358C377.841 390.702 377.909 391.006 378.045 391.27C378.189 391.534 378.381 391.742 378.621 391.894C378.869 392.038 379.153 392.11 379.473 392.11ZM382.341 393.238H381.021V391.69L381.249 390.286L381.021 388.894V384.598H382.341V393.238ZM386.11 387.778L386.926 386.254L387.37 386.134C387.322 386.23 387.266 386.31 387.202 386.374C387.138 386.438 387.062 386.47 386.974 386.47C386.79 386.47 386.618 386.394 386.458 386.242C386.306 386.082 386.23 385.882 386.23 385.642C386.23 385.386 386.318 385.17 386.494 384.994C386.67 384.81 386.882 384.718 387.13 384.718C387.37 384.718 387.578 384.81 387.754 384.994C387.938 385.17 388.03 385.386 388.03 385.642C388.03 385.746 388.006 385.87 387.958 386.014C387.918 386.15 387.842 386.326 387.73 386.542L386.842 388.174L386.11 387.778ZM383.662 387.778L384.478 386.254L384.922 386.134C384.874 386.23 384.818 386.31 384.754 386.374C384.69 386.438 384.614 386.47 384.526 386.47C384.342 386.47 384.17 386.394 384.01 386.242C383.858 386.082 383.782 385.882 383.782 385.642C383.782 385.386 383.87 385.17 384.046 384.994C384.222 384.81 384.434 384.718 384.682 384.718C384.922 384.718 385.13 384.81 385.306 384.994C385.49 385.17 385.582 385.386 385.582 385.642C385.582 385.746 385.558 385.87 385.51 386.014C385.47 386.15 385.394 386.326 385.282 386.542L384.394 388.174L383.662 387.778ZM336.238 408.358C335.67 408.358 335.154 408.226 334.69 407.962C334.234 407.698 333.874 407.338 333.61 406.882C333.346 406.426 333.214 405.918 333.214 405.358C333.214 404.79 333.346 404.282 333.61 403.834C333.874 403.378 334.234 403.018 334.69 402.754C335.154 402.49 335.67 402.358 336.238 402.358C336.686 402.358 337.102 402.446 337.486 402.622C337.878 402.79 338.21 403.034 338.482 403.354L337.618 404.23C337.45 404.03 337.246 403.882 337.006 403.786C336.774 403.682 336.518 403.63 336.238 403.63C335.91 403.63 335.618 403.706 335.362 403.858C335.114 404.002 334.918 404.202 334.774 404.458C334.638 404.714 334.57 405.014 334.57 405.358C334.57 405.694 334.638 405.994 334.774 406.258C334.918 406.514 335.114 406.718 335.362 406.87C335.618 407.014 335.91 407.086 336.238 407.086C336.518 407.086 336.774 407.038 337.006 406.942C337.246 406.838 337.45 406.686 337.618 406.486L338.482 407.362C338.21 407.682 337.878 407.93 337.486 408.106C337.102 408.274 336.686 408.358 336.238 408.358ZM341.956 408.358C341.396 408.358 340.888 408.226 340.432 407.962C339.976 407.69 339.612 407.326 339.34 406.87C339.076 406.414 338.944 405.906 338.944 405.346C338.944 404.786 339.076 404.282 339.34 403.834C339.612 403.386 339.976 403.03 340.432 402.766C340.888 402.494 341.396 402.358 341.956 402.358C342.524 402.358 343.036 402.49 343.492 402.754C343.948 403.018 344.308 403.378 344.572 403.834C344.844 404.282 344.98 404.786 344.98 405.346C344.98 405.906 344.844 406.414 344.572 406.87C344.308 407.326 343.948 407.69 343.492 407.962C343.036 408.226 342.524 408.358 341.956 408.358ZM341.956 407.086C342.284 407.086 342.572 407.014 342.82 406.87C343.076 406.718 343.272 406.51 343.408 406.246C343.552 405.982 343.624 405.682 343.624 405.346C343.624 405.01 343.552 404.714 343.408 404.458C343.264 404.202 343.068 404.002 342.82 403.858C342.572 403.706 342.284 403.63 341.956 403.63C341.636 403.63 341.348 403.706 341.092 403.858C340.844 404.002 340.648 404.202 340.504 404.458C340.368 404.714 340.3 405.01 340.3 405.346C340.3 405.682 340.368 405.982 340.504 406.246C340.648 406.51 340.844 406.718 341.092 406.87C341.348 407.014 341.636 407.086 341.956 407.086ZM350.026 408.238V404.914C350.026 404.53 349.902 404.214 349.654 403.966C349.414 403.718 349.102 403.594 348.718 403.594C348.462 403.594 348.234 403.65 348.034 403.762C347.834 403.874 347.678 404.03 347.566 404.23C347.454 404.43 347.398 404.658 347.398 404.914L346.882 404.626C346.882 404.186 346.978 403.798 347.17 403.462C347.362 403.118 347.626 402.85 347.962 402.658C348.306 402.458 348.69 402.358 349.114 402.358C349.546 402.358 349.93 402.47 350.266 402.694C350.602 402.91 350.866 403.194 351.058 403.546C351.25 403.89 351.346 404.25 351.346 404.626V408.238H350.026ZM346.078 408.238V402.478H347.398V408.238H346.078ZM353.493 408.238V400.078H354.813V408.238H353.493ZM352.113 403.678V402.478H356.193V403.678H352.113ZM359.4 408.358C358.88 408.358 358.408 408.226 357.984 407.962C357.568 407.698 357.236 407.342 356.988 406.894C356.748 406.438 356.628 405.93 356.628 405.37C356.628 404.802 356.748 404.294 356.988 403.846C357.236 403.39 357.568 403.03 357.984 402.766C358.408 402.494 358.88 402.358 359.4 402.358C359.84 402.358 360.228 402.454 360.564 402.646C360.908 402.83 361.18 403.086 361.38 403.414C361.58 403.742 361.68 404.114 361.68 404.53V406.186C361.68 406.602 361.58 406.974 361.38 407.302C361.188 407.63 360.92 407.89 360.576 408.082C360.232 408.266 359.84 408.358 359.4 408.358ZM359.616 407.11C360.104 407.11 360.496 406.946 360.792 406.618C361.096 406.29 361.248 405.87 361.248 405.358C361.248 405.014 361.18 404.71 361.044 404.446C360.908 404.182 360.716 403.978 360.468 403.834C360.228 403.682 359.944 403.606 359.616 403.606C359.296 403.606 359.012 403.682 358.764 403.834C358.524 403.978 358.332 404.182 358.188 404.446C358.052 404.71 357.984 405.014 357.984 405.358C357.984 405.702 358.052 406.006 358.188 406.27C358.332 406.534 358.524 406.742 358.764 406.894C359.012 407.038 359.296 407.11 359.616 407.11ZM361.164 408.238V406.69L361.392 405.286L361.164 403.894V402.478H362.484V408.238H361.164ZM363.961 408.238V402.478H365.281V408.238H363.961ZM364.621 401.422C364.397 401.422 364.209 401.346 364.057 401.194C363.913 401.042 363.841 400.854 363.841 400.63C363.841 400.406 363.913 400.218 364.057 400.066C364.209 399.914 364.397 399.838 364.621 399.838C364.853 399.838 365.041 399.914 365.185 400.066C365.329 400.218 365.401 400.406 365.401 400.63C365.401 400.854 365.329 401.042 365.185 401.194C365.041 401.346 364.853 401.422 364.621 401.422ZM370.709 408.238V404.914C370.709 404.53 370.585 404.214 370.337 403.966C370.097 403.718 369.785 403.594 369.401 403.594C369.145 403.594 368.917 403.65 368.717 403.762C368.517 403.874 368.361 404.03 368.249 404.23C368.137 404.43 368.081 404.658 368.081 404.914L367.565 404.626C367.565 404.186 367.661 403.798 367.853 403.462C368.045 403.118 368.309 402.85 368.645 402.658C368.989 402.458 369.373 402.358 369.797 402.358C370.229 402.358 370.613 402.47 370.949 402.694C371.285 402.91 371.549 403.194 371.741 403.546C371.933 403.89 372.029 404.25 372.029 404.626V408.238H370.709ZM366.761 408.238V402.478H368.081V408.238H366.761ZM376.047 408.358C375.471 408.358 374.951 408.23 374.487 407.974C374.031 407.71 373.667 407.35 373.395 406.894C373.131 406.438 372.999 405.926 372.999 405.358C372.999 404.79 373.131 404.282 373.395 403.834C373.659 403.378 374.015 403.018 374.463 402.754C374.919 402.49 375.423 402.358 375.975 402.358C376.511 402.358 376.983 402.482 377.391 402.73C377.807 402.978 378.131 403.318 378.363 403.75C378.603 404.182 378.723 404.674 378.723 405.226C378.723 405.322 378.715 405.422 378.699 405.526C378.691 405.622 378.675 405.73 378.651 405.85H373.923V404.77H377.967L377.475 405.202C377.459 404.85 377.391 404.554 377.271 404.314C377.151 404.074 376.979 403.89 376.755 403.762C376.539 403.634 376.271 403.57 375.951 403.57C375.615 403.57 375.323 403.642 375.075 403.786C374.827 403.93 374.635 404.134 374.499 404.398C374.363 404.654 374.295 404.962 374.295 405.322C374.295 405.682 374.367 405.998 374.511 406.27C374.655 406.542 374.859 406.754 375.123 406.906C375.387 407.05 375.691 407.122 376.035 407.122C376.331 407.122 376.603 407.07 376.851 406.966C377.107 406.862 377.323 406.71 377.499 406.51L378.339 407.362C378.059 407.69 377.719 407.938 377.319 408.106C376.919 408.274 376.495 408.358 376.047 408.358ZM379.781 408.238V402.478H381.101V408.238H379.781ZM381.101 405.034L380.645 404.806C380.645 404.078 380.805 403.49 381.125 403.042C381.453 402.586 381.945 402.358 382.601 402.358C382.889 402.358 383.149 402.41 383.381 402.514C383.613 402.618 383.829 402.786 384.029 403.018L383.165 403.906C383.061 403.794 382.945 403.714 382.817 403.666C382.689 403.618 382.541 403.594 382.373 403.594C382.005 403.594 381.701 403.71 381.461 403.942C381.221 404.174 381.101 404.538 381.101 405.034Z" fill="#A7B8A4"/>
<rect x="183.5" y="151.238" width="150" height="150" rx="44" fill="#F7F8F7"/>
<path d="M237.095 232.238V219.638H238.535L239.165 222.014V232.238H237.095ZM245.825 232.238L238.283 222.392L238.535 219.638L246.077 229.484L245.825 232.238ZM245.825 232.238L245.195 230.024V219.638H247.265V232.238H245.825ZM253.327 236.018C252.415 236.018 251.617 235.85 250.933 235.514C250.249 235.19 249.697 234.728 249.277 234.128L250.573 232.832C250.921 233.264 251.317 233.588 251.761 233.804C252.205 234.02 252.739 234.128 253.363 234.128C254.143 234.128 254.761 233.924 255.217 233.516C255.673 233.12 255.901 232.574 255.901 231.878V229.754L256.243 227.846L255.901 225.92V223.598H257.881V231.878C257.881 232.706 257.689 233.426 257.305 234.038C256.921 234.662 256.387 235.148 255.703 235.496C255.019 235.844 254.227 236.018 253.327 236.018ZM253.237 232.058C252.469 232.058 251.773 231.872 251.149 231.5C250.537 231.116 250.051 230.594 249.691 229.934C249.343 229.274 249.169 228.536 249.169 227.72C249.169 226.904 249.343 226.172 249.691 225.524C250.051 224.876 250.537 224.366 251.149 223.994C251.773 223.61 252.469 223.418 253.237 223.418C253.921 223.418 254.521 223.556 255.037 223.832C255.553 224.108 255.955 224.492 256.243 224.984C256.531 225.464 256.675 226.028 256.675 226.676V228.8C256.675 229.436 256.525 230 256.225 230.492C255.937 230.984 255.535 231.368 255.019 231.644C254.503 231.92 253.909 232.058 253.237 232.058ZM253.633 230.186C254.113 230.186 254.533 230.084 254.893 229.88C255.253 229.676 255.529 229.394 255.721 229.034C255.925 228.662 256.027 228.23 256.027 227.738C256.027 227.246 255.925 226.82 255.721 226.46C255.529 226.088 255.253 225.8 254.893 225.596C254.533 225.392 254.113 225.29 253.633 225.29C253.153 225.29 252.727 225.392 252.355 225.596C251.995 225.8 251.713 226.088 251.509 226.46C251.305 226.82 251.203 227.246 251.203 227.738C251.203 228.218 251.305 228.644 251.509 229.016C251.713 229.388 251.995 229.676 252.355 229.88C252.727 230.084 253.153 230.186 253.633 230.186ZM260.098 232.238V223.598H262.078V232.238H260.098ZM261.088 222.014C260.752 222.014 260.47 221.9 260.242 221.672C260.026 221.444 259.918 221.162 259.918 220.826C259.918 220.49 260.026 220.208 260.242 219.98C260.47 219.752 260.752 219.638 261.088 219.638C261.436 219.638 261.718 219.752 261.934 219.98C262.15 220.208 262.258 220.49 262.258 220.826C262.258 221.162 262.15 221.444 261.934 221.672C261.718 221.9 261.436 222.014 261.088 222.014ZM270.221 232.238V227.252C270.221 226.676 270.035 226.202 269.663 225.83C269.303 225.458 268.835 225.272 268.259 225.272C267.875 225.272 267.533 225.356 267.233 225.524C266.933 225.692 266.699 225.926 266.531 226.226C266.363 226.526 266.279 226.868 266.279 227.252L265.505 226.82C265.505 226.16 265.649 225.578 265.937 225.074C266.225 224.558 266.621 224.156 267.125 223.868C267.641 223.568 268.217 223.418 268.853 223.418C269.501 223.418 270.077 223.586 270.581 223.922C271.085 224.246 271.481 224.672 271.769 225.2C272.057 225.716 272.201 226.256 272.201 226.82V232.238H270.221ZM264.299 232.238V223.598H266.279V232.238H264.299ZM279.685 232.238L277.201 228.584L276.841 228.26L273.493 223.598H275.887L278.101 226.802L278.443 227.108L282.061 232.238H279.685ZM273.331 232.238L276.823 227.396L277.975 228.818L275.635 232.238H273.331ZM278.623 228.224L277.453 226.82L279.613 223.598H281.899L278.623 228.224Z" fill="black"/>
<path d="M226.801 164.886L225.985 166.41L225.541 166.53C225.589 166.434 225.645 166.354 225.709 166.29C225.781 166.226 225.857 166.194 225.937 166.194C226.121 166.194 226.289 166.274 226.441 166.434C226.601 166.586 226.681 166.782 226.681 167.022C226.681 167.27 226.593 167.486 226.417 167.67C226.241 167.854 226.029 167.946 225.781 167.946C225.541 167.946 225.329 167.858 225.145 167.682C224.969 167.498 224.881 167.278 224.881 167.022C224.881 166.918 224.901 166.798 224.941 166.662C224.989 166.518 225.069 166.338 225.181 166.122L226.069 164.49L226.801 164.886ZM229.249 164.886L228.433 166.41L227.989 166.53C228.037 166.434 228.093 166.354 228.157 166.29C228.229 166.226 228.305 166.194 228.385 166.194C228.569 166.194 228.737 166.274 228.889 166.434C229.049 166.586 229.129 166.782 229.129 167.022C229.129 167.27 229.041 167.486 228.865 167.67C228.689 167.854 228.477 167.946 228.229 167.946C227.989 167.946 227.777 167.858 227.593 167.682C227.417 167.498 227.329 167.278 227.329 167.022C227.329 166.918 227.349 166.798 227.389 166.662C227.437 166.518 227.517 166.338 227.629 166.122L228.517 164.49L229.249 164.886ZM232.898 173.238L230.138 164.838H231.494L233.57 171.306H233.21L235.238 164.838H236.198L238.226 171.306H237.866L239.942 164.838H241.298L238.538 173.238H237.578L235.538 166.782H235.898L233.858 173.238H232.898ZM244.179 173.358C243.603 173.358 243.083 173.23 242.619 172.974C242.163 172.71 241.799 172.35 241.527 171.894C241.263 171.438 241.131 170.926 241.131 170.358C241.131 169.79 241.263 169.282 241.527 168.834C241.791 168.378 242.147 168.018 242.595 167.754C243.051 167.49 243.555 167.358 244.107 167.358C244.643 167.358 245.115 167.482 245.523 167.73C245.939 167.978 246.263 168.318 246.495 168.75C246.735 169.182 246.855 169.674 246.855 170.226C246.855 170.322 246.847 170.422 246.831 170.526C246.823 170.622 246.807 170.73 246.783 170.85H242.055V169.77H246.099L245.607 170.202C245.591 169.85 245.523 169.554 245.403 169.314C245.283 169.074 245.111 168.89 244.887 168.762C244.671 168.634 244.403 168.57 244.083 168.57C243.747 168.57 243.455 168.642 243.207 168.786C242.959 168.93 242.767 169.134 242.631 169.398C242.495 169.654 242.427 169.962 242.427 170.322C242.427 170.682 242.499 170.998 242.643 171.27C242.787 171.542 242.991 171.754 243.255 171.906C243.519 172.05 243.823 172.122 244.167 172.122C244.463 172.122 244.735 172.07 244.983 171.966C245.239 171.862 245.455 171.71 245.631 171.51L246.471 172.362C246.191 172.69 245.851 172.938 245.451 173.106C245.051 173.274 244.627 173.358 244.179 173.358ZM250.998 173.358C250.558 173.358 250.166 173.266 249.822 173.082C249.478 172.89 249.206 172.63 249.006 172.302C248.814 171.974 248.718 171.602 248.718 171.186V169.53C248.718 169.114 248.818 168.742 249.018 168.414C249.218 168.086 249.49 167.83 249.834 167.646C250.178 167.454 250.566 167.358 250.998 167.358C251.518 167.358 251.986 167.494 252.402 167.766C252.826 168.03 253.158 168.39 253.398 168.846C253.646 169.294 253.77 169.802 253.77 170.37C253.77 170.93 253.646 171.438 253.398 171.894C253.158 172.342 252.826 172.698 252.402 172.962C251.986 173.226 251.518 173.358 250.998 173.358ZM250.782 172.11C251.102 172.11 251.382 172.038 251.622 171.894C251.87 171.742 252.062 171.534 252.198 171.27C252.342 171.006 252.414 170.702 252.414 170.358C252.414 170.014 252.342 169.71 252.198 169.446C252.062 169.182 251.87 168.978 251.622 168.834C251.382 168.682 251.102 168.606 250.782 168.606C250.462 168.606 250.178 168.682 249.93 168.834C249.682 168.978 249.49 169.182 249.354 169.446C249.218 169.71 249.15 170.014 249.15 170.358C249.15 170.702 249.218 171.006 249.354 171.27C249.49 171.534 249.682 171.742 249.93 171.894C250.178 172.038 250.462 172.11 250.782 172.11ZM247.914 173.238V164.598H249.234V168.894L249.006 170.286L249.234 171.69V173.238H247.914ZM256.759 173.358C256.439 173.358 256.131 173.318 255.835 173.238C255.539 173.15 255.267 173.03 255.019 172.878C254.771 172.718 254.555 172.526 254.371 172.302L255.211 171.462C255.411 171.694 255.639 171.87 255.895 171.99C256.159 172.102 256.455 172.158 256.783 172.158C257.079 172.158 257.303 172.114 257.455 172.026C257.607 171.938 257.683 171.81 257.683 171.642C257.683 171.466 257.611 171.33 257.467 171.234C257.323 171.138 257.135 171.058 256.903 170.994C256.679 170.922 256.439 170.85 256.183 170.778C255.935 170.706 255.695 170.61 255.463 170.49C255.239 170.362 255.055 170.19 254.911 169.974C254.767 169.758 254.695 169.478 254.695 169.134C254.695 168.766 254.779 168.45 254.947 168.186C255.123 167.922 255.367 167.718 255.679 167.574C255.999 167.43 256.379 167.358 256.819 167.358C257.283 167.358 257.691 167.442 258.043 167.61C258.403 167.77 258.703 168.014 258.943 168.342L258.103 169.182C257.935 168.974 257.743 168.818 257.527 168.714C257.311 168.61 257.063 168.558 256.783 168.558C256.519 168.558 256.315 168.598 256.171 168.678C256.027 168.758 255.955 168.874 255.955 169.026C255.955 169.186 256.027 169.31 256.171 169.398C256.315 169.486 256.499 169.562 256.723 169.626C256.955 169.69 257.195 169.762 257.443 169.842C257.699 169.914 257.939 170.018 258.163 170.154C258.395 170.282 258.583 170.458 258.727 170.682C258.871 170.898 258.943 171.182 258.943 171.534C258.943 172.094 258.747 172.538 258.355 172.866C257.963 173.194 257.431 173.358 256.759 173.358ZM262.707 173.358C262.131 173.358 261.611 173.23 261.147 172.974C260.691 172.71 260.327 172.35 260.055 171.894C259.791 171.438 259.659 170.926 259.659 170.358C259.659 169.79 259.791 169.282 260.055 168.834C260.319 168.378 260.675 168.018 261.123 167.754C261.579 167.49 262.083 167.358 262.635 167.358C263.171 167.358 263.643 167.482 264.051 167.73C264.467 167.978 264.791 168.318 265.023 168.75C265.263 169.182 265.383 169.674 265.383 170.226C265.383 170.322 265.375 170.422 265.359 170.526C265.351 170.622 265.335 170.73 265.311 170.85H260.583V169.77H264.627L264.135 170.202C264.119 169.85 264.051 169.554 263.931 169.314C263.811 169.074 263.639 168.89 263.415 168.762C263.199 168.634 262.931 168.57 262.611 168.57C262.275 168.57 261.983 168.642 261.735 168.786C261.487 168.93 261.295 169.134 261.159 169.398C261.023 169.654 260.955 169.962 260.955 170.322C260.955 170.682 261.027 170.998 261.171 171.27C261.315 171.542 261.519 171.754 261.783 171.906C262.047 172.05 262.351 172.122 262.695 172.122C262.991 172.122 263.263 172.07 263.511 171.966C263.767 171.862 263.983 171.71 264.159 171.51L264.999 172.362C264.719 172.69 264.379 172.938 263.979 173.106C263.579 173.274 263.155 173.358 262.707 173.358ZM266.441 173.238V167.478H267.761V173.238H266.441ZM267.761 170.034L267.305 169.806C267.305 169.078 267.465 168.49 267.785 168.042C268.113 167.586 268.605 167.358 269.261 167.358C269.549 167.358 269.809 167.41 270.041 167.514C270.273 167.618 270.489 167.786 270.689 168.018L269.825 168.906C269.721 168.794 269.605 168.714 269.477 168.666C269.349 168.618 269.201 168.594 269.033 168.594C268.665 168.594 268.361 168.71 268.121 168.942C267.881 169.174 267.761 169.538 267.761 170.034ZM273.19 173.238L270.562 167.478H272.026L274.03 172.17H273.166L275.182 167.478H276.586L273.958 173.238H273.19ZM279.851 173.358C279.275 173.358 278.755 173.23 278.291 172.974C277.835 172.71 277.471 172.35 277.199 171.894C276.935 171.438 276.803 170.926 276.803 170.358C276.803 169.79 276.935 169.282 277.199 168.834C277.463 168.378 277.819 168.018 278.267 167.754C278.723 167.49 279.227 167.358 279.779 167.358C280.315 167.358 280.787 167.482 281.195 167.73C281.611 167.978 281.935 168.318 282.167 168.75C282.407 169.182 282.527 169.674 282.527 170.226C282.527 170.322 282.519 170.422 282.503 170.526C282.495 170.622 282.479 170.73 282.455 170.85H277.727V169.77H281.771L281.279 170.202C281.263 169.85 281.195 169.554 281.075 169.314C280.955 169.074 280.783 168.89 280.559 168.762C280.343 168.634 280.075 168.57 279.755 168.57C279.419 168.57 279.127 168.642 278.879 168.786C278.631 168.93 278.439 169.134 278.303 169.398C278.167 169.654 278.099 169.962 278.099 170.322C278.099 170.682 278.171 170.998 278.315 171.27C278.459 171.542 278.663 171.754 278.927 171.906C279.191 172.05 279.495 172.122 279.839 172.122C280.135 172.122 280.407 172.07 280.655 171.966C280.911 171.862 281.127 171.71 281.303 171.51L282.143 172.362C281.863 172.69 281.523 172.938 281.123 173.106C280.723 173.274 280.299 173.358 279.851 173.358ZM283.586 173.238V167.478H284.906V173.238H283.586ZM284.906 170.034L284.45 169.806C284.45 169.078 284.61 168.49 284.93 168.042C285.258 167.586 285.75 167.358 286.406 167.358C286.694 167.358 286.954 167.41 287.186 167.514C287.418 167.618 287.634 167.786 287.834 168.018L286.97 168.906C286.866 168.794 286.75 168.714 286.622 168.666C286.494 168.618 286.346 168.594 286.178 168.594C285.81 168.594 285.506 168.71 285.266 168.942C285.026 169.174 284.906 169.538 284.906 170.034ZM291.198 167.778L292.014 166.254L292.458 166.134C292.41 166.23 292.354 166.31 292.29 166.374C292.226 166.438 292.15 166.47 292.062 166.47C291.878 166.47 291.706 166.394 291.546 166.242C291.394 166.082 291.318 165.882 291.318 165.642C291.318 165.386 291.406 165.17 291.582 164.994C291.758 164.81 291.97 164.718 292.218 164.718C292.458 164.718 292.666 164.81 292.842 164.994C293.026 165.17 293.118 165.386 293.118 165.642C293.118 165.746 293.094 165.87 293.046 166.014C293.006 166.15 292.93 166.326 292.818 166.542L291.93 168.174L291.198 167.778ZM288.75 167.778L289.566 166.254L290.01 166.134C289.962 166.23 289.906 166.31 289.842 166.374C289.778 166.438 289.702 166.47 289.614 166.47C289.43 166.47 289.258 166.394 289.098 166.242C288.946 166.082 288.87 165.882 288.87 165.642C288.87 165.386 288.958 165.17 289.134 164.994C289.31 164.81 289.522 164.718 289.77 164.718C290.01 164.718 290.218 164.81 290.394 164.994C290.578 165.17 290.67 165.386 290.67 165.642C290.67 165.746 290.646 165.87 290.598 166.014C290.558 166.15 290.482 166.326 290.37 166.542L289.482 168.174L288.75 167.778ZM236.738 188.358C236.17 188.358 235.654 188.226 235.19 187.962C234.734 187.698 234.374 187.338 234.11 186.882C233.846 186.426 233.714 185.918 233.714 185.358C233.714 184.79 233.846 184.282 234.11 183.834C234.374 183.378 234.734 183.018 235.19 182.754C235.654 182.49 236.17 182.358 236.738 182.358C237.186 182.358 237.602 182.446 237.986 182.622C238.378 182.79 238.71 183.034 238.982 183.354L238.118 184.23C237.95 184.03 237.746 183.882 237.506 183.786C237.274 183.682 237.018 183.63 236.738 183.63C236.41 183.63 236.118 183.706 235.862 183.858C235.614 184.002 235.418 184.202 235.274 184.458C235.138 184.714 235.07 185.014 235.07 185.358C235.07 185.694 235.138 185.994 235.274 186.258C235.418 186.514 235.614 186.718 235.862 186.87C236.118 187.014 236.41 187.086 236.738 187.086C237.018 187.086 237.274 187.038 237.506 186.942C237.746 186.838 237.95 186.686 238.118 186.486L238.982 187.362C238.71 187.682 238.378 187.93 237.986 188.106C237.602 188.274 237.186 188.358 236.738 188.358ZM242.456 188.358C241.896 188.358 241.388 188.226 240.932 187.962C240.476 187.69 240.112 187.326 239.84 186.87C239.576 186.414 239.444 185.906 239.444 185.346C239.444 184.786 239.576 184.282 239.84 183.834C240.112 183.386 240.476 183.03 240.932 182.766C241.388 182.494 241.896 182.358 242.456 182.358C243.024 182.358 243.536 182.49 243.992 182.754C244.448 183.018 244.808 183.378 245.072 183.834C245.344 184.282 245.48 184.786 245.48 185.346C245.48 185.906 245.344 186.414 245.072 186.87C244.808 187.326 244.448 187.69 243.992 187.962C243.536 188.226 243.024 188.358 242.456 188.358ZM242.456 187.086C242.784 187.086 243.072 187.014 243.32 186.87C243.576 186.718 243.772 186.51 243.908 186.246C244.052 185.982 244.124 185.682 244.124 185.346C244.124 185.01 244.052 184.714 243.908 184.458C243.764 184.202 243.568 184.002 243.32 183.858C243.072 183.706 242.784 183.63 242.456 183.63C242.136 183.63 241.848 183.706 241.592 183.858C241.344 184.002 241.148 184.202 241.004 184.458C240.868 184.714 240.8 185.01 240.8 185.346C240.8 185.682 240.868 185.982 241.004 186.246C241.148 186.51 241.344 186.718 241.592 186.87C241.848 187.014 242.136 187.086 242.456 187.086ZM250.526 188.238V184.914C250.526 184.53 250.402 184.214 250.154 183.966C249.914 183.718 249.602 183.594 249.218 183.594C248.962 183.594 248.734 183.65 248.534 183.762C248.334 183.874 248.178 184.03 248.066 184.23C247.954 184.43 247.898 184.658 247.898 184.914L247.382 184.626C247.382 184.186 247.478 183.798 247.67 183.462C247.862 183.118 248.126 182.85 248.462 182.658C248.806 182.458 249.19 182.358 249.614 182.358C250.046 182.358 250.43 182.47 250.766 182.694C251.102 182.91 251.366 183.194 251.558 183.546C251.75 183.89 251.846 184.25 251.846 184.626V188.238H250.526ZM246.578 188.238V182.478H247.898V188.238H246.578ZM253.993 188.238V180.078H255.313V188.238H253.993ZM252.613 183.678V182.478H256.693V183.678H252.613ZM259.9 188.358C259.38 188.358 258.908 188.226 258.484 187.962C258.068 187.698 257.736 187.342 257.488 186.894C257.248 186.438 257.128 185.93 257.128 185.37C257.128 184.802 257.248 184.294 257.488 183.846C257.736 183.39 258.068 183.03 258.484 182.766C258.908 182.494 259.38 182.358 259.9 182.358C260.34 182.358 260.728 182.454 261.064 182.646C261.408 182.83 261.68 183.086 261.88 183.414C262.08 183.742 262.18 184.114 262.18 184.53V186.186C262.18 186.602 262.08 186.974 261.88 187.302C261.688 187.63 261.42 187.89 261.076 188.082C260.732 188.266 260.34 188.358 259.9 188.358ZM260.116 187.11C260.604 187.11 260.996 186.946 261.292 186.618C261.596 186.29 261.748 185.87 261.748 185.358C261.748 185.014 261.68 184.71 261.544 184.446C261.408 184.182 261.216 183.978 260.968 183.834C260.728 183.682 260.444 183.606 260.116 183.606C259.796 183.606 259.512 183.682 259.264 183.834C259.024 183.978 258.832 184.182 258.688 184.446C258.552 184.71 258.484 185.014 258.484 185.358C258.484 185.702 258.552 186.006 258.688 186.27C258.832 186.534 259.024 186.742 259.264 186.894C259.512 187.038 259.796 187.11 260.116 187.11ZM261.664 188.238V186.69L261.892 185.286L261.664 183.894V182.478H262.984V188.238H261.664ZM264.461 188.238V182.478H265.781V188.238H264.461ZM265.121 181.422C264.897 181.422 264.709 181.346 264.557 181.194C264.413 181.042 264.341 180.854 264.341 180.63C264.341 180.406 264.413 180.218 264.557 180.066C264.709 179.914 264.897 179.838 265.121 179.838C265.353 179.838 265.541 179.914 265.685 180.066C265.829 180.218 265.901 180.406 265.901 180.63C265.901 180.854 265.829 181.042 265.685 181.194C265.541 181.346 265.353 181.422 265.121 181.422ZM271.209 188.238V184.914C271.209 184.53 271.085 184.214 270.837 183.966C270.597 183.718 270.285 183.594 269.901 183.594C269.645 183.594 269.417 183.65 269.217 183.762C269.017 183.874 268.861 184.03 268.749 184.23C268.637 184.43 268.581 184.658 268.581 184.914L268.065 184.626C268.065 184.186 268.161 183.798 268.353 183.462C268.545 183.118 268.809 182.85 269.145 182.658C269.489 182.458 269.873 182.358 270.297 182.358C270.729 182.358 271.113 182.47 271.449 182.694C271.785 182.91 272.049 183.194 272.241 183.546C272.433 183.89 272.529 184.25 272.529 184.626V188.238H271.209ZM267.261 188.238V182.478H268.581V188.238H267.261ZM276.547 188.358C275.971 188.358 275.451 188.23 274.987 187.974C274.531 187.71 274.167 187.35 273.895 186.894C273.631 186.438 273.499 185.926 273.499 185.358C273.499 184.79 273.631 184.282 273.895 183.834C274.159 183.378 274.515 183.018 274.963 182.754C275.419 182.49 275.923 182.358 276.475 182.358C277.011 182.358 277.483 182.482 277.891 182.73C278.307 182.978 278.631 183.318 278.863 183.75C279.103 184.182 279.223 184.674 279.223 185.226C279.223 185.322 279.215 185.422 279.199 185.526C279.191 185.622 279.175 185.73 279.151 185.85H274.423V184.77H278.467L277.975 185.202C277.959 184.85 277.891 184.554 277.771 184.314C277.651 184.074 277.479 183.89 277.255 183.762C277.039 183.634 276.771 183.57 276.451 183.57C276.115 183.57 275.823 183.642 275.575 183.786C275.327 183.93 275.135 184.134 274.999 184.398C274.863 184.654 274.795 184.962 274.795 185.322C274.795 185.682 274.867 185.998 275.011 186.27C275.155 186.542 275.359 186.754 275.623 186.906C275.887 187.05 276.191 187.122 276.535 187.122C276.831 187.122 277.103 187.07 277.351 186.966C277.607 186.862 277.823 186.71 277.999 186.51L278.839 187.362C278.559 187.69 278.219 187.938 277.819 188.106C277.419 188.274 276.995 188.358 276.547 188.358ZM280.281 188.238V182.478H281.601V188.238H280.281ZM281.601 185.034L281.145 184.806C281.145 184.078 281.305 183.49 281.625 183.042C281.953 182.586 282.445 182.358 283.101 182.358C283.389 182.358 283.649 182.41 283.881 182.514C284.113 182.618 284.329 182.786 284.529 183.018L283.665 183.906C283.561 183.794 283.445 183.714 283.317 183.666C283.189 183.618 283.041 183.594 282.873 183.594C282.505 183.594 282.201 183.71 281.961 183.942C281.721 184.174 281.601 184.538 281.601 185.034Z" fill="#A7B8A4"/>
<path d="M259.207 55.2929C258.817 54.9024 258.183 54.9024 257.793 55.2929L251.429 61.6569C251.038 62.0474 251.038 62.6805 251.429 63.0711C251.819 63.4616 252.453 63.4616 252.843 63.0711L258.5 57.4142L264.157 63.0711C264.547 63.4616 265.181 63.4616 265.571 63.0711C265.962 62.6805 265.962 62.0474 265.571 61.6569L259.207 55.2929ZM257.793 151.945C258.183 152.335 258.817 152.335 259.207 151.945L265.571 145.581C265.962 145.19 265.962 144.557 265.571 144.167C265.181 143.776 264.547 143.776 264.157 144.167L258.5 149.823L252.843 144.167C252.453 143.776 251.819 143.776 251.429 144.167C251.038 144.557 251.038 145.19 251.429 145.581L257.793 151.945ZM257.5 56L257.5 151.238L259.5 151.238L259.5 56L257.5 56Z" fill="black"/>
<path d="M209.558 298.558C209.458 298.015 208.937 297.655 208.394 297.754L199.541 299.374C198.998 299.473 198.638 299.994 198.737 300.538C198.837 301.081 199.358 301.441 199.901 301.341L207.77 299.901L209.21 307.771C209.31 308.314 209.831 308.674 210.374 308.575C210.917 308.475 211.277 307.954 211.178 307.411L209.558 298.558ZM157.516 371.418C157.616 371.961 158.137 372.321 158.68 372.221L167.533 370.602C168.076 370.502 168.436 369.981 168.337 369.438C168.237 368.895 167.716 368.535 167.173 368.634L159.304 370.074L157.864 362.205C157.765 361.662 157.244 361.302 156.7 361.401C156.157 361.5 155.797 362.021 155.897 362.565L157.516 371.418ZM207.751 298.17L157.677 370.67L159.323 371.806L209.397 299.306L207.751 298.17Z" fill="black"/>
<path d="M308.781 297.754C308.238 297.654 307.716 298.013 307.616 298.556L305.982 307.407C305.881 307.95 306.24 308.471 306.783 308.572C307.327 308.672 307.848 308.313 307.948 307.77L309.401 299.903L317.268 301.355C317.811 301.456 318.333 301.097 318.433 300.553C318.533 300.01 318.174 299.489 317.631 299.389L308.781 297.754ZM358.318 372.221C358.862 372.321 359.383 371.962 359.483 371.419L361.117 362.569C361.218 362.026 360.859 361.504 360.316 361.404C359.773 361.304 359.251 361.663 359.151 362.206L357.698 370.073L349.831 368.62C349.288 368.52 348.767 368.879 348.666 369.422C348.566 369.965 348.925 370.487 349.468 370.587L358.318 372.221ZM307.775 299.305L357.676 371.805L359.324 370.671L309.423 298.171L307.775 299.305Z" fill="black"/>
</svg>
