<svg width="1196" height="461" viewBox="0 0 1196 461" fill="none" xmlns="http://www.w3.org/2000/svg">
<path d="M572.228 0.750488V360.082H637.335V0.750488H572.228Z"/>
<path fill-rule="evenodd" clip-rule="evenodd" d="M366.524 354.615C380.44 361.573 396.013 365.052 413.242 365.052C435.441 365.052 455.321 359.585 472.882 348.651C490.443 337.717 504.193 322.807 514.133 303.921C524.404 285.035 529.54 263.829 529.54 240.305C529.54 216.449 524.404 195.078 514.133 176.192C504.193 157.306 490.443 142.396 472.882 131.462C455.321 120.528 435.441 115.061 413.242 115.061C396.013 115.061 380.44 118.705 366.524 125.995C358.517 130.291 351.373 135.508 345.093 141.646L345.153 120.031H280.046V460.476H344.656V338.945C350.946 345.05 358.236 350.273 366.524 354.615ZM401.811 304.915C413.739 304.915 424.341 302.264 433.619 296.963C442.896 291.33 450.02 283.709 454.99 274.101C460.291 264.161 462.942 252.73 462.942 239.808C462.942 227.217 460.291 216.117 454.99 206.509C450.02 196.569 442.896 188.948 433.619 183.647C424.341 178.014 413.739 175.198 401.811 175.198C390.214 175.198 379.777 178.014 370.5 183.647C361.222 188.948 353.933 196.569 348.632 206.509C343.662 216.117 341.177 227.217 341.177 239.808C341.177 252.73 343.662 264.161 348.632 274.101C353.933 283.709 361.057 291.33 370.003 296.963C379.28 302.264 389.883 304.915 401.811 304.915Z" fill="black"/>
<path fill-rule="evenodd" clip-rule="evenodd" d="M809.829 365.051C784.647 365.051 762.282 359.75 742.734 349.147C723.185 338.214 707.612 323.303 696.016 304.417C684.75 285.531 679.118 263.995 679.118 239.807C679.118 215.951 684.585 194.746 695.519 176.191C706.784 157.305 722.025 142.395 741.243 131.461C760.46 120.196 781.831 114.563 805.356 114.563C828.549 114.563 848.926 119.865 866.487 130.467C884.379 140.739 898.295 154.986 908.235 173.209C918.506 191.101 923.642 211.478 923.642 234.34C923.642 238.648 923.31 243.121 922.648 247.759C922.316 252.067 921.488 257.037 920.163 262.669L744.616 263.141C745.887 268.078 747.579 272.725 749.692 277.082C755.324 287.685 763.276 295.968 773.548 301.932C783.819 307.565 795.747 310.381 809.332 310.381C821.591 310.381 832.691 308.393 842.631 304.417C852.571 300.11 861.185 293.815 868.475 285.531L906.744 323.8C895.147 337.385 880.9 347.656 864.002 354.614C847.435 361.572 829.377 365.051 809.829 365.051ZM860.872 214.056L744.652 214.43C745.817 210.019 747.331 205.887 749.195 202.035C754.496 191.433 761.951 183.315 771.56 177.682C781.168 171.718 792.434 168.736 805.356 168.736C817.615 168.736 827.886 171.387 836.17 176.688C844.784 181.658 851.245 188.948 855.553 198.556C857.787 203.185 859.56 208.352 860.872 214.056Z" fill="black"/>
<path d="M0.96875 228.341C0.96875 165.755 51.7047 115.019 114.291 115.019C176.877 115.019 227.613 165.755 227.613 228.341V360.045H161.49V180.194H67.0917V360.045H0.96875V228.341Z" fill="black"/>
<path d="M1113.06 240.039L1195.09 158.008L1152.08 114.996L1070.05 197.027L988.017 114.996L945.005 158.008L1027.04 240.039L945.005 322.069L988.017 365.082L1070.05 283.051L1152.08 365.082L1195.09 322.069L1113.06 240.039Z" fill="black"/>
</svg>
