<svg width="24" height="24" viewBox="0 0 24 24" fill="none" xmlns="http://www.w3.org/2000/svg">
<path d="M10 20H4M18 9H16C14.8954 9 14 8.10457 14 7V6C14 4.89543 14.8954 4 16 4H18C19.1046 4 20 4.89543 20 6V7C20 8.10457 19.1046 9 18 9ZM6 16H8C9.10457 16 10 15.1046 10 14V6C10 4.89543 9.10457 4 8 4H6C4.89543 4 4 4.89543 4 6V14C4 15.1046 4.89543 16 6 16ZM16 20H18C19.1046 20 20 19.1046 20 18V15C20 13.8954 19.1046 13 18 13H16C14.8954 13 14 13.8954 14 15V18C14 19.1046 14.8954 20 16 20Z" stroke="black" stroke-width="2" stroke-linecap="round"/>
</svg>
