<svg width="240" height="177" viewBox="0 0 240 177" fill="none" xmlns="http://www.w3.org/2000/svg">
<path d="M82.7426 56.2787C82.7426 56.2787 82.8016 56.744 82.2172 56.744C81.6374 56.744 81.6374 56.2787 81.6374 56.2787V35.4387C81.6374 35.4387 81.6374 34.9147 82.1598 34.9147C82.7426 34.9147 82.7426 35.4387 82.7426 35.4387V56.2787Z" fill="#100F0D"/>
<path fill-rule="evenodd" clip-rule="evenodd" d="M0.896973 86.4426H235.605V0.898621H0.896973V86.4426ZM118.252 3.30928H233.276V84.0254H118.252V3.30928ZM87.34 59.2947H31.8066V61.6227H87.34V59.2947ZM28.6641 63.2521H90.3683V65.5803H28.6641V63.2521ZM25.7529 69.5401H93.3947V67.2104H25.7529V69.5401ZM31.8066 29.9426H87.34V32.2706H31.8066V29.9426ZM43.0436 28.444L59.5504 23.4946L75.7583 28.444H82.5103L59.5504 21.3426L36.29 28.444H43.0436ZM31.8062 25.94L59.5499 17.3826L87.3395 25.94V28.4426L59.5499 20.0026L31.8062 28.4426V25.94ZM35.0684 56.2787C35.0684 56.2787 35.0684 58.0253 37.046 58.0253C39.0256 58.0253 38.91 56.2787 38.91 56.2787V33.692H37.4537V56.336C37.4537 56.336 37.4537 56.744 36.9313 56.744C36.4058 56.744 36.523 56.2213 36.523 56.2213V33.692H35.0684V56.2787ZM45.3694 58.024H44.207V33.6907H45.3694L46.8252 46.696V33.6907H48.0481V58.024H46.8252L45.3694 43.3946V58.024ZM53.4629 58.024H57.1878V56.7426H55.092V45.7413H56.6638V44.4026H55.092V34.9133H56.6638V33.6907H53.4629V58.024ZM74.8831 35.4387V40.9107H73.4284V35.4387C73.4284 35.4387 73.4284 34.9147 72.9633 34.9147C72.4377 34.9147 72.4377 35.4387 72.4377 35.4387V56.2787C72.4377 56.2787 72.5257 56.744 72.9633 56.744C73.4284 56.744 73.4284 56.2787 73.4284 56.2787V50.1653H74.8831V56.2787C74.8831 56.2787 74.8831 58.0253 72.9633 58.0253C71.0404 58.0253 71.1008 56.2787 71.1008 56.2787V35.4387C71.1008 35.4387 71.1008 33.692 72.9633 33.692C74.8248 33.692 74.8831 35.4387 74.8831 35.4387ZM84.1401 35.4387C84.1401 35.4387 84.2546 33.692 82.2172 33.692C80.1812 33.692 80.1812 35.4387 80.1812 35.4387V56.2787C80.1812 56.2787 80.1812 58.0253 82.1016 58.0253C84.1401 58.0253 84.1401 56.2787 84.1401 56.2787V35.4387ZM63.8528 56.7147C64.2314 56.744 64.2314 56.2787 64.2314 56.2787V50.6613C64.2314 49.5583 63.7348 47.8445 63.206 46.02C62.6041 43.9432 61.9606 41.7228 61.9606 40.096V35.4387C61.9606 35.4387 61.9606 33.7507 63.882 33.692C65.8024 33.6333 65.745 35.4387 65.745 35.4387V40.9107H64.2314V35.4387C64.2314 35.4387 64.2314 34.9147 63.8221 34.9147C63.4153 34.9147 63.4726 35.4387 63.4726 35.4387V40.9133C63.4726 41.7124 63.9178 43.2264 64.4138 44.9132C65.0367 47.0319 65.7398 49.4233 65.7418 51.0133C65.745 52.204 65.745 56.2787 65.745 56.2787C65.745 56.2787 65.745 58.0253 63.8221 58.0253C61.9024 58.0253 61.9606 56.2787 61.9606 56.2787V50.1653H63.4726V56.2787C63.4726 56.2787 63.4726 56.6853 63.8528 56.7147Z" fill="#100F0D"/>
<path d="M158.52 40.1693V44.4866C158.52 45.6386 158.214 46.5533 157.604 47.2266C156.992 47.9013 156.173 48.2373 155.148 48.2373C154.124 48.2373 153.31 47.9013 152.702 47.2266C152.094 46.5533 151.789 45.6386 151.789 44.4866V40.1693H153.21V44.7453C153.21 45.368 153.392 45.8773 153.761 46.2693C154.128 46.6626 154.596 46.8586 155.165 46.8586C155.738 46.8586 156.209 46.6626 156.572 46.2693C156.933 45.8773 157.113 45.368 157.113 44.7453V40.1693H158.52Z" fill="#100F0D"/>
<path d="M160.258 48.088V43.772C160.258 42.6187 160.564 41.7053 161.178 41.0333C161.792 40.3587 162.61 40.0213 163.632 40.0213C164.654 40.0213 165.469 40.3587 166.077 41.0333C166.685 41.7053 166.989 42.6187 166.989 43.772V48.088H165.584V43.5133C165.584 42.8907 165.402 42.3813 165.041 41.988C164.678 41.5947 164.209 41.4 163.634 41.4C163.064 41.4 162.597 41.5947 162.229 41.988C161.861 42.3813 161.674 42.8907 161.674 43.5133V48.088H160.258Z" fill="#100F0D"/>
<path d="M168.785 37.1987C168.785 36.9627 168.868 36.7627 169.034 36.596C169.201 36.4293 169.406 36.3453 169.648 36.3453C169.888 36.3453 170.092 36.428 170.257 36.592C170.421 36.756 170.501 36.9573 170.501 37.1987C170.501 37.4453 170.421 37.6533 170.257 37.8227C170.092 37.9907 169.888 38.076 169.648 38.076C169.413 38.076 169.209 37.9907 169.04 37.8187C168.869 37.6467 168.785 37.44 168.785 37.1987ZM170.353 48.088H168.936V40.168H170.353V48.088Z" fill="#100F0D"/>
<path d="M176.537 48.088V37.952H172.281V36.5187H191.416V37.952H178.077V48.088H176.537Z" fill="#100F0D"/>
<path d="M191.4 40.1693V44.7453C191.4 45.8226 191.117 46.6746 190.552 47.3C189.988 47.9253 189.228 48.2373 188.279 48.2373C187.783 48.2373 187.328 48.1333 186.916 47.9253C186.501 47.716 186.145 47.412 185.851 47.0133C185.532 47.4186 185.171 47.724 184.761 47.9293C184.352 48.1346 183.907 48.2373 183.421 48.2373C182.469 48.2373 181.709 47.924 181.143 47.2946C180.573 46.668 180.291 45.816 180.291 44.7453V40.1693H181.709V44.9946C181.709 45.5546 181.865 46.0053 182.18 46.3466C182.493 46.688 182.909 46.8586 183.424 46.8586C183.933 46.8586 184.351 46.6866 184.672 46.3426C184.993 45.9973 185.155 45.548 185.155 44.9946V40.1693H186.561V44.9946C186.561 45.5546 186.719 46.0053 187.032 46.3466C187.347 46.688 187.761 46.8586 188.279 46.8586C188.783 46.8586 189.193 46.6866 189.515 46.3426C189.835 45.9973 189.993 45.548 189.993 44.9946V40.1693H191.4Z" fill="#100F0D"/>
<path d="M193.109 37.1987C193.109 36.9627 193.192 36.7627 193.359 36.596C193.525 36.4293 193.731 36.3453 193.971 36.3453C194.213 36.3453 194.415 36.428 194.58 36.592C194.744 36.756 194.827 36.9573 194.827 37.1987C194.827 37.4453 194.744 37.6533 194.58 37.8227C194.415 37.9907 194.213 38.076 193.971 38.076C193.736 38.076 193.532 37.9907 193.363 37.8187C193.192 37.6467 193.109 37.44 193.109 37.1987ZM194.679 48.088H193.263V40.168H194.679V48.088Z" fill="#100F0D"/>
<path d="M196.512 48.088V43.772C196.512 42.6187 196.818 41.7053 197.43 41.0333C198.045 40.3587 198.865 40.0213 199.885 40.0213C200.908 40.0213 201.722 40.3587 202.33 41.0333C202.937 41.7053 203.242 42.6187 203.242 43.772V48.088H201.836V43.5133C201.836 42.8907 201.656 42.3813 201.293 41.988C200.93 41.5947 200.461 41.4 199.886 41.4C199.318 41.4 198.852 41.5947 198.484 41.988C198.114 42.3813 197.93 42.8907 197.93 43.5133V48.088H196.512Z" fill="#100F0D"/>
<path d="M162.049 22.812L162.046 22.8573L162.117 22.7626L162.049 22.812Z" fill="#100F0D"/>
<path d="M163.673 23.6787L163.661 23.5813C163.535 23.6667 163.417 23.752 163.297 23.8387C163.013 24.2333 162.749 24.6387 162.5 25.0493C163.148 26.4973 164.803 28.636 168.981 30C169.039 29.5147 169.112 28.988 169.201 28.428C165.737 27.2427 164.049 25.424 163.673 23.6787Z" fill="#100F0D"/>
<path d="M178.045 29.7387C175.112 29.688 172.692 29.372 170.726 28.876C170.636 29.436 170.569 29.9587 170.516 30.4333C172.517 30.9227 174.985 31.2467 178.045 31.2947V29.7387Z" fill="#100F0D"/>
<path d="M159.761 26.8333C157.635 31.4866 157.177 35.976 157.144 36.3066H158.7C158.709 36.2146 159.337 30.2547 162.5 25.0493C162.424 24.8787 162.361 24.7186 162.309 24.5706C161.38 25.2973 160.531 26.0586 159.761 26.8333Z" fill="#100F0D"/>
<path d="M162.15 24.0066C162.068 23.616 162.036 23.1853 162.049 22.8093L162.044 22.788C154.869 27.992 152.094 35.3946 151.765 36.3146H153.436C154.044 34.8093 155.943 30.676 159.761 26.8333C160.531 26.0586 161.378 25.2973 162.31 24.5706C162.234 24.3546 162.185 24.1613 162.15 24.0066Z" fill="#100F0D"/>
<path d="M167.711 19.628C166.401 20.1693 165.184 20.7866 164.063 21.4653C163.699 21.976 163.539 22.6506 163.629 23.3813C163.64 23.448 163.647 23.5147 163.661 23.5813C165.975 22 168.743 20.6693 172.02 19.8653C172.356 19.244 172.728 18.6293 173.136 18.0333C171.169 18.4053 169.363 18.948 167.711 19.628Z" fill="#100F0D"/>
<path d="M168.981 30C168.771 31.8373 168.797 33.0346 168.8 33.1786H170.344C170.344 33.1466 170.334 32.0827 170.514 30.4347C169.969 30.3013 169.459 30.156 168.981 30Z" fill="#100F0D"/>
<path d="M169.203 28.428C169.675 28.5893 170.185 28.74 170.726 28.876C171.161 26.1587 172.093 22.5853 174.083 19.44C173.372 19.5573 172.688 19.704 172.021 19.8667C170.423 22.8187 169.613 25.9413 169.203 28.428Z" fill="#100F0D"/>
<path d="M176.537 67.5297L176.457 67.7495C178.229 67.3297 184.738 65.3697 190.397 58.32C189.936 58.1067 189.426 57.9013 188.854 57.7067C184.293 63.1588 179.228 65.2697 176.953 65.9855C176.89 66.3177 176.82 66.6203 176.744 66.8896" fill="#100F0D"/>
<path d="M193.069 51.156C192.041 53.3053 191.072 54.8253 189.871 56.4293C190.409 56.6333 190.903 56.8453 191.352 57.0667C192.521 55.4533 193.808 53.2733 194.819 51.156H193.069Z" fill="#100F0D"/>
<path d="M194.428 61.9533C190.77 65.2136 185.504 67.9973 178.092 68.0932V69.6505C185.261 69.5562 190.597 67.1197 194.298 64.0745C194.802 63.065 194.428 61.9533 194.428 61.9533Z" fill="#100F0D"/>
<path d="M196.064 62.5402C201.436 57.4254 203.329 51.272 203.361 51.168L201.727 51.1547C201.609 51.5334 200.064 56.2947 195.617 60.8254C195.829 61.2387 196.036 61.9694 196.064 62.5402Z" fill="#100F0D"/>
<path d="M167.464 56.956L168.148 58.356C168.788 58.044 169.404 57.796 170.344 57.5013C170.197 56.9826 170.061 56.4786 169.936 55.9973C168.885 56.3253 168.176 56.6093 167.464 56.956Z" fill="#100F0D"/>
<path d="M181.253 56.3933C184.529 56.576 186.997 57.076 188.854 57.7067C189.196 57.3 189.535 56.876 189.871 56.428C187.797 55.6547 185.036 55.0467 181.341 54.84C180.099 54.7693 178.939 54.7547 177.855 54.7853C177.841 55.276 177.825 55.7973 177.803 56.3427C178.872 56.312 180.017 56.324 181.253 56.3933Z" fill="#100F0D"/>
<path d="M176.348 56.428C176.371 55.8827 176.387 55.3573 176.401 54.864C174.619 54.9907 172.776 55.2427 171.451 55.5573C171.575 56.0387 171.709 56.5427 171.857 57.06C173.052 56.776 174.747 56.552 176.348 56.428Z" fill="#100F0D"/>
<path d="M195.629 60.856C195.144 59.9026 193.991 58.36 191.351 57.0653C191.039 57.4986 190.719 57.9186 190.396 58.3186C193.643 59.8173 194.328 61.6626 194.429 62.0053C194.851 61.628 195.249 61.244 195.629 60.856Z" fill="#100F0D"/>
<path d="M168.937 51.156C168.965 51.3453 169.294 53.416 169.949 55.9706C170.418 55.8253 170.921 55.6866 171.461 55.5573C170.808 53.0093 170.51 51.2013 170.502 51.156" fill="#100F0D"/>
<path d="M175.268 66.3973C175.352 66.0854 175.432 65.7213 175.505 65.3136C173.983 63.0213 172.627 59.8413 171.832 57.06C171.291 57.188 170.789 57.3266 170.323 57.4733C171.273 60.804 172.943 64.7254 174.988 67.236L175.069 67.0136" fill="#100F0D"/>
<path d="M176.353 56.428C176.237 59.4307 175.91 63.0339 175.506 65.3125C175.714 65.6312 175.936 65.9328 176.164 66.214C176.364 66.162 176.63 66.0885 176.956 65.986C177.436 63.5448 177.794 59.5693 177.914 56.3427C177.37 56.36 176.854 56.3907 176.353 56.428Z" fill="#100F0D"/>
<path d="M176.488 51.18C176.488 51.2227 176.477 52.764 176.415 54.8813C176.917 54.844 177.437 54.8187 177.977 54.804C178.033 52.8147 178.044 51.36 178.047 51.188" fill="#100F0D"/>
<path d="M164.063 21.4667C163.381 21.8786 162.737 22.284 162.12 22.7333L162.044 22.788C162.034 23.1626 162.068 23.6173 162.15 24.0066C162.186 24.1626 162.236 24.3533 162.311 24.5693C162.361 24.7187 162.424 24.8787 162.5 25.0493C162.751 24.6387 163.015 24.2333 163.297 23.8373C163.417 23.752 163.535 23.6653 163.66 23.5813C163.647 23.5133 163.639 23.448 163.632 23.3827C163.537 22.652 163.699 21.9773 164.063 21.4667Z" fill="#100F0D"/>
<path d="M174.083 19.44C174.463 18.8387 174.88 18.252 175.339 17.692C174.583 17.7774 173.853 17.8974 173.137 18.0334C172.727 18.632 172.356 19.2454 172.02 19.8667C172.689 19.7027 173.373 19.5573 174.083 19.44Z" fill="#100F0D"/>
<path d="M170.726 28.876C170.185 28.74 169.679 28.5907 169.201 28.428C169.112 28.9867 169.039 29.5147 168.981 30C169.461 30.1547 169.97 30.3 170.516 30.4333C170.569 29.96 170.637 29.436 170.726 28.876Z" fill="#100F0D"/>
<path d="M189.869 56.428C189.533 56.876 189.196 57.3 188.856 57.7067C189.425 57.9 189.935 58.1067 190.397 58.3187C190.717 57.9187 191.036 57.5 191.351 57.0667C190.9 56.8453 190.408 56.6307 189.869 56.428Z" fill="#100F0D"/>
<path d="M171.452 55.5573C170.912 55.6853 170.408 55.824 169.938 55.9707C170.062 56.4493 170.2 56.9547 170.348 57.4733C170.813 57.3267 171.313 57.188 171.857 57.06C171.708 56.5427 171.573 56.0387 171.452 55.5573Z" fill="#100F0D"/>
<path d="M177.913 56.3426C177.933 55.7973 177.949 55.276 177.965 54.7853C177.424 54.8027 176.903 54.8267 176.401 54.864C176.387 55.3573 176.371 55.8827 176.348 56.428C176.852 56.3907 177.368 56.36 177.913 56.3426Z" fill="#100F0D"/>
<path d="M176.164 66.214C175.936 65.9323 175.717 65.6312 175.506 65.3125C175.433 65.7203 175.353 66.0853 175.268 66.3973C175.227 66.5482 175.184 66.6906 175.136 66.8156L175.068 67.013L174.989 67.236C175.039 67.2984 175.088 67.3582 175.137 67.4172C175.191 67.477 175.239 67.5385 175.289 67.5958L175.42 67.7437L175.579 67.9208L176.007 67.8453C176.037 67.8396 176.116 67.8265 176.231 67.7994C176.295 67.7874 176.372 67.7702 176.459 67.7505L176.537 67.5297L176.604 67.3421C176.653 67.2062 176.699 67.0516 176.745 66.889C176.82 66.6208 176.89 66.3168 176.956 65.986C176.629 66.0887 176.362 66.162 176.164 66.214Z" fill="#100F0D"/>
<path d="M195.617 60.8254L194.426 61.9534C194.426 61.9534 194.793 63.1766 194.3 64.075C195.488 63.1766 196.064 62.5402 196.064 62.5402C196.064 62.5402 196.024 61.656 195.617 60.8254Z" fill="#100F0D"/>
<path d="M10.6525 175.84C10.0577 176.16 8.74679 176.48 7.08679 176.48C2.70293 176.48 0.0405273 173.621 0.0405273 169.245C0.0405273 164.508 3.1952 161.647 7.41493 161.647C9.07493 161.647 10.2629 162.01 10.7749 162.288L10.2217 164.379C9.56706 164.081 8.66439 163.824 7.51759 163.824C4.71079 163.824 2.6816 165.66 2.6816 169.117C2.6816 172.276 4.46439 174.304 7.49773 174.304C8.52173 174.304 9.5868 174.091 10.2416 173.769L10.6525 175.84Z" fill="#100F0D"/>
<path d="M12.2251 161.115H14.7651V167.304H14.8068C15.1146 166.812 15.524 166.408 16.0574 166.108C16.5479 165.809 17.1427 165.639 17.7771 165.639C19.4771 165.639 21.2599 166.812 21.2599 170.143V176.267H18.7402V170.44C18.7402 168.925 18.2079 167.795 16.8146 167.795C15.8307 167.795 15.1344 168.476 14.8678 169.267C14.7864 169.48 14.7651 169.757 14.7651 170.056V176.267H12.2251V161.115Z" fill="#100F0D"/>
<path d="M28.8773 171.188C27.0945 171.145 25.3945 171.551 25.3945 173.131C25.3945 174.155 26.0295 174.624 26.8279 174.624C27.832 174.624 28.5705 173.94 28.7945 173.195C28.856 173.002 28.8773 172.788 28.8773 172.617V171.188ZM29.2055 176.268L29.0415 175.115H28.98C28.3653 175.927 27.32 176.502 26.0295 176.502C24.0211 176.502 22.8945 174.988 22.8945 173.408C22.8945 170.783 25.1279 169.459 28.8159 169.481V169.31C28.8159 168.627 28.5492 167.495 26.7877 167.495C25.8039 167.495 24.78 167.816 24.1039 168.265L23.6123 166.556C24.3492 166.088 25.6399 165.639 27.2175 165.639C30.4133 165.639 31.3361 167.752 31.3361 170.015V173.771C31.3361 174.709 31.3773 175.627 31.4789 176.268H29.2055Z" fill="#100F0D"/>
<path d="M33.6067 165.873H36.1468V176.267H33.6067V165.873ZM36.2895 162.972C36.2895 163.761 35.7373 164.379 34.8561 164.379C34.016 164.379 33.4624 163.761 33.4624 162.972C33.4624 162.16 34.0359 161.54 34.8759 161.54C35.7373 161.54 36.2692 162.16 36.2895 162.972Z" fill="#100F0D"/>
<path d="M38.5002 169.224C38.5002 167.815 38.4789 166.812 38.418 165.873H40.6112L40.6924 167.859H40.7752C41.2658 166.385 42.4336 165.639 43.4992 165.639C43.7456 165.639 43.8882 165.66 44.0934 165.703V168.179C43.8882 168.136 43.6633 168.092 43.3565 168.092C42.147 168.092 41.3284 168.904 41.1018 170.079C41.0617 170.312 41.0205 170.59 41.0205 170.89V176.267H38.5002V169.224Z" fill="#100F0D"/>
<path d="M193.413 132.335C191.644 134.1 189.291 135.072 186.792 135.072C181.617 135.072 177.412 130.862 177.412 125.692C177.412 120.521 181.617 116.31 186.792 116.31C189.272 116.31 191.608 117.272 193.376 119.014L193.615 119.25L197.887 110.171L197.724 110.055C194.496 107.77 190.7 106.561 186.743 106.561C176.241 106.561 167.699 115.104 167.699 125.604C167.699 136.105 176.241 144.648 186.743 144.648C190.691 144.648 194.481 143.445 197.705 141.168L197.867 141.052L193.653 132.093L193.413 132.335Z" fill="#100F0D"/>
<path d="M220.448 135.09C215.284 135.09 211.084 130.89 211.084 125.726C211.084 120.561 215.284 116.361 220.448 116.361C225.609 116.361 229.809 120.561 229.809 125.726C229.809 130.89 225.609 135.09 220.448 135.09ZM220.398 106.625C209.914 106.625 201.388 115.155 201.388 125.637C201.388 136.12 209.914 144.648 220.398 144.648C230.881 144.648 239.409 136.12 239.409 125.637C239.409 115.155 230.881 106.625 220.398 106.625Z" fill="#100F0D"/>
<path d="M12.4063 107.759V127.419C12.4063 129.016 12.5651 131.495 14.4047 133.173C15.2022 133.891 16.6412 134.851 19.1995 134.851C21.3558 134.851 23.0344 134.131 24.073 133.173C25.7531 131.575 25.9918 129.176 25.9918 127.419V107.759H37.4995V128.537C37.4995 132.614 37.0984 136.449 33.5036 139.964C29.4276 143.959 23.4344 144.6 19.1995 144.6C14.8036 144.6 8.89017 143.959 4.81404 139.964C1.53804 136.769 0.898438 133.173 0.898438 129.257V107.759H12.4063Z" fill="#100F0D"/>
<path d="M46.4478 107.759H57.9556V111.995C61.4718 107.518 65.6264 106.8 68.9838 106.8C72.101 106.8 76.1759 107.36 79.213 110.397C82.5692 113.753 82.8078 117.99 82.8078 120.865V143.4H71.3009V125.1C71.3009 122.784 71.2212 119.828 69.3821 117.99C68.5051 117.112 67.0639 116.391 64.989 116.391C62.589 116.391 61.0717 117.348 60.1916 118.309C58.2744 120.226 57.9556 122.784 57.9556 125.1V143.4H46.4478V107.759Z" fill="#100F0D"/>
<path d="M117.648 120.705C117.568 120.386 117.009 118.148 115.331 116.55C114.053 115.35 112.215 114.553 109.896 114.553C106.941 114.553 105.182 115.751 104.063 116.869C103.184 117.829 102.386 119.109 102.065 120.705H117.648ZM128.279 127.576H101.666C101.666 129.497 102.386 132.053 103.823 133.652C105.582 135.568 107.979 135.891 109.736 135.891C111.415 135.891 113.174 135.568 114.372 134.849C114.531 134.771 115.889 133.893 116.848 131.895L127.717 133.012C126.12 138.048 122.923 140.681 120.845 141.961C117.408 144.04 113.572 144.602 109.578 144.602C104.223 144.602 99.5085 143.64 95.3537 139.484C92.2365 136.368 89.999 131.653 89.999 125.738C89.999 120.624 91.8365 115.35 95.4324 111.676C99.7485 107.359 105.103 106.56 109.098 106.56C113.094 106.56 118.847 107.281 123.243 111.914C127.477 116.392 128.279 121.984 128.279 126.38V127.576Z" fill="#100F0D"/>
<path d="M157.284 116.871C155.526 115.831 153.208 114.871 150.972 114.871C149.773 114.871 148.414 115.191 147.693 115.909C147.294 116.31 146.976 116.951 146.976 117.509C146.976 118.309 147.534 118.786 148.094 119.107C148.893 119.586 150.093 119.827 151.532 120.305L154.568 121.265C156.564 121.903 158.644 122.704 160.481 124.381C162.56 126.302 163.277 128.456 163.277 131.176C163.277 135.89 161.201 138.925 159.602 140.525C156.085 144.041 151.769 144.598 148.014 144.598C143.218 144.598 138.025 143.563 133.389 139.485L138.265 131.732C139.382 132.692 140.982 133.812 142.181 134.371C143.778 135.171 145.457 135.491 146.976 135.491C147.693 135.491 149.534 135.491 150.57 134.691C151.292 134.129 151.769 133.252 151.769 132.373C151.769 131.732 151.532 130.935 150.492 130.295C149.692 129.816 148.654 129.497 146.976 129.016L144.1 128.139C142.02 127.498 139.864 126.38 138.345 124.863C136.666 123.103 135.788 121.105 135.788 118.388C135.788 114.953 137.145 112.074 139.224 110.155C142.42 107.199 146.736 106.56 150.013 106.56C155.286 106.56 158.962 107.919 161.838 109.597L157.284 116.871Z" fill="#100F0D"/>
</svg>
