<svg width="24" height="24" viewBox="0 0 24 24" fill="none" xmlns="http://www.w3.org/2000/svg">
<path d="M4 7.34315V6C4 4.89543 4.89543 4 6 4H18C19.1046 4 20 4.89543 20 6V7.34315C20 8.40401 19.5786 9.42143 18.8284 10.1716L14.8787 14.1213C14.3161 14.6839 14 15.447 14 16.2426V18.5C14 18.8148 13.8518 19.1111 13.6 19.3L12 20.5L11.6 20.8C10.9408 21.2944 10 20.824 10 20V16.2426C10 15.447 9.68393 14.6839 9.12132 14.1213L5.17157 10.1716C4.42143 9.42143 4 8.40401 4 7.34315Z" stroke="black" stroke-width="2" stroke-linejoin="round"/>
</svg>
