<svg width="24" height="24" viewBox="0 0 24 24" fill="none" xmlns="http://www.w3.org/2000/svg">
<rect x="4" y="4" width="16" height="16" rx="4" stroke="black" stroke-width="2"/>
<path d="M19 17L17.432 15.432C17.4155 15.4155 17.4072 15.4072 17.4002 15.4003C16.6225 14.6378 15.3775 14.6378 14.5998 15.4003C14.5928 15.4072 14.5845 15.4155 14.568 15.432V15.432C14.5502 15.4498 14.5412 15.4588 14.5338 15.4661C13.7054 16.2774 12.3629 16.2165 11.6114 15.3335C11.6046 15.3256 11.5965 15.3158 11.5804 15.2964L10.2853 13.7424C9.46787 12.7614 9.05914 12.271 8.55647 12.0859C8.16881 11.9432 7.74648 11.9241 7.3475 12.0311C6.83015 12.1699 6.37869 12.6213 5.47576 13.5242L4 15" stroke="black" stroke-width="2" stroke-linecap="round"/>
<circle cx="14.5" cy="9.5" r="1.5" stroke="black" stroke-width="2"/>
</svg>
