<svg width="32" height="32" viewBox="0 0 32 32" fill="none" xmlns="http://www.w3.org/2000/svg">
<path d="M18 3H10C7.79086 3 6 4.79086 6 7V24.1421C6 25.9281 8.16284 26.8185 9.42027 25.5502L12.5797 22.3635C13.3621 21.5744 14.6379 21.5744 15.4203 22.3635L18.5797 25.5502C19.8372 26.8185 22 25.9281 22 24.1421V7C22 4.79086 20.2091 3 18 3Z" stroke="black" stroke-width="2" stroke-linecap="square"/>
<path d="M14 27L12.5858 28.4142C12.2107 28.7893 11.702 29 11.1716 29H11M25.5 7.5V7.5C25.8201 7.82014 26 8.25435 26 8.70711V26C26 27.6569 24.6569 29 23 29V29" stroke="black" stroke-width="2" stroke-linecap="square"/>
</svg>
