<svg width="32" height="32" viewBox="0 0 32 32" fill="none" xmlns="http://www.w3.org/2000/svg">
<path d="M7 11.8837C7 6.97739 10.9774 3 15.8837 3H16.1163C21.0226 3 25 6.97739 25 11.8837V11.8837C25 13.901 24.3135 15.8582 23.0533 17.4334L22.0925 18.6344C21.3699 19.5377 20.8128 20.5617 20.447 21.6591V21.6591C20.18 22.4599 19.4306 23 18.5865 23H13.4135C12.5694 23 11.82 22.4599 11.553 21.6591V21.6591C11.1872 20.5617 10.6301 19.5377 9.90753 18.6344L8.94671 17.4334C7.68654 15.8582 7 13.901 7 11.8837V11.8837Z" stroke="black" stroke-width="2" stroke-linejoin="round"/>
<path d="M19 26L13 26" stroke="black" stroke-width="2" stroke-linecap="square" stroke-linejoin="round"/>
<path d="M17 29H15" stroke="black" stroke-width="2" stroke-linecap="square" stroke-linejoin="round"/>
<path d="M21 12C21 9.23858 18.7614 7 16 7" stroke="black" stroke-width="2" stroke-linecap="square" stroke-linejoin="round"/>
</svg>
