<svg width="32" height="32" viewBox="0 0 32 32" fill="none" xmlns="http://www.w3.org/2000/svg">
<path d="M5.08739 17.4085L13.7329 27.3842C14.9292 28.7644 17.0708 28.7644 18.2671 27.3842L26.9126 17.4085C28.272 15.8399 29.1227 13.8953 29.352 11.8323C29.7186 8.53256 27.5013 5.50027 24.2458 4.84915L23.9898 4.79795C21.539 4.3078 19.0195 5.22558 17.4583 7.17718L16.6816 8.14805C16.3321 8.58482 15.6679 8.58481 15.3184 8.14805L14.5417 7.17718C12.9805 5.22557 10.461 4.3078 8.01024 4.79795L7.75424 4.84915C4.49866 5.50027 2.2814 8.53256 2.64803 11.8323C2.87726 13.8953 3.72795 15.8399 5.08739 17.4085Z" stroke="black" stroke-width="2"/>
</svg>
