<svg width="24" height="24" viewBox="0 0 24 24" fill="none" xmlns="http://www.w3.org/2000/svg">
<path d="M3.91381 6.59386L9.96931 3.90253C11.2621 3.32794 12.7379 3.32794 14.0307 3.90253L20.0862 6.59386C20.6419 6.84083 21 7.3919 21 8C21 8.6081 20.6419 9.15917 20.0862 9.40614L14.0307 12.0975C12.7379 12.6721 11.2621 12.6721 9.96931 12.0975L3.91381 9.40614C3.35812 9.15916 3 8.6081 3 8C3 7.3919 3.35812 6.84083 3.91381 6.59386Z" stroke="black" stroke-width="2" stroke-linecap="round"/>
<path d="M3 17L9.96931 20.0975C11.2621 20.6721 12.7379 20.6721 14.0307 20.0975L21 17" stroke="black" stroke-width="2" stroke-linecap="round"/>
<path d="M3 13L9.96931 16.0975C11.2621 16.6721 12.7379 16.6721 14.0307 16.0975L21 13" stroke="black" stroke-width="2" stroke-linecap="round"/>
</svg>
