<svg width="24" height="24" viewBox="0 0 24 24" fill="none" xmlns="http://www.w3.org/2000/svg">
<path d="M3 6.44152C3 5.58066 3.55086 4.81638 4.36754 4.54415L7.60804 3.46399C8.48631 3.17123 9.45054 3.30036 10.2208 3.81388L14.1861 6.45741C14.6996 6.79976 15.3425 6.88585 15.928 6.69068L18.3675 5.87749C19.6626 5.4458 21 6.40974 21 7.77485V17.5585C21 18.4193 20.4491 19.1836 19.6325 19.4558L16.392 20.536C15.5137 20.8288 14.5495 20.6996 13.7792 20.1861L9.81388 17.5426C9.30036 17.2002 8.65754 17.1142 8.07203 17.3093L5.63246 18.1225C4.33739 18.5542 3 17.5903 3 16.2251V6.44152Z" stroke="black" stroke-width="2" stroke-linejoin="round"/>
<path d="M9 7V14M15 10V17" stroke="black" stroke-width="2" stroke-linecap="round"/>
</svg>
