<svg width="24" height="24" viewBox="0 0 24 24" fill="none" xmlns="http://www.w3.org/2000/svg">
<path d="M6.73795 7.96084C6.90299 7.35572 7.34234 6.86306 7.9247 6.63012L10.7755 5.48979C11.5184 5.19265 12.3668 5.3668 12.9325 5.93253L16.0675 9.06747C16.6332 9.6332 16.8073 10.4816 16.5102 11.2245L15.3699 14.0753C15.1369 14.6577 14.6443 15.097 14.0392 15.262L5.68834 17.5395C4.94184 17.7431 4.25686 17.0582 4.46046 16.3117L6.73795 7.96084Z" stroke="black" stroke-width="2"/>
<path d="M5 17L11 11" stroke="black" stroke-width="2" stroke-linecap="round" stroke-linejoin="round"/>
<path d="M12 5L12.6467 4.02988C13.3468 2.97975 14.8326 2.83263 15.7251 3.72506L18.2749 6.27494C19.1674 7.16737 19.0202 8.65317 17.9701 9.35325L17 10" stroke="black" stroke-width="2" stroke-linecap="round" stroke-linejoin="round"/>
<path d="M5 21L19 21" stroke="black" stroke-width="2" stroke-linecap="round" stroke-linejoin="round"/>
</svg>
