<svg width="24" height="24" viewBox="0 0 24 24" fill="none" xmlns="http://www.w3.org/2000/svg">
<path d="M4.48454 13.1605L3.15238 14.683C2.49259 15.437 2.49259 16.563 3.15238 17.317L4.48454 18.8395C6.87501 21.5714 11.125 21.5714 13.5155 18.8395L14.8476 17.317C15.5074 16.563 15.5074 15.437 14.8476 14.683L13.5155 13.1605C11.125 10.4286 6.87501 10.4286 4.48454 13.1605Z" stroke="black" stroke-width="2" stroke-linejoin="round"/>
<path d="M10 16C10 16.5523 9.55228 17 9 17C8.44772 17 8 16.5523 8 16C8 15.4477 8.44772 15 9 15C9.55228 15 10 15.4477 10 16Z" stroke="black" stroke-width="2"/>
<path d="M17 21V21C19.2091 21 21 19.2091 21 17V7.65685C21 6.59599 20.5786 5.57857 19.8284 4.82843L19.1716 4.17157C18.4214 3.42143 17.404 3 16.3431 3H11C8.79086 3 7 4.79086 7 7V7" stroke="black" stroke-width="2" stroke-linecap="round"/>
<path d="M16 3V6C16 7.10457 16.8954 8 18 8H21" stroke="black" stroke-width="2" stroke-linecap="round"/>
</svg>
