<svg width="32" height="32" viewBox="0 0 32 32" fill="none" xmlns="http://www.w3.org/2000/svg">
<path d="M12 26L8.70711 29.2929C8.07714 29.9229 7 29.4767 7 28.5858V27C7 25.8954 6.10457 25 5 25H3.41421C2.52331 25 2.07714 23.9229 2.70711 23.2929L7 19" stroke="black" stroke-width="2" stroke-linecap="square"/>
<path d="M18 24L23.2929 29.2929C23.9229 29.9229 25 29.4767 25 28.5858V27C25 25.8954 25.8954 25 27 25H28.5858C29.4767 25 29.9229 23.9229 29.2929 23.2929L25 19" stroke="black" stroke-width="2" stroke-linecap="square"/>
<path d="M8 8C8 6.34315 9.34315 5 11 5V5C11.6491 5 12.2807 4.78947 12.8 4.4L14.2 3.35C15.2667 2.55 16.7333 2.55 17.8 3.35L19.2 4.4C19.7193 4.78947 20.3509 5 21 5V5C22.6569 5 24 6.34315 24 8V8C24 8.64911 24.2105 9.28071 24.6 9.8L25.65 11.2C26.45 12.2667 26.45 13.7333 25.65 14.8L24.6 16.2C24.2105 16.7193 24 17.3509 24 18V18C24 19.6569 22.6569 21 21 21V21C20.3509 21 19.7193 21.2105 19.2 21.6L17.8 22.65C16.7333 23.45 15.2667 23.45 14.2 22.65L12.8 21.6C12.2807 21.2105 11.6491 21 11 21V21C9.34315 21 8 19.6569 8 18V18C8 17.3509 7.78947 16.7193 7.4 16.2L6.35 14.8C5.55 13.7333 5.55 12.2667 6.35 11.2L7.4 9.8C7.78947 9.28071 8 8.64911 8 8V8Z" stroke="black" stroke-width="2"/>
<circle cx="16" cy="13" r="4" stroke="black" stroke-width="2"/>
</svg>
