<svg width="24" height="24" viewBox="0 0 24 24" fill="none" xmlns="http://www.w3.org/2000/svg">
<path d="M11.0676 3.40576C11.3976 2.55427 12.6024 2.55427 12.9324 3.40576L14.7999 8.22423C14.9418 8.5903 15.2848 8.83949 15.6768 8.8613L20.8365 9.14844C21.7483 9.19918 22.1206 10.345 21.4128 10.922L17.4072 14.1871C17.1029 14.4352 16.9719 14.8384 17.0723 15.2179L18.3937 20.2138C18.6272 21.0967 17.6525 21.8049 16.885 21.31L12.5419 18.5094C12.212 18.2967 11.788 18.2967 11.4581 18.5094L7.11498 21.31C6.3475 21.8049 5.37279 21.0967 5.6063 20.2138L6.92766 15.2179C7.02805 14.8384 6.89704 14.4352 6.59273 14.1871L2.58719 10.922C1.87936 10.345 2.25166 9.19918 3.16346 9.14844L8.32319 8.8613C8.71519 8.83949 9.05816 8.5903 9.20004 8.22423L11.0676 3.40576Z" stroke="black" stroke-width="2"/>
</svg>
