<svg width="24" height="24" viewBox="0 0 24 24" fill="none" xmlns="http://www.w3.org/2000/svg">
<path d="M4 15C4 13.8954 4.89543 13 6 13H8C9.10457 13 10 13.8954 10 15V18C10 19.1046 9.10457 20 8 20H6C4.89543 20 4 19.1046 4 18V15Z" stroke="black" stroke-width="2" stroke-linecap="round"/>
<path d="M8 4H6C4.89543 4 4 4.89543 4 6V7C4 8.10457 4.89543 9 6 9H8C9.10457 9 10 8.10457 10 7V6C10 4.89543 9.10457 4 8 4Z" stroke="black" stroke-width="2" stroke-linecap="round"/>
<path d="M14 6C14 4.89543 14.8954 4 16 4H18C19.1046 4 20 4.89543 20 6V14C20 15.1046 19.1046 16 18 16H16C14.8954 16 14 15.1046 14 14V6Z" stroke="black" stroke-width="2" stroke-linecap="round"/>
</svg>
