<svg width="1183" height="461" viewBox="0 0 1183 461" fill="none" xmlns="http://www.w3.org/2000/svg">
<path d="M571.47 0.533691V359.865H636.577V0.533691H571.47Z" fill="#1DC25F"/>
<path fill-rule="evenodd" clip-rule="evenodd" d="M365.767 354.398C379.683 361.356 395.255 364.835 412.485 364.835C434.684 364.835 454.564 359.368 472.125 348.434C489.685 337.5 503.436 322.59 513.376 303.704C523.647 284.818 528.783 263.612 528.783 240.088C528.783 216.232 523.647 194.861 513.376 175.975C503.436 157.089 489.685 142.179 472.125 131.245C454.564 120.311 434.684 114.844 412.485 114.844C395.255 114.844 379.683 118.488 365.767 125.778C357.76 130.074 350.616 135.291 344.336 141.429L344.396 119.814H279.289V460.259H343.899V338.729C350.189 344.833 357.478 350.056 365.767 354.398ZM401.053 304.698C412.981 304.698 423.584 302.047 432.861 296.746C442.139 291.113 449.262 283.493 454.232 273.884C459.534 263.944 462.184 252.513 462.184 239.591C462.184 227 459.534 215.901 454.232 206.292C449.262 196.352 442.139 188.731 432.861 183.43C423.584 177.797 412.981 174.981 401.053 174.981C389.457 174.981 379.02 177.797 369.742 183.43C360.465 188.731 353.176 196.352 347.874 206.292C342.904 215.901 340.419 227 340.419 239.591C340.419 252.513 342.904 263.944 347.874 273.884C353.176 283.493 360.299 291.113 369.245 296.746C378.523 302.047 389.125 304.698 401.053 304.698Z" fill="#1DC25F"/>
<path fill-rule="evenodd" clip-rule="evenodd" d="M809.071 364.835C783.89 364.835 761.525 359.533 741.976 348.931C722.428 337.997 706.855 323.087 695.258 304.201C683.993 285.315 678.36 263.778 678.36 239.591C678.36 215.735 683.827 194.529 694.761 175.975C706.027 157.089 721.268 142.179 740.485 131.245C759.703 119.979 781.074 114.347 804.598 114.347C827.792 114.347 848.169 119.648 865.729 130.251C883.621 140.522 897.537 154.769 907.477 172.993C917.749 190.885 922.884 211.262 922.884 234.124C922.884 238.431 922.553 242.904 921.89 247.543C921.559 251.85 920.731 256.82 919.405 262.453L743.859 262.924C745.13 267.861 746.822 272.508 748.934 276.866C754.567 287.468 762.519 295.752 772.79 301.716C783.062 307.348 794.99 310.165 808.574 310.165C820.834 310.165 831.933 308.177 841.873 304.201C851.813 299.893 860.428 293.598 867.717 285.315L905.986 323.584C894.39 337.168 880.142 347.44 863.244 354.398C846.678 361.356 828.62 364.835 809.071 364.835ZM860.115 213.84L743.895 214.213C745.059 209.802 746.574 205.67 748.438 201.819C753.739 191.216 761.194 183.098 770.802 177.466C780.411 171.502 791.676 168.52 804.598 168.52C816.858 168.52 827.129 171.17 835.412 176.472C844.027 181.442 850.488 188.731 854.795 198.34C857.03 202.968 858.803 208.135 860.115 213.84Z" fill="#1DC25F"/>
<path d="M0.211426 228.124C0.211426 165.538 50.9474 114.802 113.533 114.802C176.119 114.802 226.855 165.538 226.855 228.124V359.829H161.732V179.977H65.3344V359.829H0.211426V228.124Z" fill="#1DC25F"/>
<path d="M1103.3 239.822L1182.33 160.791L1141.32 119.779L1062.29 198.81L983.26 119.779L942.248 160.791L1021.28 239.822L942.248 318.853L983.26 359.865L1062.29 280.834L1141.32 359.865L1182.33 318.853L1103.3 239.822Z" fill="#1DC25F"/>
</svg>
