<svg width="1000" height="279" viewBox="0 0 1000 279" fill="none" xmlns="http://www.w3.org/2000/svg">
<path d="M365.782 217.201V134.329C365.782 126.75 363.389 120.667 358.602 116.08C354.015 111.293 348.131 108.9 340.951 108.9C335.965 108.9 331.577 109.997 327.787 112.19C323.998 114.185 321.006 117.177 318.812 121.166C316.618 124.955 315.521 129.343 315.521 134.329L297.87 125.653C297.87 114.285 300.363 104.312 305.349 95.7359C310.335 87.1596 317.216 80.5777 325.992 75.9903C334.967 71.2036 345.04 68.8102 356.209 68.8102C366.979 68.8102 376.453 71.403 384.63 76.5887C393.007 81.575 399.589 88.2565 404.376 96.6334C409.163 105.01 411.556 114.185 411.556 124.157V217.201H365.782ZM269.747 217.201V71.8019H315.521V217.201H269.747Z" fill="black"/>
<path d="M524.724 220.193C514.951 220.193 505.975 218.298 497.798 214.508C489.62 210.719 482.939 205.533 477.753 198.951C472.568 192.17 469.576 184.491 468.778 175.915V114.584C469.576 106.008 472.568 98.229 477.753 91.2483C482.939 84.2675 489.62 78.7827 497.798 74.7937C505.975 70.8047 514.951 68.8102 524.724 68.8102C538.486 68.8102 550.652 72.1011 561.223 78.6829C571.993 85.2648 580.37 94.24 586.354 105.609C592.537 116.977 595.628 129.942 595.628 144.501C595.628 159.061 592.537 172.025 586.354 183.394C580.37 194.763 571.993 203.738 561.223 210.32C550.652 216.902 538.486 220.193 524.724 220.193ZM516.347 178.906C522.929 178.906 528.613 177.411 533.4 174.419C538.386 171.427 542.275 167.338 545.068 162.153C547.86 156.967 549.256 151.083 549.256 144.501C549.256 137.72 547.86 131.737 545.068 126.551C542.275 121.365 538.386 117.376 533.4 114.584C528.613 111.592 523.028 110.096 516.646 110.096C510.264 110.096 504.579 111.592 499.593 114.584C494.806 117.376 491.017 121.365 488.224 126.551C485.432 131.737 484.036 137.72 484.036 144.501C484.036 151.083 485.332 156.967 487.925 162.153C490.717 167.338 494.607 171.427 499.593 174.419C504.579 177.411 510.164 178.906 516.347 178.906ZM440.955 278.532V71.8019H486.728V109.199L479.249 144.501L486.13 179.804V278.532H440.955Z" fill="black"/>
<path d="M618.882 217.201V0H664.656V217.201H618.882Z" fill="black"/>
<path d="M768.691 220.492C752.935 220.492 738.874 217.301 726.508 210.918C714.341 204.336 704.768 195.261 697.787 183.693C690.806 172.125 687.316 159.061 687.316 144.501C687.316 129.942 690.706 116.977 697.488 105.609C704.468 94.0406 713.843 84.9656 725.61 78.3838C737.378 71.8019 750.641 68.511 765.4 68.511C779.761 68.511 792.426 71.6025 803.396 77.7854C814.365 83.9684 822.942 92.5447 829.125 103.514C835.507 114.484 838.698 127.05 838.698 141.21C838.698 143.803 838.499 146.596 838.1 149.587C837.9 152.38 837.402 155.671 836.604 159.46L711.25 159.759V128.346L817.158 128.047L797.412 141.21C797.213 132.834 795.916 125.953 793.523 120.567C791.129 114.983 787.539 110.794 782.752 108.002C778.165 105.01 772.481 103.514 765.7 103.514C758.519 103.514 752.237 105.21 746.852 108.6C741.666 111.792 737.577 116.379 734.585 122.362C731.793 128.346 730.397 135.626 730.397 144.202C730.397 152.779 731.893 160.158 734.885 166.341C738.076 172.325 742.464 177.012 748.048 180.402C753.832 183.594 760.614 185.189 768.392 185.189C775.572 185.189 782.054 183.992 787.838 181.599C793.622 179.006 798.708 175.217 803.096 170.23L828.227 195.361C821.047 203.738 812.371 210.021 802.199 214.209C792.027 218.398 780.858 220.492 768.691 220.492Z" fill="black"/>
<path d="M947.046 217.201L912.043 160.657L902.17 154.374L845.028 71.8019H898.58L931.19 124.756L940.763 130.739L1000 217.201H947.046ZM842.335 217.201L901.871 132.534L927.899 161.853L892.297 217.201H842.335ZM940.464 154.075L914.436 124.756L947.345 71.8019H997.008L940.464 154.075Z" fill="black"/>
<path fill-rule="evenodd" clip-rule="evenodd" d="M63.7419 151.788C73.9697 141.537 90.5763 141.537 100.804 151.788L161.625 212.744C163.959 215.083 163.955 218.872 161.615 221.206L137.26 245.507C134.921 247.841 131.132 247.837 128.798 245.497L82.273 198.868L35.7478 245.497C33.4137 247.837 29.6251 247.841 27.2858 245.507L2.93073 221.206C0.59143 218.872 0.58722 215.083 2.92132 212.744L63.7419 151.788Z" fill="black"/>
<path fill-rule="evenodd" clip-rule="evenodd" d="M0 31.4133C0 28.1088 2.65973 25.4299 5.96433 25.4299C18.1439 25.4299 47.6536 25.4299 82.1235 25.4299C127.479 25.4299 164.247 62.1978 164.247 107.553V138.069C164.247 141.374 161.568 144.053 158.263 144.053H123.858C120.554 144.053 117.875 141.374 117.875 138.069V107.553C117.875 87.8084 101.868 71.8019 82.1235 71.8019C62.3785 71.8019 46.3721 87.8084 46.3721 107.553V138.069C46.3721 141.374 43.6932 144.053 40.3886 144.053H5.98349C2.6789 144.053 0 141.374 0 138.069V31.4133Z" fill="black"/>
</svg>
