<svg width="517" height="262" viewBox="0 0 517 262" fill="none" xmlns="http://www.w3.org/2000/svg">
<path d="M445.621 168.732V195.057L445.684 196.052L444.676 195.989H431.903L430.895 196.052L430.955 195.057V171.047C430.955 164.047 426.925 160.703 421.955 160.703C416.985 160.703 412.955 164.047 412.955 171.047V195.057L413.017 196.052L412.009 195.989H399.236L398.228 196.052L398.288 195.057V171.047C398.288 157.976 408.884 147.38 421.955 147.38C427.517 147.38 432.619 149.309 436.66 152.52L436.947 153.391L437.231 152.544C437.644 152.096 438.072 151.664 438.517 151.247L439.387 151.052L438.584 150.683C435.092 146.788 432.955 141.656 432.955 136.016V83.5026L432.895 82.5052L433.903 82.5679H446.676L447.684 82.5052L447.621 83.5026V136.016C447.621 141.711 450.903 144.432 454.944 144.432C458.988 144.432 462.267 141.711 462.267 136.016V83.5026L462.207 82.5052L463.215 82.5679H475.985L476.996 82.5052L476.933 83.5026V136.016C476.933 141.656 474.796 146.788 471.303 150.683L470.501 151.052L471.371 151.247C471.816 151.664 472.245 152.096 472.66 152.544L472.944 153.391L473.228 152.52C477.269 149.309 482.373 147.38 487.933 147.38C501.004 147.38 511.6 157.976 511.6 171.047V195.057L511.663 196.052L510.652 195.989H497.881L496.873 196.052L496.933 195.057V171.047C496.933 164.047 492.903 160.703 487.933 160.703C482.963 160.703 478.933 164.047 478.933 171.047V195.057L478.996 196.052L477.985 195.989H465.215L464.207 196.052L464.267 195.057V168.732C464.267 161.479 460.095 158.016 454.944 158.016C449.796 158.016 445.621 161.479 445.621 168.732Z" fill="#040606"/>
<path d="M157.767 260.801H171.283V259.383L166.28 258.189V212.195H152.395V213.768L157.767 215.268V230.796C155.395 228.825 151.84 227.203 147.089 227.203C138.652 227.203 132.431 234.601 132.431 244.899C132.431 255.435 138.132 261.549 147.165 261.549C151.561 261.549 155.228 259.851 157.767 257.52V260.801ZM157.767 254.552C155.895 256.017 153.587 257.294 150.077 257.294C145.449 257.294 141.491 253.935 141.491 244.823C141.491 235.435 144.728 231.085 150.004 231.085C153.561 231.085 156.061 232.351 157.767 234.271V254.552Z" fill="#040606"/>
<path d="M284.848 212.192V213.687L279.772 215.03V257.963L284.848 259.306V260.801H263.744V259.235L270.512 257.963V223.765L254.736 260.801H251.077L235.571 223.617V257.963L242.097 259.083V260.801H226.831V259.306L231.161 258.039V214.956L226.831 213.687V212.192H240.431L255.535 249.401L271.061 212.192H284.848Z" fill="#040606"/>
<path d="M306.059 227.203C296.501 227.203 287.915 233.849 287.915 244.375C287.915 254.604 296.577 261.547 306.059 261.547C315.616 261.547 324.277 254.604 324.277 244.375C324.277 233.849 315.616 227.203 306.059 227.203ZM306.059 229.591C311.881 229.591 314.944 236.088 314.944 244.299C314.944 252.437 311.881 259.159 306.059 259.159C300.308 259.159 297.173 252.437 297.173 244.299C297.173 236.164 300.308 229.591 306.059 229.591Z" fill="#040606"/>
<path d="M481.865 237.356V242.956L474.324 243.33C467.007 243.554 462.452 247.511 462.452 252.96C462.452 258.487 466.559 261.547 472.01 261.547C476.491 261.547 479.701 259.383 481.865 257.815V260.801H494.242V259.383L490.228 258.187V235.94C490.228 231.085 487.018 227.203 479.775 227.203C472.384 227.203 467.754 229.294 465.142 230.413V238.104H468.837L470.059 231.711C470.908 231.351 473.199 230.56 476.863 230.861C481.264 231.224 481.791 234.296 481.865 237.356ZM481.865 255.351C480.149 256.471 478.655 257.591 475.968 257.591C471.636 257.666 470.442 254.976 470.442 251.841C470.442 248.629 472.608 246.465 476.564 245.794L481.865 245.194V255.351Z" fill="#040606"/>
<path d="M516.595 259.383V260.801H498.079V259.383L503.081 258.187V215.036L498.079 213.768V212.192H511.592V258.187L516.595 259.383Z" fill="#040606"/>
<path d="M88.5617 150.367L81.319 148.948V147.38H98.1237V148.875L92.9732 150.367V179.765C92.9732 191.997 86.3033 196.96 72.6398 196.96C58.6366 196.96 52.9596 191.601 52.9596 180.533V150.143L47.957 148.875V147.38H69.4628V149.023L62.145 150.291V180.085C62.145 189.101 65.2148 193.525 74.6133 193.525C84.8065 193.525 88.5617 188.935 88.5617 179.268V150.367Z" fill="#040606"/>
<path d="M117.488 194.571V195.989H99.3452V194.571L104.272 193.377V165.601L99.7925 164.331V162.768H112.785V167.841C114.277 166.572 118.98 162.391 125.029 162.391C131.301 162.391 134.512 165.899 134.512 172.023V193.301L139.291 194.497V195.989H121.668V194.497L126.075 193.377V172.992C126.075 169.781 125.103 166.945 121.071 166.945C117.488 166.945 113.829 169.484 112.785 170.156V193.377L117.488 194.571Z" fill="#040606"/>
<path d="M155.766 193.377L160.693 194.571V195.989H142.25V194.571L147.253 193.377V165.601L142.774 164.331V162.768H155.766V193.377Z" fill="#040606"/>
<path d="M156.215 151.339C156.215 153.877 153.975 155.968 151.288 155.968C148.673 155.968 146.357 153.877 146.357 151.339C146.357 148.799 148.673 146.635 151.288 146.635C153.975 146.635 156.215 148.799 156.215 151.339Z" fill="#040606"/>
<path d="M302.423 193.377L307.353 194.571V195.989H288.911V194.571L293.912 193.377V165.601L289.433 164.331V162.768H302.423V193.377Z" fill="#040606"/>
<path d="M302.871 151.339C302.871 153.877 300.632 155.968 297.944 155.968C295.332 155.968 293.018 153.877 293.018 151.339C293.018 148.799 295.332 146.635 297.944 146.635C300.632 146.635 302.871 148.799 302.871 151.339Z" fill="#040606"/>
<path d="M163.389 165.08L160.999 164.112V162.768H177.128V164.112L171.975 165.38L179.38 185.612L186.724 165.232L182.244 164.112V162.768H193.295V164.112L190.605 165.38L177.963 196.513H175.199L163.389 165.08Z" fill="#040606"/>
<path d="M203.127 177.323H225.079C224.856 168.14 220.077 162.391 210.444 162.391C200.963 162.391 193.944 170.604 193.944 179.563C193.944 189.943 200.739 196.737 210.52 196.737C218.881 196.737 223.212 193.451 225.751 191.585L224.332 189.344C222.392 190.539 218.509 193.153 212.087 192.778C205.665 192.331 202.455 185.612 203.127 177.323ZM216.716 174.711H203.501C204.245 169.036 206.487 164.853 210.444 164.853C214.924 164.853 216.417 170.08 216.716 174.711Z" fill="#040606"/>
<path d="M282.236 164.107L281.491 172.247H278.428L277.681 166.721C276.561 166.124 275.069 164.853 271.783 164.853C269.095 164.853 267.004 166.273 267.004 169.184C267.004 172.62 270.811 173.963 274.621 175.683C278.28 177.249 284.253 179.489 284.253 185.388C284.253 192.107 278.728 196.737 272.081 196.737C265.96 196.737 262.373 195.317 261.329 194.945L260.733 185.911L263.868 185.612L265.66 191.735C266.556 192.405 269.02 194.347 272.007 194.273C276.264 194.273 278.28 192.033 278.28 188.823C278.28 185.013 272.977 183.372 269.468 181.729C266.184 180.161 261.105 178.741 261.105 171.948C261.105 166.349 265.736 162.391 272.007 162.391C277.384 162.391 280.744 163.659 282.236 164.107Z" fill="#040606"/>
<path d="M363.928 151.788L360.717 147.011L349.296 155.968L351.16 158.656L363.928 151.788Z" fill="#040606"/>
<path d="M344.066 177.323H366.02C365.796 168.14 361.017 162.391 351.384 162.391C341.902 162.391 334.884 170.604 334.884 179.563C334.884 189.943 341.678 196.737 351.46 196.737C359.821 196.737 364.152 193.451 366.69 191.585L365.272 189.344C363.332 190.539 359.449 193.153 353.026 192.778C346.605 192.331 343.394 185.612 344.066 177.323ZM357.657 174.711H344.441C345.189 169.036 347.428 164.853 351.384 164.853C355.865 164.853 357.357 170.08 357.657 174.711Z" fill="#040606"/>
<path d="M253.179 162.443C248.395 162.443 244.952 166.281 243.009 170.601H242.856V162.768H229.34V164.143L234.342 165.601V193.377L229.34 194.571V195.989H250.097V194.347L242.856 193.153V174.293C244.84 169.935 247.764 168.167 249.621 168.167C251.012 168.167 251.535 168.451 252.619 169.377C253.004 169.687 254.433 170.099 255.285 169.711C256.908 169.016 257.353 167.823 257.353 166.077C257.353 164.156 255.499 162.443 253.179 162.443Z" fill="#040606"/>
<path d="M345.772 259.383V260.801H327.626V259.383L332.556 258.187V230.413L328.077 229.142V227.58H341.066V232.653C342.561 231.385 347.264 227.203 353.31 227.203C359.584 227.203 362.796 230.711 362.796 236.836V258.115L367.574 259.306V260.801H349.952V259.306L354.357 258.187V237.804C354.357 234.594 353.386 231.758 349.356 231.758C345.772 231.758 342.113 234.296 341.066 234.968V258.187L345.772 259.383Z" fill="#040606"/>
<path d="M420.311 227.254C415.529 227.254 412.084 231.094 410.141 235.413H409.988V227.58H396.475V228.956L401.477 230.413V258.187L396.475 259.383V260.801H417.231V259.159L409.988 257.963V239.106C411.972 234.747 414.897 232.978 416.753 232.978C418.147 232.978 418.668 233.263 419.751 234.189C420.139 234.5 421.567 234.911 422.417 234.523C424.043 233.828 424.488 232.635 424.488 230.89C424.488 228.968 422.632 227.254 420.311 227.254Z" fill="#040606"/>
<path d="M332.285 192.268C331.035 193.101 329.756 193.711 327.868 193.711C324.868 193.711 323.906 191.517 323.906 186.601V165.679L332.415 164.408V162.768H323.906V147.38H321.127C320.564 156.187 317.452 161.963 309.592 162.768H308.299V164.408L315.392 165.679V187.044C315.392 193.823 317.035 196.737 323.382 196.737C327.952 196.737 331.619 195.017 333.119 193.601L332.285 192.268Z" fill="#040606"/>
<path d="M392.592 257.077C391.343 257.911 390.067 258.523 388.176 258.523C385.176 258.523 384.212 256.328 384.212 251.411V230.492L392.725 229.221V227.58H384.212V212.192H381.433C380.871 221 377.759 226.776 369.9 227.58H368.608V229.221L375.699 230.492V251.856C375.699 258.635 377.343 261.547 383.689 261.547C388.261 261.547 391.925 259.828 393.425 258.411L392.592 257.077Z" fill="#040606"/>
<path d="M182.949 242.137H204.9C204.676 232.953 199.897 227.203 190.267 227.203C180.783 227.203 173.764 235.416 173.764 244.375C173.764 254.755 180.559 261.549 190.34 261.549C198.702 261.549 203.032 258.263 205.572 256.399L204.152 254.156C202.212 255.351 198.33 257.965 191.908 257.591C185.488 257.143 182.277 250.424 182.949 242.137ZM196.538 239.523H183.322C184.07 233.849 186.308 229.67 190.267 229.67C194.745 229.67 196.239 234.896 196.538 239.523Z" fill="#040606"/>
<path d="M434.447 242.135H456.4C456.176 232.953 451.397 227.203 441.764 227.203C432.283 227.203 425.264 235.416 425.264 244.375C425.264 254.752 432.059 261.547 441.84 261.547C450.202 261.547 454.532 258.263 457.072 256.396L455.652 254.156C453.712 255.351 449.83 257.963 443.408 257.591C436.986 257.142 433.775 250.421 434.447 242.135ZM454.308 216.601L451.097 211.823L439.676 220.782L441.54 223.468L454.308 216.601ZM448.038 239.523H434.821C435.569 233.849 437.808 229.666 441.764 229.666C446.245 229.666 447.739 234.894 448.038 239.523Z" fill="#040606"/>
<path d="M445.621 168.732V195.057L445.684 196.052L444.676 195.989H431.903L430.895 196.052L430.955 195.057V171.047C430.955 164.047 426.925 160.703 421.955 160.703C416.985 160.703 412.955 164.047 412.955 171.047V195.057L413.017 196.052L412.009 195.989H399.236L398.228 196.052L398.288 195.057V171.047C398.288 157.976 408.884 147.38 421.955 147.38C427.517 147.38 432.619 149.309 436.66 152.52L436.947 153.391L437.231 152.544C437.644 152.096 438.072 151.664 438.517 151.247L439.387 151.052L438.584 150.683C435.092 146.788 432.955 141.656 432.955 136.016V83.5026L432.895 82.5052L433.903 82.5679H446.676L447.684 82.5052L447.621 83.5026V136.016C447.621 141.711 450.903 144.432 454.944 144.432C458.988 144.432 462.267 141.711 462.267 136.016V83.5026L462.207 82.5052L463.215 82.5679H475.985L476.996 82.5052L476.933 83.5026V136.016C476.933 141.656 474.796 146.788 471.303 150.683L470.501 151.052L471.371 151.247C471.816 151.664 472.245 152.096 472.66 152.544L472.944 153.391L473.228 152.52C477.269 149.309 482.373 147.38 487.933 147.38C501.004 147.38 511.6 157.976 511.6 171.047V195.057L511.663 196.052L510.652 195.989H497.881L496.873 196.052L496.933 195.057V171.047C496.933 164.047 492.903 160.703 487.933 160.703C482.963 160.703 478.933 164.047 478.933 171.047V195.057L478.996 196.052L477.985 195.989H465.215L464.207 196.052L464.267 195.057V168.732C464.267 161.479 460.095 158.016 454.944 158.016C449.796 158.016 445.621 161.479 445.621 168.732Z" fill="#040606"/>
<path d="M157.767 260.801H171.283V259.383L166.28 258.189V212.195H152.395V213.768L157.767 215.268V230.796C155.395 228.825 151.84 227.203 147.089 227.203C138.652 227.203 132.431 234.601 132.431 244.899C132.431 255.435 138.132 261.549 147.165 261.549C151.561 261.549 155.228 259.851 157.767 257.52V260.801ZM157.767 254.552C155.895 256.017 153.587 257.294 150.077 257.294C145.449 257.294 141.491 253.935 141.491 244.823C141.491 235.435 144.728 231.085 150.004 231.085C153.561 231.085 156.061 232.351 157.767 234.271V254.552Z" fill="#040606"/>
<path d="M284.848 212.192V213.687L279.772 215.03V257.963L284.848 259.306V260.801H263.744V259.235L270.512 257.963V223.765L254.736 260.801H251.077L235.571 223.617V257.963L242.097 259.083V260.801H226.831V259.306L231.161 258.039V214.956L226.831 213.687V212.192H240.431L255.535 249.401L271.061 212.192H284.848Z" fill="#040606"/>
<path d="M306.059 227.203C296.501 227.203 287.915 233.849 287.915 244.375C287.915 254.604 296.577 261.547 306.059 261.547C315.616 261.547 324.277 254.604 324.277 244.375C324.277 233.849 315.616 227.203 306.059 227.203ZM306.059 229.591C311.881 229.591 314.944 236.088 314.944 244.299C314.944 252.437 311.881 259.159 306.059 259.159C300.308 259.159 297.173 252.437 297.173 244.299C297.173 236.164 300.308 229.591 306.059 229.591Z" fill="#040606"/>
<path d="M481.865 237.356V242.956L474.324 243.33C467.007 243.554 462.452 247.511 462.452 252.96C462.452 258.487 466.559 261.547 472.01 261.547C476.491 261.547 479.701 259.383 481.865 257.815V260.801H494.242V259.383L490.228 258.187V235.94C490.228 231.085 487.018 227.203 479.775 227.203C472.384 227.203 467.754 229.294 465.142 230.413V238.104H468.837L470.059 231.711C470.908 231.351 473.199 230.56 476.863 230.861C481.264 231.224 481.791 234.296 481.865 237.356ZM481.865 255.351C480.149 256.471 478.655 257.591 475.968 257.591C471.636 257.666 470.442 254.976 470.442 251.841C470.442 248.629 472.608 246.465 476.564 245.794L481.865 245.194V255.351Z" fill="#040606"/>
<path d="M516.595 259.383V260.801H498.079V259.383L503.081 258.187V215.036L498.079 213.768V212.192H511.592V258.187L516.595 259.383Z" fill="#040606"/>
<path d="M88.5617 150.367L81.319 148.948V147.38H98.1237V148.875L92.9732 150.367V179.765C92.9732 191.997 86.3033 196.96 72.6398 196.96C58.6366 196.96 52.9596 191.601 52.9596 180.533V150.143L47.957 148.875V147.38H69.4628V149.023L62.145 150.291V180.085C62.145 189.101 65.2148 193.525 74.6133 193.525C84.8065 193.525 88.5617 188.935 88.5617 179.268V150.367Z" fill="#040606"/>
<path d="M117.488 194.571V195.989H99.3452V194.571L104.272 193.377V165.601L99.7925 164.331V162.768H112.785V167.841C114.277 166.572 118.98 162.391 125.029 162.391C131.301 162.391 134.512 165.899 134.512 172.023V193.301L139.291 194.497V195.989H121.668V194.497L126.075 193.377V172.992C126.075 169.781 125.103 166.945 121.071 166.945C117.488 166.945 113.829 169.484 112.785 170.156V193.377L117.488 194.571Z" fill="#040606"/>
<path d="M155.766 193.377L160.693 194.571V195.989H142.25V194.571L147.253 193.377V165.601L142.774 164.331V162.768H155.766V193.377Z" fill="#040606"/>
<path d="M156.215 151.339C156.215 153.877 153.975 155.968 151.288 155.968C148.673 155.968 146.357 153.877 146.357 151.339C146.357 148.799 148.673 146.635 151.288 146.635C153.975 146.635 156.215 148.799 156.215 151.339Z" fill="#040606"/>
<path d="M302.423 193.377L307.353 194.571V195.989H288.911V194.571L293.912 193.377V165.601L289.433 164.331V162.768H302.423V193.377Z" fill="#040606"/>
<path d="M302.871 151.339C302.871 153.877 300.632 155.968 297.944 155.968C295.332 155.968 293.018 153.877 293.018 151.339C293.018 148.799 295.332 146.635 297.944 146.635C300.632 146.635 302.871 148.799 302.871 151.339Z" fill="#040606"/>
<path d="M163.389 165.08L160.999 164.112V162.768H177.128V164.112L171.975 165.38L179.38 185.612L186.724 165.232L182.244 164.112V162.768H193.295V164.112L190.605 165.38L177.963 196.513H175.199L163.389 165.08Z" fill="#040606"/>
<path d="M203.127 177.323H225.079C224.856 168.14 220.077 162.391 210.444 162.391C200.963 162.391 193.944 170.604 193.944 179.563C193.944 189.943 200.739 196.737 210.52 196.737C218.881 196.737 223.212 193.451 225.751 191.585L224.332 189.344C222.392 190.539 218.509 193.153 212.087 192.778C205.665 192.331 202.455 185.612 203.127 177.323ZM216.716 174.711H203.501C204.245 169.036 206.487 164.853 210.444 164.853C214.924 164.853 216.417 170.08 216.716 174.711Z" fill="#040606"/>
<path d="M282.236 164.107L281.491 172.247H278.428L277.681 166.721C276.561 166.124 275.069 164.853 271.783 164.853C269.095 164.853 267.004 166.273 267.004 169.184C267.004 172.62 270.811 173.963 274.621 175.683C278.28 177.249 284.253 179.489 284.253 185.388C284.253 192.107 278.728 196.737 272.081 196.737C265.96 196.737 262.373 195.317 261.329 194.945L260.733 185.911L263.868 185.612L265.66 191.735C266.556 192.405 269.02 194.347 272.007 194.273C276.264 194.273 278.28 192.033 278.28 188.823C278.28 185.013 272.977 183.372 269.468 181.729C266.184 180.161 261.105 178.741 261.105 171.948C261.105 166.349 265.736 162.391 272.007 162.391C277.384 162.391 280.744 163.659 282.236 164.107Z" fill="#040606"/>
<path d="M363.928 151.788L360.717 147.011L349.296 155.968L351.16 158.656L363.928 151.788Z" fill="#040606"/>
<path d="M344.066 177.323H366.02C365.796 168.14 361.017 162.391 351.384 162.391C341.902 162.391 334.884 170.604 334.884 179.563C334.884 189.943 341.678 196.737 351.46 196.737C359.821 196.737 364.152 193.451 366.69 191.585L365.272 189.344C363.332 190.539 359.449 193.153 353.026 192.778C346.605 192.331 343.394 185.612 344.066 177.323ZM357.657 174.711H344.441C345.189 169.036 347.428 164.853 351.384 164.853C355.865 164.853 357.357 170.08 357.657 174.711Z" fill="#040606"/>
<path d="M253.179 162.443C248.395 162.443 244.952 166.281 243.009 170.601H242.856V162.768H229.34V164.143L234.342 165.601V193.377L229.34 194.571V195.989H250.097V194.347L242.856 193.153V174.293C244.84 169.935 247.764 168.167 249.621 168.167C251.012 168.167 251.535 168.451 252.619 169.377C253.004 169.687 254.433 170.099 255.285 169.711C256.908 169.016 257.353 167.823 257.353 166.077C257.353 164.156 255.499 162.443 253.179 162.443Z" fill="#040606"/>
<path d="M345.772 259.383V260.801H327.626V259.383L332.556 258.187V230.413L328.077 229.142V227.58H341.066V232.653C342.561 231.385 347.264 227.203 353.31 227.203C359.584 227.203 362.796 230.711 362.796 236.836V258.115L367.574 259.306V260.801H349.952V259.306L354.357 258.187V237.804C354.357 234.594 353.386 231.758 349.356 231.758C345.772 231.758 342.113 234.296 341.066 234.968V258.187L345.772 259.383Z" fill="#040606"/>
<path d="M420.311 227.254C415.529 227.254 412.084 231.094 410.141 235.413H409.988V227.58H396.475V228.956L401.477 230.413V258.187L396.475 259.383V260.801H417.231V259.159L409.988 257.963V239.106C411.972 234.747 414.897 232.978 416.753 232.978C418.147 232.978 418.668 233.263 419.751 234.189C420.139 234.5 421.567 234.911 422.417 234.523C424.043 233.828 424.488 232.635 424.488 230.89C424.488 228.968 422.632 227.254 420.311 227.254Z" fill="#040606"/>
<path d="M332.285 192.268C331.035 193.101 329.756 193.711 327.868 193.711C324.868 193.711 323.906 191.517 323.906 186.601V165.679L332.415 164.408V162.768H323.906V147.38H321.127C320.564 156.187 317.452 161.963 309.592 162.768H308.299V164.408L315.392 165.679V187.044C315.392 193.823 317.035 196.737 323.382 196.737C327.952 196.737 331.619 195.017 333.119 193.601L332.285 192.268Z" fill="#040606"/>
<path d="M392.592 257.077C391.343 257.911 390.067 258.523 388.176 258.523C385.176 258.523 384.212 256.328 384.212 251.411V230.492L392.725 229.221V227.58H384.212V212.192H381.433C380.871 221 377.759 226.776 369.9 227.58H368.608V229.221L375.699 230.492V251.856C375.699 258.635 377.343 261.547 383.689 261.547C388.261 261.547 391.925 259.828 393.425 258.411L392.592 257.077Z" fill="#040606"/>
<path d="M182.949 242.137H204.9C204.676 232.953 199.897 227.203 190.267 227.203C180.783 227.203 173.764 235.416 173.764 244.375C173.764 254.755 180.559 261.549 190.34 261.549C198.702 261.549 203.032 258.263 205.572 256.399L204.152 254.156C202.212 255.351 198.33 257.965 191.908 257.591C185.488 257.143 182.277 250.424 182.949 242.137ZM196.538 239.523H183.322C184.07 233.849 186.308 229.67 190.267 229.67C194.745 229.67 196.239 234.896 196.538 239.523Z" fill="#040606"/>
<path d="M434.447 242.135H456.4C456.176 232.953 451.397 227.203 441.764 227.203C432.283 227.203 425.264 235.416 425.264 244.375C425.264 254.752 432.059 261.547 441.84 261.547C450.202 261.547 454.532 258.263 457.072 256.396L455.652 254.156C453.712 255.351 449.83 257.963 443.408 257.591C436.986 257.142 433.775 250.421 434.447 242.135ZM454.308 216.601L451.097 211.823L439.676 220.782L441.54 223.468L454.308 216.601ZM448.038 239.523H434.821C435.569 233.849 437.808 229.666 441.764 229.666C446.245 229.666 447.739 234.894 448.038 239.523Z" fill="#040606"/>
<path d="M96.2467 4.74808C94.6039 3.77741 92.7749 3.29209 90.8711 3.29209C84.8597 3.29209 80.8659 7.62275 80.8659 13.4841C80.8659 19.6067 85.2706 23.6761 90.6842 23.6761C92.5509 23.6761 95.0519 23.1907 96.3586 22.4067L96.5826 26.0281C94.6039 26.8494 92.1779 26.9614 90.6471 26.9614C82.3962 26.9614 76.9082 21.6601 76.9082 13.3721C76.9082 5.3454 82.7321 0.00673989 90.6842 0.00673989C92.6998 0.00673989 94.679 0.305426 96.5457 1.12676L96.2467 4.74808Z" fill="#040606"/>
<path d="M101.623 0.45477H105.356V11.3561H117.826V0.45477H121.559V26.5134H117.826V14.6414H105.356V26.5134H101.623V0.45477Z" fill="#040606"/>
<path d="M138.842 3.96408L133.654 16.8814H144.032L138.842 3.96408ZM137.014 0.45477H140.934L151.946 26.5134H147.878L145.226 19.9428H132.46L129.808 26.5134H125.889L137.014 0.45477Z" fill="#040606"/>
<path d="M156.091 0.45477H159.824V26.5134H156.091V0.45477Z" fill="#040606"/>
<path d="M170.352 11.6548H173.525C177.072 11.6548 179.163 10.0868 179.163 7.58543C179.163 5.23343 177.371 3.74009 173.936 3.74009H170.352V11.6548ZM166.619 0.45477H173.003C178.155 0.45477 183.12 1.27609 183.12 7.51076C183.12 10.6841 180.768 12.9241 177.744 13.4468V13.5214C178.901 13.9694 179.461 14.5294 180.283 16.1347L185.211 26.5134H180.955L176.96 17.4788C175.803 14.9401 174.571 14.9401 172.592 14.9401H170.352V26.5134H166.619V0.45477Z" fill="#040606"/>
<path d="M190.213 0.45477H204.811V3.74009H193.947V11.3561H203.84V14.6414H193.947V23.2281H204.811V26.5134H190.213V0.45477Z" fill="#040606"/>
<path d="M221.424 0.454754H226.65V15.5001C226.65 19.9427 228.069 22.8548 232.064 22.8548C236.058 22.8548 237.477 19.9427 237.477 15.5001V0.454754H242.704V17.1054C242.704 24.0867 238.746 26.9614 232.064 26.9614C225.381 26.9614 221.424 24.0867 221.424 17.1054V0.454754Z" fill="#040606"/>
<path d="M248.676 0.45477H255.097L265.028 19.9428H265.104V0.45477H270.106V26.5134H263.722L253.753 7.02544H253.678V26.5134H248.676V0.45477Z" fill="#040606"/>
<path d="M276.265 0.45477H291.646V4.56144H281.492V10.9828H290.788V15.0894H281.492V22.4068H291.721V26.5134H276.265V0.45477Z" fill="#040606"/>
<path d="M311.396 5.2334C309.753 4.52407 307.924 4.11341 306.094 4.11341C304.302 4.11341 301.988 4.8974 301.988 7.73473C301.988 12.2521 313.412 10.3481 313.412 19.0841C313.412 24.7961 308.894 26.9614 303.63 26.9614C300.793 26.9614 299.524 26.5881 296.948 25.9534L297.433 21.2494C299.225 22.2201 301.278 22.8548 303.332 22.8548C305.31 22.8548 307.961 21.8468 307.961 19.4948C307.961 14.5294 296.537 16.5828 296.537 7.95876C296.537 2.13476 301.054 0.00673989 305.646 0.00673989C307.886 0.00673989 309.977 0.305407 311.881 0.940073L311.396 5.2334Z" fill="#040606"/>
<path d="M337.492 26.1401C335.588 26.5881 333.535 26.9614 331.556 26.9614C323.119 26.9614 317.257 22.7427 317.257 13.9321C317.257 5.0094 322.708 0.00673989 331.556 0.00673989C333.273 0.00673989 335.551 0.342756 337.455 1.08942L337.081 5.49476C335.103 4.37476 333.311 4.11341 331.444 4.11341C326.068 4.11341 322.708 8.22009 322.708 13.5588C322.708 18.8601 325.993 22.8548 331.556 22.8548C333.609 22.8548 336.036 22.4067 337.268 21.7721L337.492 26.1401Z" fill="#040606"/>
<path d="M353.209 22.8548C358.548 22.8548 360.527 18.1134 360.527 13.4094C360.527 8.81741 358.399 4.11341 353.209 4.11341C348.02 4.11341 345.892 8.81741 345.892 13.4094C345.892 18.1134 347.869 22.8548 353.209 22.8548ZM353.209 0.00673989C361.385 0.00673989 365.976 5.53208 365.976 13.4094C365.976 21.2867 361.46 26.9614 353.209 26.9614C344.847 26.9614 340.441 21.3987 340.441 13.4094C340.441 5.42008 344.92 0.00673989 353.209 0.00673989Z" fill="#040606"/>
<path d="M0.413574 56.4548H15.0104V59.7401H4.14643V67.3561H14.0396V70.6414H4.14643V79.2281H15.0104V82.5134H0.413574V56.4548Z" fill="#040606"/>
<path d="M21.3198 56.4548H26.3974L37.896 77.4361H37.9709V56.4548H41.7037V82.5134H36.9252L25.1277 61.0841H25.0537V82.5134H21.3198V56.4548Z" fill="#040606"/>
<path d="M62.9457 68.8121H66.642C68.9561 68.8121 71.8686 67.6548 71.8686 64.2201C71.8686 60.9348 68.4342 59.7401 66.1192 59.7401H62.9457V68.8121ZM59.2129 56.4548H66.0452C71.3837 56.4548 75.8258 58.3214 75.8258 64.2574C75.8258 70.0441 71.3086 72.0974 66.6045 72.0974H62.9457V82.5134H59.2129V56.4548Z" fill="#040606"/>
<path d="M87.8848 59.9641L82.6958 72.8814H93.0744L87.8848 59.9641ZM86.0562 56.4548H89.9759L100.989 82.5134H96.9196L94.2687 75.9428H81.5015L78.8504 82.5134H74.9302L86.0562 56.4548Z" fill="#040606"/>
<path d="M108.754 71.6121L98.562 56.4548H102.93L110.695 68.1401L118.274 56.4548H122.642L112.487 71.6121V82.5134H108.754V71.6121Z" fill="#040606"/>
<path d="M138.584 60.3748C136.679 59.6281 135.634 59.2921 133.694 59.2921C131.602 59.2921 129.139 60.0388 129.139 62.7641C129.139 67.7668 140.338 66.6094 140.338 75.1961C140.338 80.7588 136.044 82.9614 130.818 82.9614C128.988 82.9614 127.196 82.4388 125.479 81.8788L125.852 78.4068C127.122 78.9294 129.362 79.6761 131.266 79.6761C133.394 79.6761 136.38 78.4814 136.38 75.4201C136.38 69.5961 125.18 71.2014 125.18 63.1001C125.18 58.4708 128.839 56.0068 133.543 56.0068C135.26 56.0068 137.314 56.3054 139.106 56.9401L138.584 60.3748Z" fill="#040606"/>
<path d="M155.868 59.9641L150.679 72.8814H161.057L155.868 59.9641ZM154.039 56.4548H157.959L168.973 82.5134H164.903L162.252 75.9428H149.484L146.833 82.5134H142.915L154.039 56.4548Z" fill="#040606"/>
<path d="M192.903 61.0841C191.073 59.8894 189.095 59.2921 185.735 59.2921C179.724 59.2921 175.729 63.6601 175.729 69.4841C175.729 75.6068 180.135 79.6761 185.548 79.6761C188.124 79.6761 188.796 79.4148 189.729 79.2281V71.3134H184.241V68.2521H193.463V81.8041C192.044 82.2894 189.58 82.9614 185.511 82.9614C177.26 82.9614 171.772 77.6601 171.772 69.3721C171.772 61.3454 177.596 56.0068 185.548 56.0068C189.356 56.0068 191.036 56.5668 193.201 57.3134L192.903 61.0841Z" fill="#040606"/>
<path d="M200.631 56.4548H215.227V59.7401H204.363V67.3561H214.256V70.6414H204.363V79.2281H215.227V82.5134H200.631V56.4548Z" fill="#040606"/>
<path d="M252.597 71.7241C252.597 79.0414 248.901 82.9614 242.48 82.9614C236.059 82.9614 232.363 79.0414 232.363 71.7241V56.4548H236.096V71.2388C236.096 76.2414 237.665 79.6761 242.48 79.6761C247.297 79.6761 248.864 76.2414 248.864 71.2388V56.4548H252.597V71.7241Z" fill="#040606"/>
<path d="M263.163 67.6548H266.336C269.883 67.6548 271.973 66.0868 271.973 63.5854C271.973 61.2334 270.181 59.7401 266.747 59.7401H263.163V67.6548ZM259.429 56.4548H265.813C270.965 56.4548 275.931 57.2761 275.931 63.5108C275.931 66.6841 273.579 68.9241 270.555 69.4468V69.5214C271.712 69.9694 272.272 70.5294 273.093 72.1348L278.021 82.5134H273.765L269.771 73.4788C268.613 70.9401 267.381 70.9401 265.403 70.9401H263.163V82.5134H259.429V56.4548Z" fill="#040606"/>
<path d="M286.347 79.4521H289.145C292.507 79.4521 295.529 78.7428 295.529 75.2334C295.529 71.2014 291.984 70.6414 288.773 70.6414H286.347V79.4521ZM286.347 67.5801H288.4C292.021 67.5801 295.083 67.2441 295.083 63.3988C295.083 60.3001 292.432 59.5161 290.267 59.5161H286.347V67.5801ZM282.613 56.4548H289.669C295.083 56.4548 298.815 58.2094 298.815 63.0254C298.815 66.6094 296.725 68.4014 293.44 69.2228V69.2974C296.987 69.5961 299.488 71.9108 299.488 75.5694C299.488 81.1694 294.859 82.5134 289.557 82.5134H282.613V56.4548Z" fill="#040606"/>
<path d="M316.1 59.9641L310.912 72.8814H321.291L316.1 59.9641ZM314.272 56.4548H318.192L329.204 82.5134H325.136L322.484 75.9428H309.717L307.067 82.5134H303.146L314.272 56.4548Z" fill="#040606"/>
<path d="M333.35 56.4548H337.083V82.5134H333.35V56.4548Z" fill="#040606"/>
<path d="M344.062 56.4548H349.14L360.64 77.4361H360.713V56.4548H364.447V82.5134H359.668L347.871 61.0841H347.797V82.5134H344.062V56.4548Z" fill="#040606"/>
</svg>
