<svg width="498" height="262" viewBox="0 0 498 262" fill="none" xmlns="http://www.w3.org/2000/svg">
<path d="M426.093 168.725V195.05L426.155 196.045L425.147 195.983H412.374L411.366 196.045L411.426 195.05V171.04C411.426 164.04 407.397 160.696 402.426 160.696C397.457 160.696 393.426 164.04 393.426 171.04V195.05L393.489 196.045L392.481 195.983H379.707L378.699 196.045L378.759 195.05V171.04C378.759 157.969 389.355 147.373 402.426 147.373C407.989 147.373 413.09 149.303 417.131 152.513L417.418 153.384L417.702 152.537C418.115 152.089 418.543 151.657 418.989 151.24L419.858 151.045L419.055 150.676C415.563 146.781 413.426 141.649 413.426 136.009V83.496L413.366 82.4986L414.374 82.5613H427.147L428.155 82.4986L428.093 83.496V136.009C428.093 141.704 431.374 144.425 435.415 144.425C439.459 144.425 442.738 141.704 442.738 136.009V83.496L442.678 82.4986L443.686 82.5613H456.457L457.467 82.4986L457.405 83.496V136.009C457.405 141.649 455.267 146.781 451.774 150.676L450.973 151.045L451.842 151.24C452.287 151.657 452.717 152.089 453.131 152.537L453.415 153.384L453.699 152.513C457.741 149.303 462.845 147.373 468.405 147.373C481.475 147.373 492.071 157.969 492.071 171.04V195.05L492.134 196.045L491.123 195.983H478.353L477.345 196.045L477.405 195.05V171.04C477.405 164.04 473.374 160.696 468.405 160.696C463.434 160.696 459.405 164.04 459.405 171.04V195.05L459.467 196.045L458.457 195.983H445.686L444.678 196.045L444.738 195.05V168.725C444.738 161.472 440.566 158.009 435.415 158.009C430.267 158.009 426.093 161.472 426.093 168.725Z" fill="#040606"/>
<path d="M138.238 260.795H151.754V259.376L146.751 258.183V212.188H132.866V213.761L138.238 215.261V230.79C135.866 228.819 132.311 227.196 127.561 227.196C119.123 227.196 112.902 234.595 112.902 244.892C112.902 255.428 118.603 261.543 127.637 261.543C132.033 261.543 135.699 259.844 138.238 257.514V260.795ZM138.238 254.545C136.366 256.011 134.058 257.287 130.549 257.287C125.921 257.287 121.962 253.928 121.962 244.816C121.962 235.428 125.199 231.079 130.475 231.079C134.033 231.079 136.533 232.344 138.238 234.264V254.545Z" fill="#040606"/>
<path d="M265.319 212.185V213.68L260.243 215.024V257.956L265.319 259.3V260.795H244.215V259.228L250.983 257.956V223.759L235.207 260.795H231.548L216.042 223.611V257.956L222.568 259.076V260.795H207.302V259.3L211.632 258.032V214.949L207.302 213.68V212.185H220.902L236.006 249.395L251.532 212.185H265.319Z" fill="#040606"/>
<path d="M286.53 227.196C276.973 227.196 268.386 233.843 268.386 244.368C268.386 254.597 277.049 261.54 286.53 261.54C296.088 261.54 304.749 254.597 304.749 244.368C304.749 233.843 296.088 227.196 286.53 227.196ZM286.53 229.584C292.353 229.584 295.416 236.081 295.416 244.292C295.416 252.431 292.353 259.152 286.53 259.152C280.78 259.152 277.645 252.431 277.645 244.292C277.645 236.157 280.78 229.584 286.53 229.584Z" fill="#040606"/>
<path d="M462.337 237.349V242.949L454.795 243.324C447.478 243.548 442.923 247.504 442.923 252.954C442.923 258.48 447.03 261.54 452.481 261.54C456.962 261.54 460.173 259.376 462.337 257.808V260.795H474.713V259.376L470.699 258.18V235.933C470.699 231.079 467.489 227.196 460.246 227.196C452.855 227.196 448.225 229.287 445.613 230.407V238.097H449.309L450.53 231.704C451.379 231.344 453.67 230.554 457.334 230.855C461.735 231.217 462.262 234.29 462.337 237.349ZM462.337 255.344C460.621 256.464 459.126 257.584 456.439 257.584C452.107 257.66 450.913 254.969 450.913 251.835C450.913 248.623 453.079 246.459 457.035 245.787L462.337 245.188V255.344Z" fill="#040606"/>
<path d="M497.066 259.376V260.795H478.55V259.376L483.552 258.18V215.03L478.55 213.761V212.185H492.063V258.18L497.066 259.376Z" fill="#040606"/>
<path d="M69.0329 150.36L61.7902 148.941V147.373H78.5949V148.868L73.4444 150.36V179.759C73.4444 191.991 66.7745 196.954 53.111 196.954C39.1078 196.954 33.4308 191.595 33.4308 180.526V150.136L28.4282 148.868V147.373H49.934V149.016L42.6162 150.284V180.079C42.6162 189.095 45.686 193.519 55.0845 193.519C65.2777 193.519 69.0329 188.928 69.0329 179.261V150.36Z" fill="#040606"/>
<path d="M97.9596 194.564V195.983H79.8169V194.564L84.744 193.371V165.595L80.2642 164.324V162.761H93.2565V167.835C94.7486 166.565 99.4518 162.384 105.501 162.384C111.773 162.384 114.984 165.892 114.984 172.016V193.295L119.762 194.491V195.983H102.14V194.491L106.546 193.371V172.985C106.546 169.775 105.574 166.939 101.543 166.939C97.9596 166.939 94.3008 169.477 93.2565 170.149V193.371L97.9596 194.564Z" fill="#040606"/>
<path d="M136.238 193.371L141.165 194.564V195.983H122.722V194.564L127.725 193.371V165.595L123.246 164.324V162.761H136.238V193.371Z" fill="#040606"/>
<path d="M136.686 151.332C136.686 153.871 134.446 155.961 131.759 155.961C129.145 155.961 126.829 153.871 126.829 151.332C126.829 148.792 129.145 146.628 131.759 146.628C134.446 146.628 136.686 148.792 136.686 151.332Z" fill="#040606"/>
<path d="M282.894 193.371L287.824 194.564V195.983H269.382V194.564L274.383 193.371V165.595L269.904 164.324V162.761H282.894V193.371Z" fill="#040606"/>
<path d="M283.342 151.332C283.342 153.871 281.103 155.961 278.415 155.961C275.803 155.961 273.489 153.871 273.489 151.332C273.489 148.792 275.803 146.628 278.415 146.628C281.103 146.628 283.342 148.792 283.342 151.332Z" fill="#040606"/>
<path d="M143.861 165.074L141.47 164.106V162.762H157.6V164.106L152.446 165.374L159.852 185.605L167.196 165.226L162.716 164.106V162.762H173.766V164.106L171.077 165.374L158.434 196.507H155.67L143.861 165.074Z" fill="#040606"/>
<path d="M183.598 177.316H205.55C205.328 168.133 200.549 162.384 190.916 162.384C181.434 162.384 174.416 170.597 174.416 179.556C174.416 189.936 181.21 196.731 190.992 196.731C199.353 196.731 203.684 193.444 206.222 191.579L204.804 189.337C202.864 190.532 198.981 193.147 192.558 192.772C186.137 192.324 182.926 185.605 183.598 177.316ZM197.188 174.704H183.973C184.717 169.029 186.958 164.847 190.916 164.847C195.396 164.847 196.889 170.073 197.188 174.704Z" fill="#040606"/>
<path d="M262.707 164.1L261.962 172.24H258.899L258.153 166.715C257.033 166.117 255.541 164.847 252.254 164.847C249.566 164.847 247.475 166.267 247.475 169.177C247.475 172.613 251.282 173.956 255.093 175.676C258.751 177.243 264.725 179.483 264.725 185.381C264.725 192.1 259.199 196.731 252.553 196.731C246.431 196.731 242.845 195.311 241.801 194.938L241.205 185.904L244.339 185.605L246.131 191.728C247.027 192.399 249.491 194.34 252.478 194.267C256.735 194.267 258.751 192.026 258.751 188.816C258.751 185.007 253.449 183.366 249.939 181.723C246.655 180.155 241.577 178.735 241.577 171.941C241.577 166.343 246.207 162.384 252.478 162.384C257.855 162.384 261.215 163.652 262.707 164.1Z" fill="#040606"/>
<path d="M344.399 151.781L341.188 147.004L329.767 155.961L331.631 158.649L344.399 151.781Z" fill="#040606"/>
<path d="M324.538 177.316H346.491C346.267 168.133 341.489 162.384 331.855 162.384C322.374 162.384 315.355 170.597 315.355 179.556C315.355 189.936 322.15 196.731 331.931 196.731C340.293 196.731 344.623 193.444 347.162 191.579L345.743 189.337C343.803 190.532 339.921 193.147 333.498 192.772C327.077 192.324 323.866 185.605 324.538 177.316ZM338.129 174.704H324.913C325.661 169.029 327.899 164.847 331.855 164.847C336.337 164.847 337.829 170.073 338.129 174.704Z" fill="#040606"/>
<path d="M233.65 162.436C228.866 162.436 225.424 166.275 223.481 170.595H223.328V162.761H209.812V164.136L214.814 165.595V193.371L209.812 194.564V195.983H230.569V194.34L223.328 193.147V174.287C225.312 169.928 228.236 168.16 230.093 168.16C231.484 168.16 232.006 168.444 233.09 169.371C233.476 169.68 234.905 170.092 235.757 169.704C237.38 169.009 237.825 167.816 237.825 166.071C237.825 164.149 235.97 162.436 233.65 162.436Z" fill="#040606"/>
<path d="M326.243 259.376V260.795H308.098V259.376L313.027 258.18V230.407L308.549 229.136V227.573H321.538V232.647C323.033 231.379 327.735 227.196 333.782 227.196C340.055 227.196 343.267 230.704 343.267 236.83V258.108L348.046 259.3V260.795H330.423V259.3L334.829 258.18V237.797C334.829 234.587 333.858 231.751 329.827 231.751C326.243 231.751 322.585 234.289 321.538 234.961V258.18L326.243 259.376Z" fill="#040606"/>
<path d="M400.782 227.248C396 227.248 392.555 231.087 390.612 235.407H390.459V227.573H376.946V228.949L381.948 230.407V258.18L376.946 259.376V260.795H397.702V259.152L390.459 257.956V239.1C392.443 234.74 395.368 232.972 397.224 232.972C398.618 232.972 399.139 233.256 400.222 234.183C400.61 234.493 402.038 234.904 402.888 234.516C404.514 233.821 404.959 232.628 404.959 230.884C404.959 228.961 403.103 227.248 400.782 227.248Z" fill="#040606"/>
<path d="M312.757 192.261C311.506 193.095 310.227 193.704 308.339 193.704C305.339 193.704 304.377 191.511 304.377 186.595V165.672L312.886 164.401V162.761H304.377V147.373H301.598C301.035 156.18 297.923 161.956 290.063 162.761H288.77V164.401L295.863 165.672V187.037C295.863 193.816 297.506 196.731 303.853 196.731C308.423 196.731 312.09 195.011 313.59 193.595L312.757 192.261Z" fill="#040606"/>
<path d="M373.063 257.071C371.814 257.904 370.538 258.516 368.647 258.516C365.647 258.516 364.683 256.321 364.683 251.404V230.485L373.196 229.215V227.573H364.683V212.185H361.904C361.342 220.993 358.23 226.769 350.371 227.573H349.079V229.215L356.17 230.485V251.849C356.17 258.628 357.814 261.54 364.16 261.54C368.732 261.54 372.396 259.821 373.896 258.404L373.063 257.071Z" fill="#040606"/>
<path d="M163.421 242.131H185.371C185.147 232.947 180.369 227.196 170.738 227.196C161.254 227.196 154.235 235.409 154.235 244.368C154.235 254.748 161.03 261.543 170.811 261.543C179.173 261.543 183.503 258.256 186.043 256.392L184.623 254.149C182.683 255.344 178.801 257.959 172.379 257.584C165.959 257.136 162.749 250.418 163.421 242.131ZM177.009 239.516H163.793C164.541 233.843 166.779 229.663 170.738 229.663C175.217 229.663 176.71 234.89 177.009 239.516Z" fill="#040606"/>
<path d="M414.918 242.128H436.871C436.647 232.947 431.869 227.196 422.235 227.196C412.754 227.196 405.735 235.409 405.735 244.368C405.735 254.745 412.53 261.54 422.311 261.54C430.673 261.54 435.003 258.256 437.543 256.39L436.123 254.149C434.183 255.344 430.301 257.956 423.879 257.584C417.457 257.136 414.246 250.415 414.918 242.128ZM434.779 216.595L431.569 211.816L420.147 220.775L422.011 223.461L434.779 216.595ZM428.509 239.516H415.293C416.041 233.843 418.279 229.66 422.235 229.66C426.717 229.66 428.21 234.887 428.509 239.516Z" fill="#040606"/>
<path d="M426.093 168.725V195.05L426.155 196.045L425.147 195.983H412.374L411.366 196.045L411.426 195.05V171.04C411.426 164.04 407.397 160.696 402.426 160.696C397.457 160.696 393.426 164.04 393.426 171.04V195.05L393.489 196.045L392.481 195.983H379.707L378.699 196.045L378.759 195.05V171.04C378.759 157.969 389.355 147.373 402.426 147.373C407.989 147.373 413.09 149.303 417.131 152.513L417.418 153.384L417.702 152.537C418.115 152.089 418.543 151.657 418.989 151.24L419.858 151.045L419.055 150.676C415.563 146.781 413.426 141.649 413.426 136.009V83.496L413.366 82.4986L414.374 82.5613H427.147L428.155 82.4986L428.093 83.496V136.009C428.093 141.704 431.374 144.425 435.415 144.425C439.459 144.425 442.738 141.704 442.738 136.009V83.496L442.678 82.4986L443.686 82.5613H456.457L457.467 82.4986L457.405 83.496V136.009C457.405 141.649 455.267 146.781 451.774 150.676L450.973 151.045L451.842 151.24C452.287 151.657 452.717 152.089 453.131 152.537L453.415 153.384L453.699 152.513C457.741 149.303 462.845 147.373 468.405 147.373C481.475 147.373 492.071 157.969 492.071 171.04V195.05L492.134 196.045L491.123 195.983H478.353L477.345 196.045L477.405 195.05V171.04C477.405 164.04 473.374 160.696 468.405 160.696C463.434 160.696 459.405 164.04 459.405 171.04V195.05L459.467 196.045L458.457 195.983H445.686L444.678 196.045L444.738 195.05V168.725C444.738 161.472 440.566 158.009 435.415 158.009C430.267 158.009 426.093 161.472 426.093 168.725Z" fill="#040606"/>
<path d="M138.238 260.795H151.754V259.376L146.751 258.183V212.188H132.866V213.761L138.238 215.261V230.79C135.866 228.819 132.311 227.196 127.561 227.196C119.123 227.196 112.902 234.595 112.902 244.892C112.902 255.428 118.603 261.543 127.637 261.543C132.033 261.543 135.699 259.844 138.238 257.514V260.795ZM138.238 254.545C136.366 256.011 134.058 257.287 130.549 257.287C125.921 257.287 121.962 253.928 121.962 244.816C121.962 235.428 125.199 231.079 130.475 231.079C134.033 231.079 136.533 232.344 138.238 234.264V254.545Z" fill="#040606"/>
<path d="M265.319 212.185V213.68L260.243 215.024V257.956L265.319 259.3V260.795H244.215V259.228L250.983 257.956V223.759L235.207 260.795H231.548L216.042 223.611V257.956L222.568 259.076V260.795H207.302V259.3L211.632 258.032V214.949L207.302 213.68V212.185H220.902L236.006 249.395L251.532 212.185H265.319Z" fill="#040606"/>
<path d="M286.53 227.196C276.973 227.196 268.386 233.843 268.386 244.368C268.386 254.597 277.049 261.54 286.53 261.54C296.088 261.54 304.749 254.597 304.749 244.368C304.749 233.843 296.088 227.196 286.53 227.196ZM286.53 229.584C292.353 229.584 295.416 236.081 295.416 244.292C295.416 252.431 292.353 259.152 286.53 259.152C280.78 259.152 277.645 252.431 277.645 244.292C277.645 236.157 280.78 229.584 286.53 229.584Z" fill="#040606"/>
<path d="M462.337 237.349V242.949L454.795 243.324C447.478 243.548 442.923 247.504 442.923 252.954C442.923 258.48 447.03 261.54 452.481 261.54C456.962 261.54 460.173 259.376 462.337 257.808V260.795H474.713V259.376L470.699 258.18V235.933C470.699 231.079 467.489 227.196 460.246 227.196C452.855 227.196 448.225 229.287 445.613 230.407V238.097H449.309L450.53 231.704C451.379 231.344 453.67 230.554 457.334 230.855C461.735 231.217 462.262 234.29 462.337 237.349ZM462.337 255.344C460.621 256.464 459.126 257.584 456.439 257.584C452.107 257.66 450.913 254.969 450.913 251.835C450.913 248.623 453.079 246.459 457.035 245.787L462.337 245.188V255.344Z" fill="#040606"/>
<path d="M497.066 259.376V260.795H478.55V259.376L483.552 258.18V215.03L478.55 213.761V212.185H492.063V258.18L497.066 259.376Z" fill="#040606"/>
<path d="M69.0329 150.36L61.7902 148.941V147.373H78.5949V148.868L73.4444 150.36V179.759C73.4444 191.991 66.7745 196.954 53.111 196.954C39.1078 196.954 33.4308 191.595 33.4308 180.526V150.136L28.4282 148.868V147.373H49.934V149.016L42.6162 150.284V180.079C42.6162 189.095 45.686 193.519 55.0845 193.519C65.2777 193.519 69.0329 188.928 69.0329 179.261V150.36Z" fill="#040606"/>
<path d="M97.9596 194.564V195.983H79.8169V194.564L84.744 193.371V165.595L80.2642 164.324V162.761H93.2565V167.835C94.7486 166.565 99.4518 162.384 105.501 162.384C111.773 162.384 114.984 165.892 114.984 172.016V193.295L119.762 194.491V195.983H102.14V194.491L106.546 193.371V172.985C106.546 169.775 105.574 166.939 101.543 166.939C97.9596 166.939 94.3008 169.477 93.2565 170.149V193.371L97.9596 194.564Z" fill="#040606"/>
<path d="M136.238 193.371L141.165 194.564V195.983H122.722V194.564L127.725 193.371V165.595L123.246 164.324V162.761H136.238V193.371Z" fill="#040606"/>
<path d="M136.686 151.332C136.686 153.871 134.446 155.961 131.759 155.961C129.145 155.961 126.829 153.871 126.829 151.332C126.829 148.792 129.145 146.628 131.759 146.628C134.446 146.628 136.686 148.792 136.686 151.332Z" fill="#040606"/>
<path d="M282.894 193.371L287.824 194.564V195.983H269.382V194.564L274.383 193.371V165.595L269.904 164.324V162.761H282.894V193.371Z" fill="#040606"/>
<path d="M283.342 151.332C283.342 153.871 281.103 155.961 278.415 155.961C275.803 155.961 273.489 153.871 273.489 151.332C273.489 148.792 275.803 146.628 278.415 146.628C281.103 146.628 283.342 148.792 283.342 151.332Z" fill="#040606"/>
<path d="M143.861 165.074L141.47 164.106V162.762H157.6V164.106L152.446 165.374L159.852 185.605L167.196 165.226L162.716 164.106V162.762H173.766V164.106L171.077 165.374L158.434 196.507H155.67L143.861 165.074Z" fill="#040606"/>
<path d="M183.598 177.316H205.55C205.328 168.133 200.549 162.384 190.916 162.384C181.434 162.384 174.416 170.597 174.416 179.556C174.416 189.936 181.21 196.731 190.992 196.731C199.353 196.731 203.684 193.444 206.222 191.579L204.804 189.337C202.864 190.532 198.981 193.147 192.558 192.772C186.137 192.324 182.926 185.605 183.598 177.316ZM197.188 174.704H183.973C184.717 169.029 186.958 164.847 190.916 164.847C195.396 164.847 196.889 170.073 197.188 174.704Z" fill="#040606"/>
<path d="M262.707 164.1L261.962 172.24H258.899L258.153 166.715C257.033 166.117 255.541 164.847 252.254 164.847C249.566 164.847 247.475 166.267 247.475 169.177C247.475 172.613 251.282 173.956 255.093 175.676C258.751 177.243 264.725 179.483 264.725 185.381C264.725 192.1 259.199 196.731 252.553 196.731C246.431 196.731 242.845 195.311 241.801 194.938L241.205 185.904L244.339 185.605L246.131 191.728C247.027 192.399 249.491 194.34 252.478 194.267C256.735 194.267 258.751 192.026 258.751 188.816C258.751 185.007 253.449 183.366 249.939 181.723C246.655 180.155 241.577 178.735 241.577 171.941C241.577 166.343 246.207 162.384 252.478 162.384C257.855 162.384 261.215 163.652 262.707 164.1Z" fill="#040606"/>
<path d="M344.399 151.781L341.188 147.004L329.767 155.961L331.631 158.649L344.399 151.781Z" fill="#040606"/>
<path d="M324.538 177.316H346.491C346.267 168.133 341.489 162.384 331.855 162.384C322.374 162.384 315.355 170.597 315.355 179.556C315.355 189.936 322.15 196.731 331.931 196.731C340.293 196.731 344.623 193.444 347.162 191.579L345.743 189.337C343.803 190.532 339.921 193.147 333.498 192.772C327.077 192.324 323.866 185.605 324.538 177.316ZM338.129 174.704H324.913C325.661 169.029 327.899 164.847 331.855 164.847C336.337 164.847 337.829 170.073 338.129 174.704Z" fill="#040606"/>
<path d="M233.65 162.436C228.866 162.436 225.424 166.275 223.481 170.595H223.328V162.761H209.812V164.136L214.814 165.595V193.371L209.812 194.564V195.983H230.569V194.34L223.328 193.147V174.287C225.312 169.928 228.236 168.16 230.093 168.16C231.484 168.16 232.006 168.444 233.09 169.371C233.476 169.68 234.905 170.092 235.757 169.704C237.38 169.009 237.825 167.816 237.825 166.071C237.825 164.149 235.97 162.436 233.65 162.436Z" fill="#040606"/>
<path d="M326.243 259.376V260.795H308.098V259.376L313.027 258.18V230.407L308.549 229.136V227.573H321.538V232.647C323.033 231.379 327.735 227.196 333.782 227.196C340.055 227.196 343.267 230.704 343.267 236.83V258.108L348.046 259.3V260.795H330.423V259.3L334.829 258.18V237.797C334.829 234.587 333.858 231.751 329.827 231.751C326.243 231.751 322.585 234.289 321.538 234.961V258.18L326.243 259.376Z" fill="#040606"/>
<path d="M400.782 227.248C396 227.248 392.555 231.087 390.612 235.407H390.459V227.573H376.946V228.949L381.948 230.407V258.18L376.946 259.376V260.795H397.702V259.152L390.459 257.956V239.1C392.443 234.74 395.368 232.972 397.224 232.972C398.618 232.972 399.139 233.256 400.222 234.183C400.61 234.493 402.038 234.904 402.888 234.516C404.514 233.821 404.959 232.628 404.959 230.884C404.959 228.961 403.103 227.248 400.782 227.248Z" fill="#040606"/>
<path d="M312.757 192.261C311.506 193.095 310.227 193.704 308.339 193.704C305.339 193.704 304.377 191.511 304.377 186.595V165.672L312.886 164.401V162.761H304.377V147.373H301.598C301.035 156.18 297.923 161.956 290.063 162.761H288.77V164.401L295.863 165.672V187.037C295.863 193.816 297.506 196.731 303.853 196.731C308.423 196.731 312.09 195.011 313.59 193.595L312.757 192.261Z" fill="#040606"/>
<path d="M373.063 257.071C371.814 257.904 370.538 258.516 368.647 258.516C365.647 258.516 364.683 256.321 364.683 251.404V230.485L373.196 229.215V227.573H364.683V212.185H361.904C361.342 220.993 358.23 226.769 350.371 227.573H349.079V229.215L356.17 230.485V251.849C356.17 258.628 357.814 261.54 364.16 261.54C368.732 261.54 372.396 259.821 373.896 258.404L373.063 257.071Z" fill="#040606"/>
<path d="M163.421 242.131H185.371C185.147 232.947 180.369 227.196 170.738 227.196C161.254 227.196 154.235 235.409 154.235 244.368C154.235 254.748 161.03 261.543 170.811 261.543C179.173 261.543 183.503 258.256 186.043 256.392L184.623 254.149C182.683 255.344 178.801 257.959 172.379 257.584C165.959 257.136 162.749 250.418 163.421 242.131ZM177.009 239.516H163.793C164.541 233.843 166.779 229.663 170.738 229.663C175.217 229.663 176.71 234.89 177.009 239.516Z" fill="#040606"/>
<path d="M414.918 242.128H436.871C436.647 232.947 431.869 227.196 422.235 227.196C412.754 227.196 405.735 235.409 405.735 244.368C405.735 254.745 412.53 261.54 422.311 261.54C430.673 261.54 435.003 258.256 437.543 256.39L436.123 254.149C434.183 255.344 430.301 257.956 423.879 257.584C417.457 257.136 414.246 250.415 414.918 242.128ZM434.779 216.595L431.569 211.816L420.147 220.775L422.011 223.461L434.779 216.595ZM428.509 239.516H415.293C416.041 233.843 418.279 229.66 422.235 229.66C426.717 229.66 428.21 234.887 428.509 239.516Z" fill="#040606"/>
<path d="M30.5381 0.448162H35.7646V15.4935C35.7646 19.9361 37.1834 22.8482 41.1777 22.8482C45.172 22.8482 46.5908 19.9361 46.5908 15.4935V0.448162H51.8178V17.0988C51.8178 24.0801 47.8605 26.9548 41.1777 26.9548C34.4949 26.9548 30.5381 24.0801 30.5381 17.0988V0.448162Z" fill="#040606"/>
<path d="M57.7905 0.448179H64.2113L74.142 19.9362H74.2165V0.448179H79.2191V26.5068H72.8352L62.8676 7.01885H62.7931V26.5068H57.7905V0.448179Z" fill="#040606"/>
<path d="M85.3794 0.448179H100.761V4.55485H90.6059V10.9762H99.9018V15.0828H90.6059V22.4002H100.836V26.5068H85.3794V0.448179Z" fill="#040606"/>
<path d="M120.51 5.22681C118.867 4.51747 117.038 4.10682 115.209 4.10682C113.417 4.10682 111.102 4.89081 111.102 7.72814C111.102 12.2455 122.526 10.3415 122.526 19.0775C122.526 24.7895 118.009 26.9548 112.745 26.9548C109.907 26.9548 108.638 26.5815 106.062 25.9468L106.547 21.2428C108.339 22.2135 110.393 22.8482 112.446 22.8482C114.425 22.8482 117.075 21.8402 117.075 19.4882C117.075 14.5228 105.651 16.5762 105.651 7.95217C105.651 2.12817 110.169 0.000148091 114.761 0.000148091C116.999 0.000148091 119.091 0.298815 120.995 0.933481L120.51 5.22681Z" fill="#040606"/>
<path d="M146.606 26.1335C144.702 26.5815 142.648 26.9548 140.67 26.9548C132.232 26.9548 126.371 22.7361 126.371 13.9255C126.371 5.00281 131.822 0.000148091 140.67 0.000148091C142.387 0.000148091 144.664 0.336164 146.568 1.08283L146.194 5.48817C144.216 4.36817 142.424 4.10682 140.558 4.10682C135.182 4.10682 131.822 8.2135 131.822 13.5522C131.822 18.8535 135.107 22.8482 140.67 22.8482C142.722 22.8482 145.15 22.4001 146.382 21.7655L146.606 26.1335Z" fill="#040606"/>
<path d="M162.323 22.8482C167.662 22.8482 169.639 18.1068 169.639 13.4028C169.639 8.81082 167.511 4.10682 162.323 4.10682C157.134 4.10682 155.005 8.81082 155.005 13.4028C155.005 18.1068 156.985 22.8482 162.323 22.8482ZM162.323 0.000148091C170.499 0.000148091 175.09 5.52548 175.09 13.4028C175.09 21.2801 170.574 26.9548 162.323 26.9548C153.961 26.9548 149.555 21.3921 149.555 13.4028C149.555 5.41348 154.034 0.000148091 162.323 0.000148091Z" fill="#040606"/>
<path d="M209.287 4.74149C207.645 3.77082 205.815 3.2855 203.913 3.2855C197.902 3.2855 193.907 7.61616 193.907 13.4775C193.907 19.6002 198.311 23.6695 203.725 23.6695C205.591 23.6695 208.093 23.1841 209.399 22.4001L209.623 26.0215C207.645 26.8428 205.219 26.9548 203.689 26.9548C195.438 26.9548 189.949 21.6535 189.949 13.3655C189.949 5.33881 195.774 0.000148091 203.725 0.000148091C205.742 0.000148091 207.721 0.298834 209.586 1.12017L209.287 4.74149Z" fill="#040606"/>
<path d="M214.665 0.448179H218.397V11.3495H230.866V0.448179H234.599V26.5068H230.866V14.6348H218.397V26.5068H214.665V0.448179Z" fill="#040606"/>
<path d="M251.885 3.95749L246.696 16.8748H257.074L251.885 3.95749ZM250.056 0.448179H253.976L264.989 26.5068H260.92L258.269 19.9362H245.501L242.85 26.5068H238.93L250.056 0.448179Z" fill="#040606"/>
<path d="M269.131 0.448179H272.866V26.5068H269.131V0.448179Z" fill="#040606"/>
<path d="M283.393 11.6482H286.566C290.113 11.6482 292.205 10.0802 292.205 7.57884C292.205 5.22684 290.411 3.7335 286.978 3.7335H283.393V11.6482ZM279.661 0.448179H286.045C291.195 0.448179 296.162 1.2695 296.162 7.50417C296.162 10.6775 293.81 12.9175 290.785 13.4402V13.5148C291.943 13.9628 292.502 14.5228 293.325 16.1282L298.251 26.5068H293.997L290.001 17.4722C288.843 14.9335 287.611 14.9335 285.633 14.9335H283.393V26.5068H279.661V0.448179Z" fill="#040606"/>
<path d="M313.821 0.448179H317.554V26.5068H313.821V0.448179Z" fill="#040606"/>
<path d="M324.534 0.448179H329.612L341.112 21.4295H341.185V0.448179H344.918V26.5068H340.14L328.342 5.07751H328.269V26.5068H324.534V0.448179Z" fill="#040606"/>
<path d="M20.2344 71.7175C20.2344 79.0348 16.5385 82.9548 10.1172 82.9548C3.69587 82.9548 0 79.0348 0 71.7175V56.4482H3.73333V71.2322C3.73333 76.2348 5.3016 79.6695 10.1172 79.6695C14.9333 79.6695 16.5016 76.2348 16.5016 71.2322V56.4482H20.2344V71.7175Z" fill="#040606"/>
<path d="M30.7993 67.6482H33.9727C37.5195 67.6482 39.6102 66.0802 39.6102 63.5788C39.6102 61.2268 37.8175 59.7335 34.3831 59.7335H30.7993V67.6482ZM27.0659 56.4482H33.4498C38.6018 56.4482 43.567 57.2695 43.567 63.5042C43.567 66.6775 41.2154 68.9175 38.1914 69.4402V69.5148C39.3487 69.9628 39.9086 70.5228 40.7295 72.1282L45.658 82.5068H41.4014L37.4075 73.4722C36.2498 70.9335 35.0181 70.9335 33.0389 70.9335H30.7993V82.5068H27.0659V56.4482Z" fill="#040606"/>
<path d="M53.9833 79.4455H56.7833C60.1432 79.4455 63.1672 78.7362 63.1672 75.2268C63.1672 71.1948 59.6203 70.6348 56.4093 70.6348H53.9833V79.4455ZM53.9833 67.5735H56.0364C59.6577 67.5735 62.7187 67.2375 62.7187 63.3922C62.7187 60.2935 60.0683 59.5095 57.9031 59.5095H53.9833V67.5735ZM50.25 56.4482H57.3063C62.7187 56.4482 66.4525 58.2028 66.4525 63.0188C66.4525 66.6028 64.362 68.3948 61.076 69.2162V69.2908C64.6229 69.5895 67.1244 71.9042 67.1244 75.5628C67.1244 81.1628 62.4948 82.5068 57.1943 82.5068H50.25V56.4482Z" fill="#040606"/>
<path d="M83.7374 59.9575L78.5483 72.8748H88.9264L83.7374 59.9575ZM81.9082 56.4482H85.8281L96.841 82.5068H92.7723L90.1212 75.9362H77.3535L74.7024 82.5068H70.7827L81.9082 56.4482Z" fill="#040606"/>
<path d="M100.947 56.4482H106.025L117.523 77.4295H117.598V56.4482H121.331V82.5068H116.553L104.755 61.0775H104.681V82.5068H100.947V56.4482Z" fill="#040606"/>
<path d="M139.027 56.4482H142.761V79.2215H153.662V82.5068H139.027V56.4482Z" fill="#040606"/>
<path d="M168.185 59.9575L162.995 72.8748H173.374L168.185 59.9575ZM166.355 56.4482H170.275L181.289 82.5068H177.219L174.569 75.9362H161.801L159.15 82.5068H155.23L166.355 56.4482Z" fill="#040606"/>
<path d="M185.394 56.4482H190.471L201.97 77.4295H202.045V56.4482H205.778V82.5068H200.999L189.202 61.0775H189.127V82.5068H185.394V56.4482Z" fill="#040606"/>
<path d="M216.268 79.2215H220.188C226.61 79.2215 230.156 76.1228 230.156 69.4028C230.156 63.3175 226.012 59.7335 220.636 59.7335H216.268V79.2215ZM212.535 56.4482H220.226C227.954 56.4482 234.114 61.2268 234.114 69.2535C234.114 77.9895 228.812 82.5068 220.226 82.5068H212.535V56.4482Z" fill="#040606"/>
<path d="M251.921 60.3682C250.017 59.6215 248.972 59.2855 247.03 59.2855C244.941 59.2855 242.476 60.0322 242.476 62.7575C242.476 67.7602 253.676 66.6028 253.676 75.1895C253.676 80.7522 249.384 82.9548 244.157 82.9548C242.328 82.9548 240.534 82.4322 238.817 81.8722L239.192 78.4002C240.46 78.9228 242.7 79.6695 244.605 79.6695C246.732 79.6695 249.72 78.4748 249.72 75.4135C249.72 69.5895 238.52 71.1948 238.52 63.0935C238.52 58.4642 242.177 56.0002 246.882 56.0002C248.598 56.0002 250.652 56.2988 252.445 56.9335L251.921 60.3682Z" fill="#040606"/>
<path d="M277.121 60.7415C275.48 59.7708 273.65 59.2855 271.745 59.2855C265.734 59.2855 261.74 63.6162 261.74 69.4775C261.74 75.6002 266.146 79.6695 271.558 79.6695C273.426 79.6695 275.928 79.1842 277.233 78.4002L277.457 82.0215C275.48 82.8428 273.053 82.9548 271.521 82.9548C263.272 82.9548 257.782 77.6535 257.782 69.3655C257.782 61.3388 263.608 56.0002 271.558 56.0002C273.574 56.0002 275.554 56.2988 277.42 57.1202L277.121 60.7415Z" fill="#040606"/>
<path d="M292.39 59.9575L287.201 72.8748H297.579L292.39 59.9575ZM290.561 56.4482H294.481L305.495 82.5068H301.425L298.775 75.9362H286.006L283.355 82.5068H279.437L290.561 56.4482Z" fill="#040606"/>
<path d="M313.147 68.8055H316.842C319.158 68.8055 322.07 67.6482 322.07 64.2135C322.07 60.9282 318.635 59.7335 316.321 59.7335H313.147V68.8055ZM309.414 56.4482H316.246C321.585 56.4482 326.027 58.3148 326.027 64.2508C326.027 70.0375 321.509 72.0908 316.806 72.0908H313.147V82.5068H309.414V56.4482Z" fill="#040606"/>
<path d="M330.955 56.4482H345.552V59.7335H334.688V67.3495H344.582V70.6348H334.688V79.2215H345.552V82.5068H330.955V56.4482Z" fill="#040606"/>
</svg>
