<svg width="24" height="24" viewBox="0 0 24 24" fill="none" xmlns="http://www.w3.org/2000/svg">
<path d="M3 7.16228C3 5.87099 3.82629 4.72457 5.05132 4.31623L7.60804 3.46399C8.48631 3.17123 9.45054 3.30036 10.2208 3.81388L14.1861 6.45741C14.6996 6.79976 15.3425 6.88585 15.928 6.69068L18.3675 5.87749C19.6626 5.4458 21 6.40974 21 7.77485V16.8377C21 18.129 20.1737 19.2754 18.9487 19.6838L16.392 20.536C15.5137 20.8288 14.5495 20.6996 13.7792 20.1861L9.81388 17.5426C9.30036 17.2002 8.65754 17.1142 8.07203 17.3093L5.63246 18.1225C4.33739 18.5542 3 17.5903 3 16.2251V7.16228Z" stroke="black" stroke-width="2" stroke-linejoin="round"/>
<path d="M9 7V17M15 7V17" stroke="black" stroke-width="2" stroke-linecap="round"/>
</svg>
