<svg width="48" height="48" viewBox="0 0 48 48" fill="none" xmlns="http://www.w3.org/2000/svg">
<path d="M42 48H6C2.688 48 0 45.312 0 42V6C0 2.688 2.688 0 6 0H42C45.312 0 48 2.688 48 6V42C48 45.312 45.312 48 42 48Z" fill="#1D9BF0"/>
<path d="M18.432 36.192C29.748 36.192 35.94 26.808 35.94 18.684C35.94 18.42 35.94 18.156 35.928 17.892C37.128 17.028 38.172 15.936 39 14.7C37.896 15.192 36.708 15.516 35.46 15.672C36.732 14.916 37.704 13.704 38.172 12.264C36.984 12.972 35.664 13.476 34.26 13.752C33.132 12.552 31.536 11.808 29.772 11.808C26.376 11.808 23.616 14.568 23.616 17.964C23.616 18.444 23.676 18.912 23.772 19.368C18.66 19.116 14.124 16.656 11.088 12.936C10.56 13.848 10.26 14.904 10.26 16.032C10.26 18.168 11.352 20.052 12.996 21.156C11.988 21.12 11.04 20.844 10.212 20.388C10.212 20.412 10.212 20.436 10.212 20.472C10.212 23.448 12.336 25.944 15.144 26.508C14.628 26.652 14.088 26.724 13.524 26.724C13.128 26.724 12.744 26.688 12.372 26.616C13.152 29.064 15.432 30.84 18.12 30.888C16.008 32.544 13.356 33.528 10.476 33.528C9.98402 33.528 9.49202 33.504 9.01202 33.444C11.724 35.172 14.964 36.192 18.432 36.192Z" fill="white"/>
</svg>
