<svg width="24" height="24" viewBox="0 0 24 24" fill="none" xmlns="http://www.w3.org/2000/svg">
<path d="M11 21H13" stroke="black" stroke-width="2" stroke-linecap="round" stroke-linejoin="round"/>
<path d="M13.8837 5.32612C15.8424 6.0279 17.3106 7.79527 17.5522 9.96942L17.8451 12.6055C17.9454 13.5082 18.3499 14.3499 18.9922 14.9922L19.8559 15.8559C20.3815 16.3815 20.1593 17.2361 19.4296 17.3777C17.9702 17.661 15.4937 18 12 18C8.50638 18 6.02987 17.661 4.57048 17.3777C3.84072 17.2361 3.61849 16.3815 4.14414 15.8559L5.00786 14.9922C5.65012 14.3499 6.05467 13.5082 6.15497 12.6055L6.44786 9.96942C6.68944 7.79527 8.15763 6.0279 10.1164 5.32612C10.393 4.55309 11.1319 4 12 4C12.8681 4 13.6071 4.55309 13.8837 5.32612Z" stroke="black" stroke-width="2"/>
</svg>
