<svg width="24" height="24" viewBox="0 0 24 24" fill="none" xmlns="http://www.w3.org/2000/svg">
<path d="M4 20L20 4" stroke="black" stroke-width="2" stroke-linecap="round"/>
<path d="M20.2544 10C20.734 10.7742 21 11.4861 21 12C21 14 16.9706 19 12 19C11.662 19 11.3283 18.9769 11 18.9332" stroke="black" stroke-width="2" stroke-linecap="round"/>
<path d="M17.1972 6.80284C15.7292 5.75851 13.936 5 12 5C7.02944 5 3 10 3 12C3 13.221 4.50186 15.5602 6.80284 17.1972" stroke="black" stroke-width="2"/>
<path d="M9.87868 14.1213C8.70711 12.9497 8.70711 11.0502 9.87868 9.87868C11.0503 8.7071 12.9497 8.7071 14.1213 9.87868" stroke="black" stroke-width="2"/>
</svg>
