<svg width="24" height="24" viewBox="0 0 24 24" fill="none" xmlns="http://www.w3.org/2000/svg">
<path d="M4.89443 6.55279L9.76393 4.11803C11.1716 3.41422 12.8284 3.41421 14.2361 4.11803L19.1056 6.55279C19.6537 6.82687 20 7.38713 20 8C20 8.61287 19.6537 9.17313 19.1056 9.44721L14.2361 11.882C12.8284 12.5858 11.1716 12.5858 9.76393 11.882L4.89443 9.44721C4.34626 9.17313 4 8.61287 4 8C4 7.38713 4.34626 6.82687 4.89443 6.55279Z" stroke="black" stroke-width="2" stroke-linecap="round"/>
<path d="M4 17L9.76393 19.882C11.1716 20.5858 12.8284 20.5858 14.2361 19.882L20 17" stroke="black" stroke-width="2" stroke-linecap="round"/>
<path d="M4 13L9.76393 15.882C11.1716 16.5858 12.8284 16.5858 14.2361 15.882L20 13" stroke="black" stroke-width="2" stroke-linecap="round"/>
</svg>
