<svg width="24" height="24" viewBox="0 0 24 24" fill="none" xmlns="http://www.w3.org/2000/svg">
<path d="M4 8C4 5.79086 5.79086 4 8 4H13.7574C14.553 4 15.3161 4.31607 15.8787 4.87868L19.1213 8.12132C19.6839 8.68393 20 9.44699 20 10.2426V16C20 18.2091 18.2091 20 16 20H8C5.79086 20 4 18.2091 4 16V8Z" stroke="black" stroke-width="2"/>
<path d="M8 19V16C8 14.8954 8.89543 14 10 14H14C15.1046 14 16 14.8954 16 16V19" stroke="black" stroke-width="2" stroke-linecap="round" stroke-linejoin="round"/>
<path d="M11 17H13" stroke="black" stroke-width="2" stroke-linecap="round" stroke-linejoin="round"/>
<path d="M15 5L15 7C15 7.55228 14.5523 8 14 8L10 8C9.44771 8 9 7.55228 9 7L9 5" stroke="black" stroke-width="2" stroke-linecap="round" stroke-linejoin="round"/>
</svg>
