<svg width="24" height="24" viewBox="0 0 24 24" fill="none" xmlns="http://www.w3.org/2000/svg">
<path d="M20 10L20 4M9 18L9 16C9 14.8954 8.10457 14 7 14L6 14C4.89543 14 4 14.8954 4 16L4 18C4 19.1046 4.89543 20 6 20L7 20C8.10457 20 9 19.1046 9 18ZM16 6L16 8C16 9.10457 15.1046 10 14 10L6 10C4.89543 10 4 9.10457 4 8L4 6C4 4.89543 4.89543 4 6 4L14 4C15.1046 4 16 4.89543 16 6ZM20 16L20 18C20 19.1046 19.1046 20 18 20L15 20C13.8954 20 13 19.1046 13 18L13 16C13 14.8954 13.8954 14 15 14L18 14C19.1046 14 20 14.8954 20 16Z" stroke="black" stroke-width="2" stroke-linecap="round"/>
</svg>
