<svg width="24" height="24" viewBox="0 0 24 24" fill="none" xmlns="http://www.w3.org/2000/svg">
<path d="M3 5.87279V5C3 3.89543 3.89543 3 5 3H19C20.1046 3 21 3.89543 21 5V5.87279C21 6.59946 20.7362 7.30143 20.2577 7.84831L14.2474 14.7172C14.0879 14.8995 14 15.1335 14 15.3757V18.5C14 18.8148 13.8518 19.1111 13.6 19.3L11.6 20.8C10.9408 21.2944 10 20.824 10 20V15.3757C10 15.1335 9.91208 14.8995 9.75258 14.7172L3.74227 7.84831C3.26375 7.30143 3 6.59946 3 5.87279Z" stroke="black" stroke-width="2" stroke-linejoin="round"/>
</svg>
