<svg width="24" height="24" viewBox="0 0 24 24" fill="none" xmlns="http://www.w3.org/2000/svg">
<path d="M3 5.89023V4C3 3.44772 3.44772 3 4 3H20C20.5523 3 21 3.44772 21 4V5.89023C21 6.60636 20.7438 7.29887 20.2778 7.8426L15.2407 13.7191C15.0854 13.9004 15 14.1312 15 14.3699V19.2792C15 19.7097 14.7246 20.0918 14.3162 20.2279L10.3162 21.5613C9.6687 21.7771 9 21.2951 9 20.6126V14.3699C9 14.1312 8.91461 13.9004 8.75926 13.7191L3.72223 7.8426C3.25618 7.29887 3 6.60636 3 5.89023Z" stroke="black" stroke-width="2" stroke-linejoin="round"/>
<path d="M9 7H15" stroke="black" type="secondary" stroke-width="2" stroke-linecap="round" stroke-linejoin="round"/>
</svg>
