<svg width="24" height="24" viewBox="0 0 24 24" fill="none" xmlns="http://www.w3.org/2000/svg">
<path d="M9.7812 3.4792L3.8906 7.40627C3.3342 7.7772 3 8.40166 3 9.07037V18C3 19.6569 4.34315 21 6 21H9C9.55228 21 10 20.5523 10 20V16C10 15.4477 10.4477 15 11 15H13C13.5523 15 14 15.4477 14 16V20C14 20.5523 14.4477 21 15 21H18C19.6569 21 21 19.6569 21 18V9.07037C21 8.40166 20.6658 7.7772 20.1094 7.40627L14.2188 3.4792C12.8752 2.58347 11.1248 2.58347 9.7812 3.4792Z" stroke="black" stroke-width="2" stroke-linecap="square" stroke-linejoin="round"/>
</svg>
