<svg width="24" height="24" viewBox="0 0 24 24" fill="none" xmlns="http://www.w3.org/2000/svg">
<path d="M8.59913 18.1198C8.54175 18.0878 8.48487 18.0551 8.4285 18.0216C7.6515 17.5598 6.67812 17.4198 5.89736 17.8753C5.62282 18.0354 5.27183 17.9861 5.06894 17.7415C4.44607 16.9904 3.94296 16.1364 3.58888 15.2089C3.4754 14.9116 3.60544 14.5814 3.88028 14.4211C4.66129 13.9655 5.01988 13.0492 5.00148 12.1452C5.0005 12.0969 5 12.0485 5 12C5 11.9515 5.0005 11.9031 5.00148 11.8548C5.01988 10.9508 4.66129 10.0345 3.88028 9.5789C3.60544 9.41858 3.4754 9.0884 3.58888 8.79115C3.94296 7.86356 4.44607 7.00959 5.06894 6.25851C5.27183 6.01386 5.62282 5.96457 5.89736 6.12472C6.67812 6.58016 7.6515 6.44025 8.42849 5.97841C8.48487 5.9449 8.54175 5.91216 8.59913 5.88021C9.38862 5.44054 10 4.67034 10 3.76668C10 3.44871 10.2197 3.1703 10.5335 3.11888C11.0108 3.04067 11.5006 3 12 3C12.4994 3 12.9892 3.04067 13.4665 3.11888C13.7803 3.1703 14 3.44871 14 3.76668C14 4.67034 14.6114 5.44053 15.4009 5.8802C15.4583 5.91216 15.5151 5.9449 15.5715 5.97841C16.3485 6.44025 17.3219 6.58016 18.1026 6.12472C18.3772 5.96457 18.7282 6.01386 18.9311 6.25851C19.5539 7.00958 20.057 7.86356 20.4111 8.79115C20.5246 9.0884 20.3946 9.41858 20.1197 9.5789C19.3387 10.0345 18.9801 10.9508 18.9985 11.8548C18.9995 11.9031 19 11.9515 19 12C19 12.0485 18.9995 12.0969 18.9985 12.1452C18.9801 13.0492 19.3387 13.9655 20.1197 14.4211C20.3946 14.5814 20.5246 14.9116 20.4111 15.2089C20.057 16.1364 19.5539 16.9904 18.9311 17.7415C18.7282 17.9861 18.3772 18.0354 18.1026 17.8753C17.3219 17.4198 16.3485 17.5598 15.5715 18.0216C15.5151 18.0551 15.4583 18.0878 15.4009 18.1198C14.6114 18.5595 14 19.3297 14 20.2333C14 20.5513 13.7803 20.8297 13.4665 20.8811C12.9892 20.9593 12.4994 21 12 21C11.5006 21 11.0108 20.9593 10.5335 20.8811C10.2197 20.8297 10 20.5513 10 20.2333C10 19.3297 9.38862 18.5595 8.59913 18.1198Z" stroke="black" stroke-width="2"/>
<circle cx="12" cy="12" r="3" type="secondary" stroke="black" stroke-width="2"/>
</svg>
