<svg width="24" height="24" viewBox="0 0 24 24" fill="none" xmlns="http://www.w3.org/2000/svg" id="user">
<path d="M19.4835 17.1395L18.7741 17.8443L19.4835 17.1395ZM18.7134 20.1144L18.4246 19.1571L18.7134 20.1144ZM5.22258 17.8443C6.97508 16.0804 9.36558 15 11.9983 15V13C8.80354 13 5.91051 14.3142 3.8038 16.4346L5.22258 17.8443ZM11.9983 15C14.6311 15 17.0216 16.0804 18.7741 17.8443L20.1929 16.4346C18.0862 14.3142 15.1932 13 11.9983 13V15ZM18.4246 19.1571C16.698 19.6779 14.4616 20 11.9983 20V22C14.6213 22 17.0567 21.6588 19.0022 21.0718L18.4246 19.1571ZM11.9983 20C9.53507 20 7.2987 19.6779 5.57214 19.1571L4.99448 21.0718C6.94003 21.6588 9.37543 22 11.9983 22V20ZM18.7741 17.8443C19.2138 18.2869 19.0574 18.9661 18.4246 19.1571L19.0022 21.0718C21.0443 20.4558 21.7224 17.9741 20.1929 16.4346L18.7741 17.8443ZM3.8038 16.4346C2.2743 17.9741 2.95243 20.4558 4.99448 21.0718L5.57214 19.1571C4.93929 18.9661 4.78285 18.2869 5.22258 17.8443L3.8038 16.4346Z" fill="black"/>
<circle cx="12" cy="7" r="4" stroke="black" stroke-width="2" stroke-linecap="round"/>
</svg>
