<svg width="1642" height="721" viewBox="0 0 1642 721" fill="none" xmlns="http://www.w3.org/2000/svg">
<path d="M811.47 121.534V480.865H876.577V121.534H811.47Z" fill="#1DC25F"/>
<path fill-rule="evenodd" clip-rule="evenodd" d="M605.767 475.398C619.683 482.356 635.255 485.835 652.485 485.835C674.684 485.835 694.564 480.368 712.125 469.434C729.685 458.5 743.436 443.59 753.376 424.704C763.647 405.818 768.783 384.612 768.783 361.088C768.783 337.232 763.647 315.861 753.376 296.975C743.436 278.089 729.685 263.179 712.125 252.245C694.564 241.311 674.684 235.844 652.485 235.844C635.255 235.844 619.683 239.488 605.767 246.778C597.76 251.074 590.616 256.291 584.336 262.429L584.396 240.814H519.289V581.259H583.899V459.729C590.189 465.833 597.478 471.056 605.767 475.398ZM641.053 425.698C652.981 425.698 663.584 423.047 672.861 417.746C682.139 412.113 689.262 404.493 694.232 394.884C699.534 384.944 702.184 373.513 702.184 360.591C702.184 348 699.534 336.901 694.232 327.292C689.262 317.352 682.139 309.731 672.861 304.43C663.584 298.797 652.981 295.981 641.053 295.981C629.457 295.981 619.02 298.797 609.742 304.43C600.465 309.731 593.176 317.352 587.874 327.292C582.904 336.901 580.419 348 580.419 360.591C580.419 373.513 582.904 384.944 587.874 394.884C593.176 404.493 600.299 412.113 609.245 417.746C618.523 423.047 629.125 425.698 641.053 425.698Z" fill="#1DC25F"/>
<path fill-rule="evenodd" clip-rule="evenodd" d="M1049.07 485.835C1023.89 485.835 1001.53 480.533 981.976 469.931C962.428 458.997 946.855 444.087 935.258 425.201C923.993 406.315 918.36 384.778 918.36 360.591C918.36 336.735 923.827 315.529 934.761 296.975C946.027 278.089 961.268 263.179 980.485 252.245C999.703 240.979 1021.07 235.347 1044.6 235.347C1067.79 235.347 1088.17 240.648 1105.73 251.251C1123.62 261.522 1137.54 275.769 1147.48 293.993C1157.75 311.885 1162.88 332.262 1162.88 355.124C1162.88 359.431 1162.55 363.904 1161.89 368.543C1161.56 372.85 1160.73 377.82 1159.41 383.453L983.859 383.924C985.13 388.861 986.822 393.508 988.934 397.866C994.567 408.468 1002.52 416.752 1012.79 422.716C1023.06 428.348 1034.99 431.165 1048.57 431.165C1060.83 431.165 1071.93 429.177 1081.87 425.201C1091.81 420.893 1100.43 414.598 1107.72 406.315L1145.99 444.584C1134.39 458.168 1120.14 468.44 1103.24 475.398C1086.68 482.356 1068.62 485.835 1049.07 485.835ZM1100.11 334.84L983.895 335.213C985.059 330.802 986.574 326.67 988.438 322.819C993.739 312.216 1001.19 304.098 1010.8 298.466C1020.41 292.502 1031.68 289.52 1044.6 289.52C1056.86 289.52 1067.13 292.17 1075.41 297.472C1084.03 302.442 1090.49 309.731 1094.8 319.34C1097.03 323.968 1098.8 329.135 1100.11 334.84Z" fill="#1DC25F"/>
<path d="M240.211 349.124C240.211 286.538 290.947 235.802 353.533 235.802C416.119 235.802 466.855 286.538 466.855 349.124V480.829H401.732V300.977H305.334V480.829H240.211V349.124Z" fill="#1DC25F"/>
<path d="M1343.3 360.822L1422.33 281.791L1381.32 240.779L1302.29 319.81L1223.26 240.779L1182.25 281.791L1261.28 360.822L1182.25 439.853L1223.26 480.865L1302.29 401.834L1381.32 480.865L1422.33 439.853L1343.3 360.822Z" fill="#1DC25F"/>
</svg>
