<svg width="24" height="24" viewBox="0 0 24 24" fill="none" xmlns="http://www.w3.org/2000/svg">
<path d="M7.87354 4.81614L3.73468 15.1633C3.28898 16.2775 3.5502 17.5502 4.39879 18.3988L4.60121 18.6012C5.4498 19.4498 6.72245 19.711 7.8367 19.2653L18.1839 15.1265C19.517 14.5932 19.8706 12.8706 18.8553 11.8553L11.1447 4.14471C10.1294 3.12942 8.4068 3.48301 7.87354 4.81614Z" stroke="black" stroke-width="2"/>
<path d="M9 19L9.17082 19.3416C9.679 20.358 10.7178 21 11.8541 21H12.1577C14.1094 21 15.5415 19.1658 15.0681 17.2724L15 17" stroke="black" stroke-width="2"/>
<path d="M16 3C18 4 20 6 21 8" stroke="black" stroke-width="2" stroke-linecap="round"/>
</svg>
