<svg width="24" height="24" viewBox="0 0 24 24" fill="none" xmlns="http://www.w3.org/2000/svg">
<path d="M10 21H14" stroke="black" stroke-width="2" stroke-linecap="round" stroke-linejoin="round"/>
<path d="M13.7487 5.32612C15.7074 6.0279 17.1756 7.79527 17.4172 9.96942L17.7101 12.6055C17.8104 13.5082 18.2149 14.3499 18.8572 14.9922L19.7209 15.8559C20.2466 16.3815 20.0243 17.2361 19.2946 17.3777C17.8352 17.661 15.3587 18 11.865 18C8.3714 18 5.89489 17.661 4.4355 17.3777C3.70574 17.2361 3.48351 16.3815 4.00917 15.8559L4.87288 14.9922C5.51514 14.3499 5.91969 13.5082 6.01999 12.6055L6.31289 9.96942C6.55446 7.79527 8.02265 6.0279 9.98141 5.32612C10.258 4.55309 10.9969 4 11.865 4C12.7332 4 13.4721 4.55309 13.7487 5.32612Z" stroke="black" stroke-width="2"/>
<path d="M19 4C20.5 5.5 21 7 21 7" stroke="black" stroke-width="2" stroke-linecap="round" stroke-linejoin="round"/>
<path d="M5 4C3.5 5.5 3 7 3 7" stroke="black" stroke-width="2" stroke-linecap="round" stroke-linejoin="round"/>
</svg>
