<svg width="24" height="24" viewBox="0 0 24 24" fill="none" xmlns="http://www.w3.org/2000/svg">
<path d="M12.6709 16.2737L12 17.0152L12.6709 16.2737ZM11.3291 16.2737L10.6582 15.5321L11.3291 16.2737ZM6.67091 20.4882L7.34183 21.2298L6.67091 20.4882ZM17.3291 20.4882L16.6582 21.2298L17.3291 20.4882ZM9 4H15V2H9V4ZM18 7V19.7467H20V7H18ZM6 19.7467V7H4V19.7467H6ZM18 19.7467L13.3418 15.5321L12 17.0152L16.6582 21.2298L18 19.7467ZM10.6582 15.5321L6 19.7467L7.34183 21.2298L12 17.0152L10.6582 15.5321ZM13.3418 15.5321C12.58 14.8429 11.42 14.8429 10.6582 15.5321L12 17.0152L12 17.0152L13.3418 15.5321ZM4 19.7467C4 21.4807 6.05598 22.3931 7.34183 21.2298L6 19.7467L6 19.7467H4ZM18 19.7467L16.6582 21.2298C17.944 22.3931 20 21.4807 20 19.7467H18ZM15 4C16.6569 4 18 5.34315 18 7H20C20 4.23858 17.7614 2 15 2V4ZM9 2C6.23858 2 4 4.23858 4 7H6C6 5.34315 7.34315 4 9 4V2Z" fill="black"/>
</svg>
