<svg width="24" height="24" viewBox="0 0 24 24" fill="none" xmlns="http://www.w3.org/2000/svg">
<path d="M12 19C16.4183 19 20 15.4183 20 11C20 6.58172 16.4183 3 12 3C7.58172 3 4 6.58172 4 11C4 12.6451 4.49658 14.1743 5.34803 15.4457C5.48461 15.6497 5.55524 15.8923 5.53302 16.1368L5.16253 20.2122C5.09159 20.9925 5.90484 21.5476 6.60563 21.1972L10.8356 19.0822C11.0082 18.9959 11.2021 18.963 11.3946 18.9774C11.5944 18.9924 11.7963 19 12 19Z" stroke="black" stroke-width="2" stroke-linecap="round" stroke-linejoin="round"/>
<path d="M9 9H10.5H15M9 13H13" stroke="black" stroke-width="2" stroke-linecap="round"/>
</svg>
