<svg width="24" height="24" viewBox="0 0 24 24" fill="none" xmlns="http://www.w3.org/2000/svg">
<path d="M10.8356 19.0822L11.2828 19.9766L10.8356 19.0822ZM11.3946 18.9774L11.3199 19.9746L11.3946 18.9774ZM5.16253 20.2122L4.16663 20.1217L5.16253 20.2122ZM6.60563 21.1972L7.05285 22.0916L6.60563 21.1972ZM5.34803 15.4457L6.17893 14.8893L5.34803 15.4457ZM19 11C19 14.866 15.866 18 12 18V20C16.9706 20 21 15.9706 21 11H19ZM12 4C15.866 4 19 7.13401 19 11H21C21 6.02944 16.9706 2 12 2V4ZM5 11C5 7.13401 8.13401 4 12 4V2C7.02944 2 3 6.02944 3 11H5ZM6.17893 14.8893C5.43428 13.7774 5 12.4409 5 11H3C3 12.8494 3.55888 14.5712 4.51713 16.0022L6.17893 14.8893ZM4.53713 16.0463L4.16663 20.1217L6.15842 20.3028L6.52891 16.2273L4.53713 16.0463ZM7.05285 22.0916L11.2828 19.9766L10.3884 18.1878L6.15842 20.3028L7.05285 22.0916ZM12 18C11.8212 18 11.6442 17.9933 11.4692 17.9802L11.3199 19.9746C11.5446 19.9915 11.7714 20 12 20V18ZM11.2828 19.9766C11.2775 19.9793 11.2882 19.9723 11.3199 19.9746L11.4692 17.9802C11.1159 17.9538 10.739 18.0125 10.3884 18.1878L11.2828 19.9766ZM4.16663 20.1217C4.02476 21.6823 5.65126 22.7924 7.05285 22.0916L6.15842 20.3028H6.15842L4.16663 20.1217ZM4.51713 16.0022C4.54035 16.0369 4.53642 16.0541 4.53713 16.0463L6.52891 16.2273C6.57407 15.7306 6.42886 15.2626 6.17893 14.8893L4.51713 16.0022Z" fill="black"/>
<path d="M9 9H10.5H15M9 13H13" stroke="black" stroke-width="2" stroke-linecap="round"/>
</svg>
