<svg width="24" height="24" viewBox="0 0 24 24" fill="none" xmlns="http://www.w3.org/2000/svg">
<path d="M10.3359 3.1094L4.7812 6.81253C3.6684 7.5544 3 8.80332 3 10.1407V17C3 18.6569 4.34315 20 6 20H8.5C9.32843 20 10 19.3284 10 18.5V15.5C10 14.6716 10.6716 14 11.5 14H12.5C13.3284 14 14 14.6716 14 15.5V18.5C14 19.3284 14.6716 20 15.5 20H18C19.6569 20 21 18.6569 21 17V10.1407C21 8.80332 20.3316 7.5544 19.2188 6.81253L13.6641 3.1094C12.6564 2.4376 11.3436 2.4376 10.3359 3.1094Z" stroke="black" stroke-width="2" stroke-linecap="square" stroke-linejoin="round"/>
</svg>
