<svg width="24" height="24" viewBox="0 0 24 24" fill="none" xmlns="http://www.w3.org/2000/svg">
<path d="M10.2 3.35L5.6 6.8C4.59278 7.55542 4 8.74097 4 10V17C4 18.6569 5.34315 20 7 20H8.5C9.32843 20 10 19.3284 10 18.5V15.5C10 14.6716 10.6716 14 11.5 14H12.5C13.3284 14 14 14.6716 14 15.5V18.5C14 19.3284 14.6716 20 15.5 20H17C18.6569 20 20 18.6569 20 17V10C20 8.74097 19.4072 7.55542 18.4 6.8L13.8 3.35C12.7333 2.55 11.2667 2.55 10.2 3.35Z" stroke="black" stroke-width="2" stroke-linecap="square" stroke-linejoin="round"/>
</svg>
