<svg width="24" height="24" viewBox="0 0 24 24" fill="none" xmlns="http://www.w3.org/2000/svg">
<path d="M10 14L14 10" stroke="black" stroke-width="2" stroke-linecap="round"/>
<path d="M8 11.5L7.70643 11.6468C7.23854 11.8807 6.81142 12.1886 6.44152 12.5585L5.5 13.5C4.11929 14.8807 4.11929 17.1193 5.5 18.5V18.5C6.88071 19.8807 9.11929 19.8807 10.5 18.5L11.4415 17.5585C11.8114 17.1886 12.1193 16.7615 12.3532 16.2936L12.5 16" stroke="black" stroke-width="2" stroke-linecap="round"/>
<path d="M16 12.5L16.2936 12.3532C16.7615 12.1193 17.1886 11.8114 17.5585 11.4415L18.5 10.5C19.8807 9.11929 19.8807 6.88071 18.5 5.5V5.5C17.1193 4.11929 14.8807 4.11929 13.5 5.5L12.5585 6.44152C12.1886 6.81142 11.8807 7.23854 11.6468 7.70643L11.5 8" stroke="black" stroke-width="2" stroke-linecap="round"/>
</svg>
