<svg width="24" height="24" viewBox="0 0 24 24" fill="none" xmlns="http://www.w3.org/2000/svg">
<path d="M8.62688 18.1352C9.40187 18.5622 10 19.3167 10 20.2016C10 20.5381 10.2325 20.8329 10.5648 20.8862C11.0322 20.9611 11.5115 21 12 21C12.4885 21 12.9678 20.9611 13.4352 20.8862C13.7675 20.8329 14 20.5381 14 20.2016C14 19.3167 14.5981 18.5622 15.3731 18.1352C15.4586 18.0881 15.543 18.0392 15.6262 17.9887C16.3825 17.5298 17.3346 17.3893 18.1007 17.8317C18.3925 18.0001 18.7644 17.9463 18.9773 17.6853C19.5801 16.9463 20.0679 16.1099 20.4133 15.2031C20.5337 14.8871 20.3937 14.5367 20.1009 14.3676C19.3354 13.9257 18.9801 13.0318 18.9985 12.1481C18.9995 12.0988 19 12.0495 19 12C19 11.9505 18.9995 11.9012 18.9985 11.8519C18.9801 10.9682 19.3354 10.0743 20.1009 9.63236C20.3937 9.46327 20.5337 9.11288 20.4133 8.79686C20.0679 7.89014 19.5801 7.05366 18.9773 6.31473C18.7644 6.05371 18.3924 5.99992 18.1007 6.16835C17.3346 6.61065 16.3825 6.47018 15.6262 6.01127C15.543 5.96076 15.4586 5.91193 15.3731 5.86483C14.5981 5.43784 14 4.68325 14 3.79841C14 3.46188 13.7675 3.16706 13.4352 3.11381C12.9678 3.03891 12.4885 3 12 3C11.5115 3 11.0322 3.03891 10.5648 3.1138C10.2325 3.16706 10 3.46188 10 3.79841C10 4.68325 9.40187 5.43784 8.62688 5.86484C8.5414 5.91193 8.45702 5.96076 8.37377 6.01127C7.61751 6.47018 6.66537 6.61065 5.89928 6.16835C5.60755 5.99992 5.23564 6.05371 5.02269 6.31473C4.41988 7.05366 3.93211 7.89014 3.5867 8.79685C3.46631 9.11288 3.60627 9.46328 3.89914 9.63236C4.66462 10.0743 5.01987 10.9682 5.00154 11.8519C5.00051 11.9012 5 11.9505 5 12C5 12.0495 5.00051 12.0988 5.00154 12.1481C5.01987 13.0318 4.66462 13.9257 3.89914 14.3676C3.60627 14.5367 3.46631 14.8871 3.5867 15.2031C3.93211 16.1099 4.41988 16.9463 5.02269 17.6853C5.23564 17.9463 5.60755 18.0001 5.89928 17.8317C6.66537 17.3893 7.6175 17.5298 8.37377 17.9887C8.45702 18.0392 8.5414 18.0881 8.62688 18.1352Z" stroke="black" stroke-width="2"/>
<circle cx="12" cy="12" r="3" stroke="black" stroke-width="2"/>
</svg>
